<?xml version="1.0" standalone="no"?>
<!DOCTYPE svg PUBLIC "-//W3C//DTD SVG 1.1//EN" "http://www.w3.org/Graphics/SVG/1.1/DTD/svg11.dtd" >
<svg xmlns="http://www.w3.org/2000/svg" xmlns:xlink="http://www.w3.org/1999/xlink" version="1.1">
<metadata>
Created by FontForge 20170812 at Tue Jun  8 13:31:20 2021
 By www-data
Copyright 2021 by Violaine et J_r_my.
</metadata>
<defs>
<font id="Dahlia-bold" horiz-adv-x="508" >
  <font-face 
    font-family="Dahlia bold"
    font-weight="700"
    font-stretch="normal"
    units-per-em="1000"
    panose-1="0 0 5 0 0 0 0 0 0 0"
    ascent="800"
    descent="-200"
    x-height="500"
    cap-height="700"
    bbox="-376 -290 1543 1014"
    underline-thickness="50"
    underline-position="-100"
    stemh="14"
    stemv="160"
    unicode-range="U+0020-25CA"
  />
<missing-glyph horiz-adv-x="433" 
d="M80 700h275v-865h-275v865zM288 614v28h-143v-28h57v-33h-58v-28h144v28h-57v33h57zM231 470v60h-87v-89h144v29h-57zM173 501h29v-31h-29v31zM288 389v28h-144v-28h58v-32h-58v-29h87v61h57zM288 279v86h-28v-57h-116v-29h144zM288 162v98h-86v-49h29v20h29v-40h-87v69
h-29v-98h144zM288 12v98h-144v-98h144zM173 82h87v-41h-87v41zM288 -36v28h-144v-28h61l-61 -41v-28h144v28h-88l60 41h28z" />
    <glyph glyph-name="e_e" unicode="ee" horiz-adv-x="1024" 
d="M10 248c0 153 116 260 259 260c98 0 202 -58 202 -192h-313c0 -7 -1 -14 -1 -21c0 -111 87 -184 196 -184c83 0 145 50 159 137c0 153 116 260 259 260c98 0 202 -58 202 -192h-313c0 -7 -1 -14 -1 -21c0 -111 87 -184 196 -184c81 0 145 49 159 134h2
c-2 -134 -100 -253 -243 -253c-139 0 -249 99 -260 233c-11 -126 -106 -233 -242 -233c-147 0 -261 110 -261 256zM158 326h51c96 0 139 31 139 103c0 32 -21 65 -65 65c-73 0 -116 -79 -125 -168zM660 326h51c96 0 139 31 139 103c0 32 -21 65 -65 65
c-73 0 -116 -79 -125 -168z" />
    <glyph glyph-name="f_f" unicode="ff" horiz-adv-x="702" 
d="M0 464v10h213c-53 19 -213 78 -213 156c0 60 60 78 107 78c74 0 135 -30 201 -45c17 34 62 45 99 45c46 0 88 -11 148 -31c57 -19 126 -26 137 -25v-140c-151 101 -184 177 -226 177c-20 0 -26 -16 -26 -40c0 -90 91 -175 252 -175v-10h-103v-284c0 -151 45 -180 45 -180
h-201l6 292c3 122 -52 172 -139 172h-11v-284c0 -151 45 -180 45 -180h-201l6 292c3 122 -52 172 -139 172zM140 649c0 -90 91 -175 252 -175h121c-42 15 -134 62 -195 110c-84 65 -120 105 -152 105c-20 0 -26 -16 -26 -40z" />
    <glyph glyph-name="f_f_i" unicode="ffi" horiz-adv-x="944" 
d="M0 464v10h213c-53 19 -213 78 -213 156c0 60 60 78 107 78c74 0 135 -30 201 -45c17 34 62 45 99 45c42 0 89 -8 134 -31c71 -36 124 -42 241 -42v-135c-208 40 -257 190 -317 190c-17 0 -25 -15 -25 -41c0 -92 159 -206 263 -206c67 0 125 24 186 65v-333
c0 -100 24 -156 47 -175h-203l6 282c1 50 -10 100 -49 131c-23 19 -55 30 -101 30v-268c0 -100 24 -156 47 -175h-203l6 292c3 122 -52 172 -139 172h-11v-284c0 -151 45 -180 45 -180h-201l6 292c3 122 -52 172 -139 172zM140 649c0 -90 91 -175 252 -175h121
c-42 15 -134 62 -195 110c-84 65 -120 105 -152 105c-20 0 -26 -16 -26 -40z" />
    <glyph glyph-name="f_f_l" unicode="ffl" horiz-adv-x="947" 
d="M0 464v10h213c-53 19 -213 78 -213 156c0 60 60 78 107 78c74 0 135 -30 201 -45c17 34 62 45 99 45c69 -1 150 -24 211 -44c89 -29 173 -12 228 14l46 22v-525c0 -143 47 -175 47 -175h-203l6 417c2 110 -67 182 -111 213c-55 39 -137 58 -159 58c-24 0 -32 -15 -32 -39
c0 -90 91 -175 252 -175v-10h-103v-284c0 -151 45 -180 45 -180h-201l6 292c3 122 -52 172 -139 172h-11v-284c0 -151 45 -180 45 -180h-201l6 292c3 122 -52 172 -139 172zM140 649c0 -90 91 -175 252 -175h121c-42 15 -134 62 -195 110c-84 65 -120 105 -152 105
c-20 0 -26 -16 -26 -40z" />
    <glyph glyph-name="f_i" unicode="fi" horiz-adv-x="644" 
d="M0 464v10h213c-53 19 -213 78 -213 156c0 59 57 78 106 78c43 0 90 -8 135 -31c71 -36 124 -42 241 -42v-135c-208 40 -257 190 -317 190c-17 0 -25 -15 -25 -41c0 -92 159 -206 263 -206c67 0 125 24 186 65v-333c0 -100 24 -156 47 -175h-203l6 282
c1 101 -54 161 -132 161h-18v-268c0 -100 24 -156 47 -175h-203l6 292c2 122 -52 172 -139 172z" />
    <glyph glyph-name="f_l" unicode="fl" horiz-adv-x="647" 
d="M0 464v10h213c-53 19 -213 78 -213 156c0 60 60 78 107 78c69 -1 150 -24 211 -44c89 -29 173 -12 228 14l46 22v-525c0 -143 47 -175 47 -175h-203l6 417c2 110 -67 182 -111 213c-55 39 -137 58 -159 58c-21 0 -33 -12 -33 -36c0 -66 92 -178 253 -178v-10h-103v-284
c0 -151 45 -180 45 -180h-201l6 292c3 122 -52 172 -139 172z" />
    <glyph glyph-name="c_a" unicode="ca" horiz-adv-x="1061" 
d="M40 248c0 153 115 260 252 260c85 0 137 -16 204 -53v-157c-51 114 -129 196 -217 196c-77 0 -124 -81 -103 -196c17 -94 98 -187 207 -187c85 0 130 45 154 118c23 87 94 146 178 179c-21 -22 -43 -70 -43 -151c0 -89 45 -170 128 -169c15 0 31 3 47 9
c-47 135 -107 313 -139 350c-22 26 -54 30 -78 26l-1 3c34 20 72 32 113 32c60 0 127 -28 157 -106c35 -90 77 -208 116 -312c16 -43 37 -76 51 -90h-185l-28 80c-28 -59 -74 -88 -142 -88c-100 0 -181 66 -182 193c-31 -115 -109 -193 -237 -193c-138 0 -252 110 -252 256z
" />
    <glyph glyph-name="c_c" unicode="cc" horiz-adv-x="1024" 
d="M10 248c0 153 115 260 252 260c85 0 137 -16 204 -53v-157c-51 114 -129 196 -217 196c-77 0 -124 -81 -103 -196c17 -94 98 -187 207 -187c93 0 145 52 159 137c0 153 115 260 252 260c85 0 137 -16 204 -53v-157c-51 114 -129 196 -217 196c-77 0 -124 -81 -103 -196
c17 -94 98 -187 207 -187c93 0 145 54 159 139h2c-2 -134 -90 -258 -252 -258c-131 0 -241 100 -251 235c-11 -125 -98 -235 -251 -235c-138 0 -252 110 -252 256z" />
    <glyph glyph-name="c_c_a" unicode="cca" horiz-adv-x="1533" 
d="M1487 90c16 -43 37 -76 51 -90h-185l-28 80c-28 -59 -74 -88 -142 -88c-100 0 -181 66 -182 193c-31 -115 -109 -193 -237 -193c-131 0 -241 100 -251 235c-11 -125 -98 -235 -251 -235c-138 0 -252 110 -252 256c0 153 115 260 252 260c85 0 137 -16 204 -53v-157
c-51 114 -129 196 -217 196c-77 0 -124 -81 -103 -196c17 -94 98 -187 207 -187c93 0 145 54 159 139c1 152 116 258 252 258c85 0 137 -16 204 -53v-157c-51 114 -129 196 -217 196c-77 0 -124 -81 -103 -196c17 -94 98 -187 207 -187c85 0 130 45 154 118
c23 87 94 146 178 179c-21 -22 -43 -70 -43 -151c0 -89 45 -170 128 -169c15 0 31 3 47 9c-47 135 -107 313 -139 350c-22 26 -54 30 -78 26l-1 3c34 20 72 32 113 32c60 0 127 -28 157 -106c35 -90 77 -208 116 -312z" />
    <glyph glyph-name="c_c_e" unicode="cce" horiz-adv-x="1526" 
d="M1516 245h2c-2 -134 -100 -253 -243 -253c-139 0 -249 99 -260 233c-12 -124 -99 -233 -251 -233c-131 0 -241 100 -251 235c-11 -125 -98 -235 -251 -235c-138 0 -252 110 -252 256c0 153 115 260 252 260c85 0 137 -16 204 -53v-157c-51 114 -129 196 -217 196
c-77 0 -124 -81 -103 -196c17 -94 98 -187 207 -187c93 0 145 54 159 139c1 152 116 258 252 258c85 0 137 -16 204 -53v-157c-51 114 -129 196 -217 196c-77 0 -124 -81 -103 -196c17 -94 98 -187 207 -187c93 0 145 54 159 139c1 152 117 258 259 258
c98 0 202 -58 202 -192h-313c0 -7 -1 -14 -1 -21c-5 -111 87 -184 196 -184c81 0 145 49 159 134zM1287 494c-73 0 -116 -79 -125 -168h51c96 0 139 31 139 103c0 32 -21 65 -65 65z" />
    <glyph glyph-name="c_c_o" unicode="cco" horiz-adv-x="1540" 
d="M1273 508c142 0 257 -115 257 -258s-114 -258 -258 -258c-136 0 -246 102 -257 236c-11 -125 -98 -236 -251 -236c-131 0 -241 100 -251 235c-11 -125 -98 -235 -251 -235c-138 0 -252 110 -252 256c0 153 115 260 252 260c85 0 137 -16 204 -53v-157
c-51 114 -129 196 -217 196c-77 0 -124 -81 -103 -196c17 -94 98 -187 207 -187c93 0 145 54 159 139c1 152 116 258 252 258c85 0 137 -16 204 -53v-157c-51 114 -129 196 -217 196c-77 0 -124 -81 -103 -196c17 -94 98 -187 207 -187c93 0 145 54 159 139v1
c0 143 116 257 259 257zM1343 16c38 -2 59 37 59 98c0 132 -103 370 -204 370c-36 0 -55 -39 -55 -95c0 -129 101 -365 200 -373z" />
    <glyph glyph-name="c_e" unicode="ce" horiz-adv-x="1024" 
d="M10 248c0 153 115 260 252 260c85 0 137 -16 204 -53v-157c-51 114 -129 196 -217 196c-77 0 -124 -81 -103 -196c17 -94 98 -187 207 -187c93 0 145 54 159 139c1 152 117 258 259 258c98 0 202 -58 202 -192h-313c0 -7 -1 -14 -1 -21c-5 -111 87 -184 196 -184
c81 0 145 49 159 134h2c-2 -134 -100 -253 -243 -253c-139 0 -249 99 -260 233c-12 -124 -99 -233 -251 -233c-138 0 -252 110 -252 256zM660 326h51c96 0 139 31 139 103c0 32 -21 65 -65 65c-73 0 -116 -79 -125 -168z" />
    <glyph glyph-name="c_e_a" unicode="cea" horiz-adv-x="1534" 
d="M1488 90c16 -43 37 -76 51 -90h-185l-28 80c-28 -59 -74 -88 -142 -88c-105 0 -180 75 -181 173c-31 -98 -116 -173 -230 -173c-140 0 -250 100 -260 235c-11 -125 -98 -235 -251 -235c-138 0 -252 110 -252 256c0 153 115 260 252 260c85 0 137 -16 204 -53v-157
c-51 114 -129 196 -217 196c-77 0 -124 -81 -103 -196c17 -94 98 -187 207 -187c93 0 145 54 159 139c1 152 117 258 259 258c98 0 202 -58 202 -192h-313c0 -7 -1 -14 -1 -21c0 -111 87 -184 196 -184c74 0 134 41 155 114c20 85 86 147 178 183c-21 -22 -43 -70 -43 -151
c0 -89 45 -170 128 -169c15 0 31 3 47 9c-47 135 -107 313 -139 350c-22 26 -54 30 -78 26l-1 3c34 20 72 32 113 32c60 0 127 -28 157 -106c35 -90 77 -208 116 -312zM785 494c-73 0 -116 -79 -125 -168h51c96 0 139 31 139 103c0 32 -21 65 -65 65z" />
    <glyph glyph-name="c_o" unicode="co" horiz-adv-x="1038" 
d="M771 508c142 0 257 -115 257 -258s-114 -258 -258 -258c-136 0 -246 102 -257 236c-11 -125 -98 -236 -251 -236c-138 0 -252 110 -252 256c0 153 115 260 252 260c85 0 137 -16 204 -53v-157c-51 114 -129 196 -217 196c-77 0 -124 -81 -103 -196
c17 -94 98 -187 207 -187c93 0 145 54 159 139v1c0 143 116 257 259 257zM841 16c38 -2 59 37 59 98c0 132 -103 370 -204 370c-36 0 -55 -39 -55 -95c0 -129 101 -365 200 -373z" />
    <glyph glyph-name="e_a" unicode="ea" horiz-adv-x="1032" 
d="M10 248c0 153 116 260 259 260c98 0 202 -58 202 -192h-313c0 -7 -1 -14 -1 -21c0 -111 87 -184 196 -184c74 0 134 41 155 114c20 85 86 147 178 183c-21 -22 -43 -70 -43 -151c0 -89 45 -170 128 -169c15 0 31 3 47 9c-47 135 -107 313 -139 350c-22 26 -54 30 -78 26
l-1 3c34 20 72 32 113 32c60 0 127 -28 157 -106c35 -90 77 -208 116 -312c16 -43 37 -76 51 -90h-185l-28 80c-28 -59 -74 -88 -142 -88c-105 0 -180 75 -181 173c-31 -98 -116 -173 -230 -173c-147 0 -261 110 -261 256zM158 326h51c96 0 139 31 139 103
c0 32 -21 65 -65 65c-73 0 -116 -79 -125 -168z" />
    <glyph glyph-name="e_c" unicode="ec" horiz-adv-x="1024" 
d="M10 248c0 153 116 260 259 260c98 0 202 -58 202 -192h-313c0 -7 -1 -14 -1 -21c0 -111 87 -184 196 -184c83 0 145 50 159 137c0 153 115 260 252 260c85 0 137 -16 204 -53v-157c-51 114 -129 196 -217 196c-77 0 -124 -81 -103 -196c17 -94 98 -187 207 -187
c93 0 145 54 159 139h2c-2 -134 -90 -258 -252 -258c-131 0 -240 99 -251 233c-11 -126 -106 -233 -242 -233c-147 0 -261 110 -261 256zM158 326h51c96 0 139 31 139 103c0 32 -21 65 -65 65c-73 0 -116 -79 -125 -168z" />
    <glyph glyph-name="e_c_a" unicode="eca" horiz-adv-x="1533" 
d="M1487 90c16 -43 37 -76 51 -90h-185l-28 80c-28 -59 -74 -88 -142 -88c-100 0 -181 66 -182 193c-31 -115 -109 -193 -237 -193c-131 0 -240 99 -251 233c-11 -126 -106 -233 -242 -233c-147 0 -261 110 -261 256c0 153 116 260 259 260c98 0 202 -58 202 -192h-313
c-1 -7 -1 -14 -1 -21c0 -111 87 -184 196 -184c81 0 145 49 159 134v3c0 153 115 260 252 260c85 0 137 -16 204 -53v-157c-51 114 -129 196 -217 196c-77 0 -124 -81 -103 -196c17 -94 98 -187 207 -187c85 0 130 45 154 118c23 87 94 146 178 179
c-21 -22 -43 -70 -43 -151c0 -89 45 -170 128 -169c15 0 31 3 47 9c-47 135 -107 313 -139 350c-22 26 -54 30 -78 26l-1 3c34 20 72 32 113 32c60 0 127 -28 157 -106c35 -90 77 -208 116 -312zM283 494c-73 0 -116 -79 -125 -168h51c96 0 139 31 139 103
c0 32 -21 65 -65 65z" />
    <glyph glyph-name="e_c_e" unicode="ece" horiz-adv-x="1526" 
d="M1516 245h2c-2 -134 -100 -253 -243 -253c-139 0 -249 99 -260 233c-12 -124 -99 -233 -251 -233c-131 0 -240 99 -251 233c-11 -126 -106 -233 -242 -233c-147 0 -261 110 -261 256c0 153 116 260 259 260c98 0 202 -58 202 -192h-313c-1 -7 -1 -14 -1 -21
c0 -111 87 -184 196 -184c81 0 145 49 159 134v3c0 153 115 260 252 260c85 0 137 -16 204 -53v-157c-51 114 -129 196 -217 196c-77 0 -124 -81 -103 -196c17 -94 98 -187 207 -187c93 0 145 54 159 139c1 152 117 258 259 258c98 0 202 -58 202 -192h-313
c0 -7 -1 -14 -1 -21c-5 -111 87 -184 196 -184c81 0 145 49 159 134zM283 494c-73 0 -116 -79 -125 -168h51c96 0 139 31 139 103c0 32 -21 65 -65 65zM1287 494c-73 0 -116 -79 -125 -168h51c96 0 139 31 139 103c0 32 -21 65 -65 65z" />
    <glyph glyph-name="e_c_o" unicode="eco" horiz-adv-x="1540" 
d="M1273 508c142 0 257 -115 257 -258s-114 -258 -258 -258c-136 0 -246 102 -257 236c-11 -125 -98 -236 -251 -236c-131 0 -240 99 -251 233c-11 -126 -106 -233 -242 -233c-147 0 -261 110 -261 256c0 153 116 260 259 260c98 0 202 -58 202 -192h-313
c-1 -7 -1 -14 -1 -21c0 -111 87 -184 196 -184c81 0 145 49 159 134v3c0 153 115 260 252 260c85 0 137 -16 204 -53v-157c-51 114 -129 196 -217 196c-77 0 -124 -81 -103 -196c17 -94 98 -187 207 -187c93 0 145 54 159 139v1c0 143 116 257 259 257zM283 494
c-73 0 -116 -79 -125 -168h51c96 0 139 31 139 103c0 32 -21 65 -65 65zM1343 16c38 -2 59 37 59 98c0 132 -103 370 -204 370c-36 0 -55 -39 -55 -95c0 -129 101 -365 200 -373z" />
    <glyph glyph-name="e_e_c" unicode="eec" horiz-adv-x="1526" 
d="M1516 250h2c-2 -134 -90 -258 -252 -258c-131 0 -240 99 -251 233c-11 -126 -106 -233 -242 -233c-139 0 -249 99 -260 233c-11 -126 -106 -233 -242 -233c-147 0 -261 110 -261 256c0 153 116 260 259 260c98 0 202 -58 202 -192h-313c-1 -7 -1 -14 -1 -21
c0 -111 87 -184 196 -184c81 0 145 49 159 134v3c0 153 116 260 259 260c98 0 202 -58 202 -192h-313c0 -7 -1 -14 -1 -21c0 -111 87 -184 196 -184c83 0 145 50 159 137c0 153 115 260 252 260c85 0 137 -16 204 -53v-157c-51 114 -129 196 -217 196
c-77 0 -124 -81 -103 -196c17 -94 98 -187 207 -187c93 0 145 54 159 139zM283 494c-73 0 -116 -79 -125 -168h51c96 0 139 31 139 103c0 32 -21 65 -65 65zM785 494c-73 0 -116 -79 -125 -168h51c96 0 139 31 139 103c0 32 -21 65 -65 65z" />
    <glyph glyph-name="e_o" unicode="eo" horiz-adv-x="1038" 
d="M771 508c142 0 257 -115 257 -258s-114 -258 -258 -258c-135 0 -245 101 -257 234c-10 -126 -106 -234 -242 -234c-147 0 -261 110 -261 256c0 153 116 260 259 260c98 0 202 -58 202 -192h-313c-1 -7 -1 -14 -1 -21c0 -111 87 -184 196 -184c81 0 145 49 159 134v6
c0 143 116 257 259 257zM283 494c-73 0 -116 -79 -125 -168h51c96 0 139 31 139 103c0 32 -21 65 -65 65zM841 16c38 -2 59 37 59 98c0 132 -103 370 -204 370c-36 0 -55 -39 -55 -95c0 -129 101 -365 200 -373z" />
    <glyph glyph-name=".notdef" horiz-adv-x="433" 
d="M80 700h275v-865h-275v865zM288 614v28h-143v-28h57v-33h-58v-28h144v28h-57v33h57zM231 470v60h-87v-89h144v29h-57zM173 501h29v-31h-29v31zM288 389v28h-144v-28h58v-32h-58v-29h87v61h57zM288 279v86h-28v-57h-116v-29h144zM288 162v98h-86v-49h29v20h29v-40h-87v69
h-29v-98h144zM288 12v98h-144v-98h144zM173 82h87v-41h-87v41zM288 -36v28h-144v-28h61l-61 -41v-28h144v28h-88l60 41h28z" />
    <glyph glyph-name="space" unicode=" " horiz-adv-x="220" 
 />
    <glyph glyph-name="exclam" unicode="!" horiz-adv-x="260" 
d="M132 200h-6l-18 214c-18 213 -45 286 -45 286h132s-27 -73 -45 -286zM131 -17c-51 0 -91 39 -91 89c0 49 40 91 91 91c52 0 89 -42 89 -91c0 -50 -37 -89 -89 -89z" />
    <glyph glyph-name="quotedbl" unicode="&#x22;" horiz-adv-x="280" 
d="M25 700h104s-24 -125 -32 -178l-15 -108h-10l-14 108c-7 53 -33 178 -33 178zM151 700h104s-25 -125 -32 -178l-15 -108h-10l-14 108c-7 53 -33 178 -33 178z" />
    <glyph glyph-name="numbersign" unicode="#" horiz-adv-x="722" 
d="M25 194l11 54c35 0 68 -9 143 -16c21 64 39 119 53 166l21 73c-41 -4 -88 -8 -154 -9l11 54c36 0 70 -10 150 -16c28 106 37 168 45 230h60c-28 -90 -54 -167 -75 -233c39 -2 87 -4 148 -4c28 0 54 1 80 3c28 108 38 172 46 234h60c-28 -90 -54 -167 -76 -232
c43 3 89 6 149 7l-11 -53c-24 0 -68 11 -146 19c-9 -27 -18 -53 -25 -77c-20 -67 -36 -120 -49 -165c45 3 94 7 157 8l-11 -53c-25 0 -71 12 -153 20c-28 -102 -38 -157 -49 -242h-61c29 93 56 174 80 245c-35 2 -76 4 -123 4c-39 0 -71 -3 -106 -6
c-28 -103 -38 -158 -49 -243h-61c28 92 55 171 78 240c-38 -3 -82 -7 -143 -8zM207 230c41 -3 91 -5 157 -5c25 0 48 1 72 2c22 66 41 122 55 171l21 76c-37 3 -81 5 -132 5c-36 0 -66 -2 -98 -5l-26 -80c-20 -67 -36 -120 -49 -164z" />
    <glyph glyph-name="dollar" unicode="$" horiz-adv-x="550" 
d="M541 195c0 -121 -98 -203 -233 -203h-4c4 -47 6 -80 6 -88h-55c0 8 3 41 6 89c-110 4 -192 22 -238 40l-17 272h2c76 -125 168 -227 257 -270c4 66 10 150 12 233l-45 24c-100 53 -201 110 -201 234c0 120 103 178 229 182c-3 38 -5 63 -5 70h55c0 -7 -2 -33 -4 -71
c83 -3 147 -19 185 -37l22 -215h-2c-66 98 -139 175 -208 211c-4 -57 -8 -128 -11 -201l18 -9c167 -82 231 -155 231 -261zM122 608c3 -47 39 -76 153 -134c-3 77 -9 152 -13 208c-13 4 -26 6 -39 6c-49 0 -105 -20 -101 -80zM291 261c2 -87 7 -174 12 -241
c13 -4 26 -6 39 -7c57 -3 101 32 101 90c0 65 -67 111 -152 158z" />
    <glyph glyph-name="percent" unicode="%" horiz-adv-x="708" 
d="M35 425c0 93 86 171 164 171c88 0 155 -78 155 -171c0 -95 -86 -171 -164 -171c-88 0 -155 79 -155 171zM133 0l-54 24c66 69 200 196 265 269c138 157 174 201 230 294l54 -24c-66 -69 -200 -196 -265 -269c-138 -157 -174 -201 -230 -294zM116 502
c0 -78 57 -228 119 -228c21 0 38 16 38 74c0 78 -57 228 -119 228c-21 0 -38 -16 -38 -74zM354 163c0 95 86 171 164 171c88 0 155 -79 155 -171c0 -95 -86 -171 -164 -171c-88 0 -155 79 -155 171zM435 240c0 -78 57 -228 119 -228c21 0 38 16 38 74c0 78 -57 228 -119 228
c-21 0 -38 -16 -38 -74z" />
    <glyph glyph-name="ampersand" unicode="&#x26;" horiz-adv-x="647" 
d="M8 223c0 137 99 237 217 237c19 0 31 -2 45 -4c-155 76 -195 109 -195 174c0 47 43 78 89 78c68 0 146 -16 244 -20v-149c-81 71 -104 146 -160 153c-17 2 -31 -12 -31 -40c2 -90 85 -193 156 -245c133 -100 249 -264 274 -407h-154c-3 41 2 219 -64 331
c17 -35 26 -74 26 -111c0 -114 -78 -228 -221 -228c-123 0 -226 100 -226 231zM135 318c0 -114 81 -186 173 -186c75 0 126 66 120 141c-7 94 -91 171 -184 175c-61 1 -109 -44 -109 -130z" />
    <glyph glyph-name="quotesingle" unicode="'" horiz-adv-x="154" 
d="M25 700h104s-24 -125 -32 -178l-15 -108h-10l-14 108c-7 53 -33 178 -33 178z" />
    <glyph glyph-name="parenleft" unicode="(" horiz-adv-x="190" 
d="M12 340c0 273 122 422 176 454l2 -7c-62 -50 -109 -204 -109 -447c0 -244 47 -396 109 -447l-2 -8c-54 32 -176 182 -176 455z" />
    <glyph glyph-name="parenright" unicode=")" horiz-adv-x="190" 
d="M178 340c0 -273 -122 -423 -176 -455l-2 8c62 51 109 203 109 447c0 243 -47 397 -109 447l2 7c54 -32 176 -181 176 -454z" />
    <glyph glyph-name="asterisk" unicode="*" horiz-adv-x="336" 
d="M69 466l-39 74s52 2 101 19l20 7l-19 7c-49 19 -102 18 -102 18l39 74s30 -43 72 -73l19 -13l-3 23c-7 51 -31 98 -31 98h84s-24 -47 -31 -98l-3 -23l19 13c42 30 72 73 72 73l39 -74s-53 1 -102 -18l-19 -7l20 -7c49 -17 101 -19 101 -19l-39 -74s-30 43 -72 73l-19 14
l3 -23c7 -51 31 -98 31 -98h-84s24 47 31 98l3 23l-19 -14c-42 -30 -72 -73 -72 -73z" />
    <glyph glyph-name="plus" unicode="+" horiz-adv-x="532" 
d="M50 295v34c30 -1 44 -9 208 -9c0 164 -8 178 -9 208h34c-1 -30 -9 -44 -9 -208c164 0 178 8 208 9v-34c-30 1 -44 9 -208 9c0 -164 8 -178 9 -208h-34c1 30 9 44 9 208c-164 0 -178 -8 -208 -9z" />
    <glyph glyph-name="comma" unicode="," horiz-adv-x="230" 
d="M116 163c52 0 89 -39 89 -109c0 -67 -42 -150 -232 -183v4c38 6 151 38 151 76c0 21 -18 32 -38 40c-29 11 -61 31 -61 81c0 49 40 91 91 91z" />
    <glyph glyph-name="hyphen" unicode="-" horiz-adv-x="484" 
d="M242 292c125 0 169 12 192 12v-49c-23 0 -67 13 -192 13s-169 -13 -192 -13v49c23 0 67 -12 192 -12z" />
    <glyph glyph-name="period" unicode="." horiz-adv-x="230" 
d="M116 -17c-51 0 -91 39 -91 89c0 49 40 91 91 91c52 0 89 -42 89 -91c0 -50 -37 -89 -89 -89z" />
    <glyph glyph-name="slash" unicode="/" horiz-adv-x="425" 
d="M-26 -290l-54 21l235 502c99 214 136 349 196 520l54 -21c-78 -168 -157 -335 -235 -503c-99 -214 -136 -348 -196 -519z" />
    <glyph glyph-name="zero" unicode="0" horiz-adv-x="646" 
d="M12 350c1 202 159 358 321 358c183 0 301 -165 301 -359c-1 -201 -159 -357 -321 -357c-183 0 -301 165 -301 358zM145 528c0 -203 103 -493 258 -493c72 0 98 54 98 137c0 203 -103 493 -258 493c-72 0 -98 -54 -98 -137z" />
    <glyph glyph-name="one" unicode="1" horiz-adv-x="334" 
d="M5 505l-5 12c85 33 212 114 278 191v-501c0 -105 20 -173 46 -207h-252c26 34 46 102 46 207v301c0 20 -4 28 -17 28c-8 0 -22 -4 -32 -8z" />
    <glyph glyph-name="two" unicode="2" horiz-adv-x="502" 
d="M487 1l-482 -1l17 48c27 76 83 187 129 261c74 119 163 235 171 300c7 58 -19 85 -60 84c-84 -2 -145 -112 -198 -238h-2v197c92 35 135 56 241 56c118 0 184 -43 184 -124c0 -169 -269 -265 -416 -454l215 1c139 1 171 31 201 51v-181z" />
    <glyph glyph-name="three" unicode="3" horiz-adv-x="465" 
d="M20 520v180h395l-202 -204c149 -10 306 -122 216 -312c-85 -180 -383 -184 -384 -184l-5 5c34 4 209 36 253 164c47 138 -61 202 -214 207l187 194h-81c-86 0 -131 -25 -165 -50z" />
    <glyph glyph-name="four" unicode="4" horiz-adv-x="533" 
d="M528 371v-164h-183v-28c0 -136 45 -179 45 -179h-229s44 43 44 171v36h-200v10c101 147 185 393 196 483h213c-44 -36 -150 -161 -393 -481h184v112c42 21 117 89 140 131v-231c84 29 155 104 183 140z" />
    <glyph glyph-name="five" unicode="5" horiz-adv-x="444" 
d="M20 0l-5 5c98 12 257 75 258 211c0 90 -94 129 -230 133l44 277c3 20 2 57 -7 74h303v-180c-34 25 -79 50 -165 50h-128l-10 -69c231 -14 354 -110 354 -236c0 -218 -272 -268 -414 -265z" />
    <glyph glyph-name="six" unicode="6" horiz-adv-x="549" 
d="M12 294c0 223 214 414 451 414l5 -6c-150 -6 -257 -118 -289 -248c22 30 49 41 84 46c126 18 270 -70 276 -246c5 -136 -79 -255 -224 -262c-158 -8 -303 115 -303 302zM169 351c0 -148 90 -366 173 -345c40 10 44 81 44 161c0 141 -62 321 -150 310
c-20 -2 -36 -15 -47 -34c-13 -23 -20 -55 -20 -92z" />
    <glyph glyph-name="seven" unicode="7" horiz-adv-x="459" 
d="M22 519v181h435l-41 -68c-81 -134 -128 -238 -162 -355c-35 -119 -36 -211 -33 -277h-199c54 151 220 376 305 511l37 59h-134c-139 0 -178 -31 -208 -51z" />
    <glyph glyph-name="eight" unicode="8" horiz-adv-x="539" 
d="M8 194c0 110 76 169 138 191c-47 46 -76 97 -76 165c0 102 92 158 199 158c86 0 193 -44 193 -146c0 -59 -56 -103 -107 -132c103 -56 176 -122 176 -229c0 -93 -104 -209 -254 -209c-136 0 -269 62 -269 202zM143 617c0 -63 79 -116 188 -175c29 35 38 76 38 106
c0 74 -47 146 -133 146c-38 0 -93 -17 -93 -77zM135 228c0 -111 80 -218 175 -218c75 0 136 41 136 105c0 90 -108 129 -206 196c-26 18 -51 36 -72 54c-23 -28 -33 -79 -33 -137z" />
    <glyph glyph-name="nine" unicode="9" horiz-adv-x="549" 
d="M537 406c0 -223 -214 -414 -451 -414l-5 6c150 6 257 118 289 248c-22 -30 -49 -41 -84 -46c-126 -18 -270 70 -276 246c-5 136 79 255 224 262c158 8 303 -115 303 -302zM380 349c0 148 -90 366 -173 345c-40 -10 -44 -81 -44 -161c0 -141 62 -321 150 -310
c22 3 39 18 51 41c10 22 16 52 16 85z" />
    <glyph glyph-name="colon" unicode=":" horiz-adv-x="250" 
d="M35 365c0 49 40 91 91 91c52 0 89 -42 89 -91c0 -50 -37 -89 -89 -89c-51 0 -91 39 -91 89zM35 72c0 49 40 91 91 91c52 0 89 -42 89 -91c0 -50 -37 -89 -89 -89c-51 0 -91 39 -91 89z" />
    <glyph glyph-name="semicolon" unicode=";" horiz-adv-x="255" 
d="M35 365c0 49 40 91 91 91c52 0 89 -42 89 -91c0 -50 -37 -89 -89 -89c-51 0 -91 39 -91 89zM-12 -129v4c38 6 151 38 151 76c0 21 -18 32 -38 40c-29 11 -61 31 -61 81c0 49 40 91 91 91c52 0 89 -39 89 -109c0 -67 -42 -150 -232 -183z" />
    <glyph glyph-name="less" unicode="&#x3c;" horiz-adv-x="460" 
d="M396 449l14 -31c-28 -12 -44 -11 -200 -83c-73 -34 -114 -55 -139 -69c25 -14 66 -35 139 -69c156 -73 172 -71 200 -83l-14 -31c-27 14 -36 27 -192 100c-84 40 -128 64 -154 73v20c26 10 70 34 154 73c156 72 165 86 192 100z" />
    <glyph glyph-name="equal" unicode="=" horiz-adv-x="532" 
d="M266 387c172 0 186 8 216 9v-34c-30 1 -44 9 -216 9s-186 -8 -216 -9v34c30 -1 44 -9 216 -9zM266 252c172 0 186 8 216 9v-34c-30 1 -44 9 -216 9s-186 -8 -216 -9v34c30 -1 44 -9 216 -9z" />
    <glyph glyph-name="greater" unicode="&#x3e;" horiz-adv-x="460" 
d="M50 418l14 31c27 -14 36 -28 192 -100c84 -39 128 -63 154 -73v-20c-26 -9 -70 -33 -154 -73c-156 -73 -165 -86 -192 -100l-14 31c28 12 44 10 200 83c73 34 114 55 139 69c-25 14 -66 35 -139 69c-156 72 -172 71 -200 83z" />
    <glyph glyph-name="question" unicode="?" 
d="M33 458h-3v207c42 18 137 43 223 43c141 0 240 -32 240 -119c0 -152 -366 -211 -366 -340c0 -24 9 -44 20 -59l-11 -2c-12 17 -20 36 -20 62c1 120 227 182 227 354c0 61 -26 92 -73 92c-93 0 -209 -117 -237 -238zM77 72c0 49 40 91 91 91c52 0 89 -42 89 -91
c0 -50 -37 -89 -89 -89c-51 0 -91 39 -91 89z" />
    <glyph glyph-name="at" unicode="@" horiz-adv-x="644" 
d="M322 566c172 0 311 -139 311 -311c0 -42 -7 -81 -23 -118c-8 -17 -23 -48 -50 -55c-10 -3 -23 -1 -31 0c-32 6 -60 6 -128 6l-21 60c-21 -45 -55 -67 -104 -67c-79 0 -134 58 -134 134c0 86 55 149 136 181c-15 -16 -31 -52 -31 -115c0 -66 32 -128 93 -127
c12 0 24 2 35 6c-35 103 -79 238 -102 266c-16 20 -40 22 -58 20l-1 1c25 16 54 25 84 25c44 0 93 -21 116 -80c26 -68 57 -157 85 -237c17 -47 30 -69 59 -64c23 7 37 33 44 50c15 36 22 74 22 114c0 166 -136 302 -302 302s-302 -136 -302 -302s136 -302 302 -302
c44 0 88 10 127 28l4 -8c-41 -19 -86 -29 -131 -29c-171 0 -311 140 -311 311c0 172 140 311 311 311z" />
    <glyph glyph-name="A" unicode="A" horiz-adv-x="619" 
d="M616 0h-234c0 58 2 85 -47 218l-46 124h-111c-5 -51 -8 -112 -8 -190c0 -60 11 -129 15 -152h-182c25 48 54 111 71 170c53 183 108 307 141 373v157h104l162 -414c60 -153 102 -236 135 -286zM179 356h105l-63 171c-20 -48 -34 -98 -42 -171z" />
    <glyph glyph-name="B" unicode="B" horiz-adv-x="614" 
d="M325 0h-315c26 34 46 102 46 207v286c0 105 -20 173 -46 207h298c123 0 218 -26 218 -117c0 -64 -52 -95 -113 -130c93 -17 196 -75 196 -207c0 -133 -126 -246 -284 -246zM95 75c35 110 122 228 167 282c69 84 101 153 101 222c0 65 -19 108 -85 108
c-37 0 -62 -24 -75 -92c-33 -174 -72 -347 -108 -520zM214 189c-4 -50 4 -95 23 -128c18 -30 44 -48 76 -48c94 0 132 141 132 252c0 78 -17 147 -47 179c-40 -21 -80 -46 -114 -80c-41 -48 -64 -102 -70 -175z" />
    <glyph glyph-name="C" unicode="C" horiz-adv-x="728" 
d="M10 350c0 212 175 358 398 358c104 0 200 -32 273 -77v-257h-2c-45 145 -170 313 -323 313c-126 0 -192 -102 -192 -237c0 -208 153 -351 341 -351c56 0 165 22 214 135l4 -2c-40 -109 -140 -240 -328 -240c-214 0 -385 145 -385 358z" />
    <glyph glyph-name="D" unicode="D" horiz-adv-x="670" 
d="M264 0h-254c26 34 46 102 46 207v286c0 105 -20 173 -46 207h254c235 0 396 -141 396 -349c0 -210 -161 -351 -396 -351zM216 686v-672h31c135 0 248 167 248 337c0 166 -113 335 -248 335h-31z" />
    <glyph glyph-name="E" unicode="E" horiz-adv-x="526" 
d="M517 0h-507c26 34 46 102 46 207v286c0 105 -20 173 -46 207h474l7 -166h-2c-38 78 -98 154 -188 154c-53 0 -88 -38 -88 -94c0 -57 30 -113 144 -113h85v-151h-1c-80 86 -122 135 -174 155c-15 6 -38 9 -50 9v-480c108 12 250 93 304 169z" />
    <glyph glyph-name="F" unicode="F" horiz-adv-x="499" 
d="M263 0h-253c26 34 46 102 46 207v286c0 105 -20 173 -46 207h474l7 -165h-2c-38 78 -98 153 -188 153c-53 0 -88 -38 -88 -94c0 -57 30 -113 144 -113h85v-151h-1c-80 86 -122 135 -174 155c-15 6 -38 9 -50 9v-287c0 -105 20 -173 46 -207z" />
    <glyph glyph-name="G" unicode="G" horiz-adv-x="778" 
d="M10 350c0 212 175 358 398 358c104 0 200 -32 273 -77v-217h-2c-66 144 -183 273 -323 273c-126 0 -192 -102 -192 -237c0 -208 153 -351 341 -351c68 0 172 52 157 153c-6 52 -49 106 -76 124h160v-376h-12s-29 131 -58 224c0 -104 -103 -232 -281 -232
c-214 0 -385 145 -385 358z" />
    <glyph glyph-name="H" unicode="H" horiz-adv-x="658" 
d="M602 493v-286c0 -105 20 -173 46 -207h-252c26 34 46 102 46 207v195h-226v-195c0 -105 20 -173 46 -207h-252c26 34 46 102 46 207v286c0 105 -20 173 -46 207h252c-26 -34 -46 -102 -46 -207v-77h226v77c0 105 -20 173 -46 207h252c-26 -34 -46 -102 -46 -207z" />
    <glyph glyph-name="I" unicode="I" horiz-adv-x="272" 
d="M262 0h-252c26 34 46 102 46 207v286c0 105 -20 173 -46 207h252c-26 -34 -46 -102 -46 -207v-286c0 -105 20 -173 46 -207z" />
    <glyph glyph-name="J" unicode="J" horiz-adv-x="278" 
d="M-17 -96l-3 3s84 41 84 254v332c0 105 -20 173 -46 207h252c-26 -34 -46 -102 -46 -207v-266c0 -288 -241 -323 -241 -323z" />
    <glyph glyph-name="K" unicode="K" horiz-adv-x="652" 
d="M273 0h-263c26 34 46 102 46 207v286c0 105 -20 173 -46 207h244c-22 -25 -41 -60 -53 -116c-38 -175 -70 -336 -106 -509c29 100 75 221 152 331c97 137 159 228 164 294h214c-46 -20 -151 -93 -240 -173l131 -282c38 -82 89 -177 131 -245h-237c0 43 -32 152 -66 224
l-83 175c-29 -43 -45 -91 -45 -164c0 -88 27 -180 57 -235z" />
    <glyph glyph-name="L" unicode="L" horiz-adv-x="525" 
d="M516 0h-506c26 34 46 102 46 207v286c0 105 -20 173 -46 207h252c-26 -34 -46 -102 -46 -207v-479c108 13 250 93 304 169z" />
    <glyph glyph-name="M" unicode="M" horiz-adv-x="800" 
d="M172 0h-165c28 65 52 189 61 333l14 230l-54 137h177l208 -531l191 531h178c-17 -17 -44 -47 -58 -80l22 -413c6 -109 25 -163 47 -207h-243c29 44 40 123 36 207l-15 281c-39 -58 -77 -127 -103 -202l-55 -156v-130h-111l-208 531l-10 -163c-13 -207 57 -328 88 -368z
" />
    <glyph glyph-name="N" unicode="N" horiz-adv-x="602" 
d="M171 0h-166c26 46 61 160 61 333v271l-61 96h195l309 -473v140c0 173 -41 287 -71 333h156c-30 -46 -71 -160 -71 -333v-367h-76c-45 100 -224 363 -367 582v-249c0 -173 52 -287 91 -333z" />
    <glyph glyph-name="O" unicode="O" horiz-adv-x="736" 
d="M726 350c0 -197 -160 -358 -358 -358s-358 159 -358 358c0 197 159 358 357 358s359 -160 359 -358zM587 201c7 188 -142 469 -307 475c-87 3 -128 -82 -131 -178c-7 -189 141 -469 307 -474c86 -3 128 81 131 177z" />
    <glyph glyph-name="P" unicode="P" horiz-adv-x="531" 
d="M270 0h-260c26 34 46 102 46 207v286c0 105 -20 173 -46 207h298c123 0 218 -26 218 -117c0 -114 -163 -126 -251 -231c-73 -88 -61 -249 -5 -352zM95 75c35 110 122 228 167 282c69 84 101 153 101 222c0 65 -19 108 -85 108c-37 0 -62 -24 -75 -92
c-33 -174 -72 -347 -108 -520z" />
    <glyph glyph-name="Q" unicode="Q" horiz-adv-x="746" 
d="M10 349c0 199 160 359 359 359c198 0 357 -161 357 -353c0 -112 -55 -224 -164 -293h-6c29 30 37 70 37 126c0 197 -146 488 -319 488c-82 0 -124 -88 -124 -189c0 -158 101 -387 245 -448c33 -14 72 -18 112 -18c49 0 83 12 135 12c70 0 143 -16 173 -60l-129 -96
c-45 78 -84 131 -157 131c-38 0 -90 -16 -158 -16c-198 0 -361 160 -361 357z" />
    <glyph glyph-name="R" unicode="R" horiz-adv-x="607" 
d="M270 0h-260c26 34 46 102 46 207v286c0 105 -20 173 -46 207h298c123 0 218 -26 218 -117c0 -75 -71 -106 -144 -148l89 -190c38 -81 88 -178 131 -245h-237c0 42 -34 151 -66 223l-46 96c-48 -91 -33 -228 17 -319zM95 75c35 110 122 228 167 282c69 84 101 153 101 222
c0 65 -19 108 -85 108c-37 0 -62 -24 -75 -92c-33 -174 -72 -347 -108 -520z" />
    <glyph glyph-name="S" unicode="S" horiz-adv-x="550" 
d="M23 33l-17 272h2c98 -162 224 -286 334 -292c57 -3 101 32 101 90c0 80 -101 131 -211 189c-100 53 -201 110 -201 234c0 125 111 182 244 182c99 0 173 -18 216 -38l22 -215h-2c-93 137 -199 233 -288 233c-49 0 -105 -20 -101 -80c3 -51 46 -82 188 -152
c167 -82 231 -155 231 -261c0 -121 -98 -203 -233 -203c-134 0 -233 20 -285 41z" />
    <glyph glyph-name="T" unicode="T" horiz-adv-x="566" 
d="M5 530h-2l19 170h522l19 -170h-2c-52 87 -109 148 -146 154c-35 6 -52 -9 -52 -68v-409c0 -105 20 -173 46 -207h-252c26 34 46 102 46 207v409c0 58 -16 74 -52 68c-45 -8 -105 -85 -146 -154z" />
    <glyph glyph-name="U" unicode="U" horiz-adv-x="661" 
d="M8 700h252c-26 -34 -46 -102 -46 -207v-239c0 -172 44 -235 153 -235c137 0 188 125 188 278v148c0 156 -60 229 -101 255h199c-34 -26 -84 -99 -84 -255v-148c0 -138 -31 -305 -231 -305c-123 0 -284 42 -284 305v196c0 105 -20 173 -46 207z" />
    <glyph glyph-name="V" unicode="V" horiz-adv-x="643" 
d="M262 0l-259 700h199c-7 -29 1 -65 16 -105l158 -426c62 124 136 311 118 531h146c-29 -42 -60 -118 -87 -187c-59 -150 -107 -250 -177 -377v-136h-114z" />
    <glyph glyph-name="W" unicode="W" horiz-adv-x="980" 
d="M262 0l-259 700h199c-7 -29 1 -65 16 -105l158 -426c28 58 60 128 83 209l-119 322h199c-7 -29 1 -65 16 -105l158 -426c62 124 136 311 118 531h146c-29 -42 -60 -118 -87 -187c-59 -150 -107 -250 -177 -377v-136h-114l-123 332c-30 -66 -62 -127 -100 -196v-136h-114z
" />
    <glyph glyph-name="X" unicode="X" horiz-adv-x="665" 
d="M152 0h-149c23 11 61 38 94 94l145 246l-172 288c-24 41 -53 63 -67 72h265c-8 -10 -14 -27 -14 -41c0 -10 3 -22 10 -34l150 -251c35 73 94 205 101 253c2 13 3 25 3 35c0 15 -2 28 -5 38h149c-19 -9 -59 -35 -94 -94l-146 -246l172 -287c21 -35 48 -60 68 -73h-262
c7 9 12 22 12 37c0 10 -3 23 -11 37l-150 252c-36 -74 -94 -206 -101 -253c-2 -13 -3 -25 -3 -35c0 -17 2 -28 5 -38z" />
    <glyph glyph-name="Y" unicode="Y" horiz-adv-x="651" 
d="M3 700h226c-2 -5 -4 -15 -4 -27c0 -15 3 -37 16 -64l164 -344c21 46 65 151 92 230c15 45 26 100 26 144c0 25 -2 47 -9 61h134c-20 -23 -59 -62 -117 -191l-118 -261v-41c0 -105 17 -173 43 -207h-240c25 33 42 99 43 200l-201 421c-15 32 -32 62 -55 79z" />
    <glyph glyph-name="Z" unicode="Z" horiz-adv-x="643" 
d="M618 214h2l-52 -214h-563c23 26 46 60 77 111l265 442c24 41 35 62 35 88c0 27 -22 45 -59 45c-87 0 -229 -120 -284 -190h-2l49 204h552c-18 -12 -56 -76 -77 -111l-277 -462c-20 -34 -29 -58 -29 -79c0 -23 18 -34 49 -34h2c105 0 233 97 312 200z" />
    <glyph glyph-name="bracketleft" unicode="[" horiz-adv-x="178" 
d="M163 749v-44c-12 2 -35 15 -93 13c2 -44 17 -412 17 -488s-15 -445 -17 -489c58 -2 81 11 93 13v-44c-13 2 -54 4 -93 4h-10c0 21 15 272 17 516c-2 244 -17 494 -17 515h10c39 0 80 2 93 4z" />
    <glyph glyph-name="backslash" unicode="\" horiz-adv-x="425" 
d="M20 732l54 21c60 -171 97 -306 196 -520l235 -502l-54 -21c-60 171 -97 305 -196 519c-78 168 -157 335 -235 503z" />
    <glyph glyph-name="bracketright" unicode="]" horiz-adv-x="178" 
d="M15 705v44c13 -2 54 -4 93 -4h10c0 -21 -15 -271 -17 -515c2 -244 17 -495 17 -516h-10c-39 0 -80 -2 -93 -4v44c12 -2 35 -15 93 -13c-2 44 -17 413 -17 489s15 444 17 488c-58 2 -81 -11 -93 -13z" />
    <glyph glyph-name="asciicircum" unicode="^" horiz-adv-x="340" 
d="M0 540l-3 6c75 105 126 183 178 263c53 -80 107 -157 178 -263l-3 -6c-50 52 -127 119 -175 149c-48 -30 -123 -97 -175 -149z" />
    <glyph glyph-name="underscore" unicode="_" horiz-adv-x="737" 
d="M368 -55c307 0 317 11 359 11v-49c-42 0 -52 12 -359 12c-308 0 -315 -12 -358 -12v49c43 0 50 -11 358 -11z" />
    <glyph glyph-name="grave" unicode="`" horiz-adv-x="352" 
d="M218 603c-62 38 -169 91 -198 104l56 98c35 -40 94 -103 135 -146c30 -32 76 -77 121 -121l-4 -6c-61 43 -81 53 -110 71z" />
    <glyph glyph-name="a" unicode="a" horiz-adv-x="539" 
d="M8 168c0 115 75 197 185 240c-21 -22 -43 -70 -43 -151c0 -89 45 -170 128 -169c15 0 31 3 47 9c-47 135 -107 313 -139 350c-22 26 -54 30 -78 26l-1 3c34 20 72 32 113 32c60 0 127 -28 157 -106c35 -90 77 -208 116 -312c16 -43 37 -76 51 -90h-185l-28 80
c-28 -59 -74 -88 -142 -88c-106 0 -181 76 -181 176z" />
    <glyph glyph-name="b" unicode="b" horiz-adv-x="573" 
d="M8 600v4l196 96v-269c7 14 54 77 153 77c100 0 204 -67 204 -246c0 -194 -123 -270 -208 -270c-83 0 -134 51 -149 63l-156 -55l6 450c1 100 -30 139 -46 150zM204 405v-326c17 -18 46 -48 96 -48c66 0 103 75 102 216c-2 155 -43 225 -107 225c-43 0 -83 -46 -91 -67z
" />
    <glyph glyph-name="c" unicode="c" horiz-adv-x="522" 
d="M10 248c0 153 115 260 252 260c85 0 137 -16 204 -53v-157c-51 114 -129 196 -217 196c-77 0 -124 -81 -103 -196c17 -94 98 -187 207 -187c93 0 145 54 159 139h2c-2 -134 -90 -258 -252 -258c-138 0 -252 110 -252 256z" />
    <glyph glyph-name="d" unicode="d" horiz-adv-x="571" 
d="M10 238c0 194 123 270 208 270c81 0 132 -49 148 -62v4c0 100 -30 139 -46 150v4l196 96v-525c0 -100 24 -156 47 -175h-203l1 59c-17 -22 -63 -67 -147 -67c-100 0 -204 67 -204 246zM169 253c2 -155 43 -225 107 -225c36 0 71 33 85 56l5 338c-17 19 -46 47 -95 47
c-66 0 -103 -75 -102 -216z" />
    <glyph glyph-name="e" unicode="e" horiz-adv-x="522" 
d="M512 245h2c-2 -134 -100 -253 -243 -253c-147 0 -261 110 -261 256c0 153 116 260 259 260c98 0 202 -58 202 -192h-313c-1 -7 -1 -14 -1 -21c0 -111 87 -184 196 -184c81 0 145 49 159 134zM283 494c-73 0 -116 -79 -125 -168h51c96 0 139 31 139 103
c0 32 -21 65 -65 65z" />
    <glyph glyph-name="f" unicode="f" horiz-adv-x="402" 
d="M0 466v8h213c-53 19 -213 78 -213 156c0 60 60 78 107 78c46 0 88 -11 148 -31c57 -19 126 -26 137 -25v-140c-151 101 -184 177 -226 177c-20 0 -26 -16 -26 -40c0 -90 91 -175 252 -175v-9h-103v-290c0 -100 24 -156 47 -175h-203l6 294c3 122 -52 172 -139 172z" />
    <glyph glyph-name="g" unicode="g" horiz-adv-x="542" 
d="M-11 -181c0 105 127 158 268 229c74 36 102 88 101 170c-1 123 -86 291 -164 271c-38 -10 -46 -53 -46 -93c0 -109 54 -257 154 -298c-28 -10 -58 -15 -86 -15c-106 0 -187 79 -193 190c-8 148 109 240 250 235c54 -2 102 -18 140 -47l27 117h132v-4
c-54 -40 -114 -81 -152 -119c42 -33 67 -90 65 -148c-4 -98 -65 -163 -182 -247c-110 -78 -148 -180 -153 -243c-2 -30 7 -65 37 -58c64 15 69 166 324 298v-190c-192 0 -280 -141 -415 -141c-57 0 -107 36 -107 93z" />
    <glyph glyph-name="h" unicode="h" horiz-adv-x="595" 
d="M8 600v4l196 96v-265c24 34 66 73 133 73c86 0 119 -47 147 -168l42 -184c22 -97 49 -136 74 -156h-203l-74 347c-14 65 -20 105 -51 111c-28 5 -48 -14 -68 -38v-245c0 -100 24 -156 47 -175h-203l6 450c1 100 -30 139 -46 150z" />
    <glyph glyph-name="i" unicode="i" horiz-adv-x="259" 
d="M34 623c0 49 40 91 91 91c52 0 89 -42 89 -91c0 -50 -37 -89 -89 -89c-51 0 -91 39 -91 89zM8 408v4l196 96v-333c0 -100 24 -156 47 -175h-203l6 258c2 100 -30 139 -46 150z" />
    <glyph glyph-name="j" unicode="j" horiz-adv-x="254" 
d="M34 623c0 49 40 91 91 91c52 0 89 -42 89 -91c0 -50 -37 -89 -89 -89c-51 0 -91 39 -91 89zM-13 -159v5c51 13 67 72 67 154v258c2 100 -30 139 -46 150v4l196 96v-381c0 -231 -136 -273 -217 -286z" />
    <glyph glyph-name="k" unicode="k" horiz-adv-x="552" 
d="M263 0h-253c14 17 45 68 45 167l1 278c0 99 -32 139 -45 147v4l211 104l-81 -604c24 58 74 146 127 212c43 54 59 94 59 124c0 36 -17 55 -30 68h238c-21 -6 -113 -50 -189 -121l143 -273c31 -60 57 -92 68 -106h-217c0 40 -14 91 -44 146l-52 96
c-19 -34 -21 -82 -21 -108c2 -51 17 -98 40 -134z" />
    <glyph glyph-name="l" unicode="l" horiz-adv-x="259" 
d="M8 600v4l196 96v-525c0 -100 24 -156 47 -175h-203l6 450c1 100 -30 139 -46 150z" />
    <glyph glyph-name="m" unicode="m" horiz-adv-x="893" 
d="M8 408v4l196 96v-75c23 31 69 75 140 75c73 0 116 -35 137 -95c18 41 62 95 145 95c92 0 133 -58 161 -185l37 -167c21 -97 49 -136 74 -156h-203l-74 347c-14 65 -25 113 -69 113c-33 0 -53 -28 -67 -61c7 -25 10 -55 10 -87v-110c0 -108 17 -181 45 -202h-201l6 299
c2 118 -15 161 -72 161c-28 0 -53 -18 -69 -43v-242c0 -100 24 -156 47 -175h-203l6 258c2 100 -30 139 -46 150z" />
    <glyph glyph-name="n" unicode="n" horiz-adv-x="595" 
d="M8 408v4l196 96v-73c24 34 66 73 133 73c86 0 119 -47 147 -168l42 -184c22 -97 49 -136 74 -156h-203l-74 347c-14 65 -20 105 -51 111c-28 5 -48 -14 -68 -38v-245c0 -100 24 -156 47 -175h-203l6 258c2 100 -30 139 -46 150z" />
    <glyph glyph-name="o" unicode="o" horiz-adv-x="536" 
d="M10 251c0 143 116 257 259 257c142 0 257 -115 257 -258s-114 -258 -258 -258c-143 0 -258 114 -258 259zM139 389c0 -129 101 -365 200 -373c38 -2 59 37 59 98c0 132 -103 370 -204 370c-36 0 -55 -39 -55 -95z" />
    <glyph glyph-name="p" unicode="p" horiz-adv-x="571" 
d="M8 408v4l196 96v-77c7 14 54 77 153 77c100 0 204 -67 204 -246c0 -194 -123 -270 -208 -270c-83 0 -134 51 -149 63v-45c0 -100 24 -156 47 -175h-203l6 423c1 100 -30 139 -46 150zM204 405v-326c17 -18 46 -48 96 -48c66 0 103 75 102 216c-2 155 -43 225 -107 225
c-43 0 -83 -46 -91 -67z" />
    <glyph glyph-name="q" unicode="q" horiz-adv-x="574" 
d="M10 238c0 194 123 270 208 270c83 0 134 -51 149 -63l152 63v-498c0 -100 24 -156 47 -175h-199v234c-7 -14 -54 -77 -153 -77c-100 0 -204 67 -204 246zM169 253c2 -155 43 -225 107 -225c43 0 83 46 91 67v326c-17 18 -46 48 -96 48c-66 0 -103 -75 -102 -216z" />
    <glyph glyph-name="r" unicode="r" horiz-adv-x="422" 
d="M8 413v4l196 91v-197c22 116 82 185 208 197l-31 -148c-66 14 -177 -2 -177 -108v-77c0 -100 24 -156 47 -175h-203l6 263c2 100 -30 139 -46 150z" />
    <glyph glyph-name="s" unicode="s" horiz-adv-x="462" 
d="M442 139c-4 -102 -98 -147 -195 -147c-94 0 -175 15 -216 29l-11 185h2c64 -106 152 -193 230 -198c56 -4 92 18 87 63c-4 39 -56 66 -120 97c-123 60 -192 102 -193 194c-1 106 96 151 213 146c65 -3 125 -17 159 -33l8 -165h-2c-36 101 -120 169 -193 181
c-49 8 -80 -13 -80 -46c0 -41 37 -75 146 -123c112 -49 168 -97 165 -183z" />
    <glyph glyph-name="t" unicode="t" horiz-adv-x="303" 
d="M202 502h96v-9h-96v-300c0 -129 48 -175 96 -185v-8c-114 0 -246 28 -246 223v270h-60v9c77 9 173 68 202 140h8v-140z" />
    <glyph glyph-name="u" unicode="u" horiz-adv-x="567" 
d="M8 423v4l196 81v-307c0 -99 14 -155 77 -155c35 0 56 15 76 32l2 195c0 96 -30 139 -46 150v4l196 81v-333c0 -100 27 -156 50 -175h-203l1 54c-24 -25 -74 -62 -135 -62c-100 0 -168 54 -168 196v85c0 96 -30 139 -46 150z" />
    <glyph glyph-name="v" unicode="v" horiz-adv-x="543" 
d="M4 496v4h219v-4c-3 -2 -8 -12 -8 -31c0 -17 4 -39 17 -72l100 -246l62 125c20 41 28 78 28 116c0 54 -16 91 -30 108v4h147v-4c-21 -26 -53 -67 -112 -186l-95 -191v-119h-101l-146 354c-41 99 -67 134 -81 142z" />
    <glyph glyph-name="w" unicode="w" horiz-adv-x="851" 
d="M4 496v4h219v-4c-3 -2 -8 -12 -8 -31c0 -17 4 -39 17 -72l100 -246l62 125c7 14 12 27 16 40l-17 42c-41 99 -67 134 -81 142v4h219v-4c-3 -2 -8 -12 -8 -31c0 -17 4 -39 17 -72l100 -246l62 125c20 41 28 78 28 116c0 54 -16 91 -30 108v4h147v-4
c-21 -26 -53 -67 -112 -186l-95 -191v-119h-101l-121 293l-86 -174v-119h-101l-146 354c-41 99 -67 134 -81 142z" />
    <glyph glyph-name="x" unicode="x" horiz-adv-x="543" 
d="M109 0h-106v4c6 2 47 17 123 117l77 101l-137 227c-20 33 -55 44 -63 46v5h240v-5c-12 -8 -13 -32 -1 -52l91 -148l66 93c23 32 39 59 39 81c0 9 -3 18 -10 26v5h106v-5c-6 -2 -47 -16 -123 -116l-72 -94l118 -190c45 -74 73 -88 83 -89v-6h-247v7c13 4 16 40 -24 107
l-60 99l-71 -101c-23 -32 -39 -59 -39 -81c0 -10 3 -19 10 -27v-4z" />
    <glyph glyph-name="y" unicode="y" horiz-adv-x="550" 
d="M5 -274v173c123 0 193 12 238 71l-158 384c-41 99 -67 134 -81 142v4h219v-4c-3 -2 -8 -12 -8 -31c0 -17 4 -39 17 -72l103 -254l66 133c20 41 29 81 29 114c0 53 -18 93 -31 110v4h147v-4c-27 -31 -64 -90 -112 -186l-163 -327c-39 -79 -109 -214 -266 -257z" />
    <glyph glyph-name="z" unicode="z" horiz-adv-x="465" 
d="M422 0h-407l257 492h-43c-92 0 -158 -56 -196 -149h-6l25 157h393l-255 -490h57c91 0 154 43 200 155h6z" />
    <glyph glyph-name="braceleft" unicode="{" horiz-adv-x="229" 
d="M155 708c-56 -10 -75 -65 -78 -147c-2 -71 17 -150 17 -218c0 -45 -13 -84 -47 -113c36 -30 46 -73 46 -121c0 -65 -19 -141 -16 -210c3 -82 22 -137 78 -147c22 -4 48 0 59 2v-44c-12 2 -44 8 -64 13c-64 16 -85 100 -86 194c0 46 6 101 6 153c0 63 -12 121 -60 156v8
c50 36 60 98 60 164c0 50 -6 101 -6 145c1 94 22 178 86 194c20 5 52 11 64 13v-44c-11 2 -37 6 -59 2z" />
    <glyph glyph-name="bar" unicode="|" horiz-adv-x="169" 
d="M72 270c0 388 -12 401 -12 453h49c0 -52 -13 -65 -13 -453c0 -391 13 -399 13 -453h-49c0 54 12 62 12 453z" />
    <glyph glyph-name="braceright" unicode="}" horiz-adv-x="229" 
d="M74 708c-22 4 -48 0 -59 -2v44c12 -2 44 -8 64 -13c64 -16 85 -100 86 -194c0 -44 -6 -95 -6 -145c0 -66 10 -128 60 -164v-8c-48 -35 -60 -93 -60 -156c0 -52 6 -107 6 -153c-1 -94 -22 -178 -86 -194c-20 -5 -52 -11 -64 -13v44c11 -2 37 -6 59 -2c56 10 75 65 78 147
c3 69 -16 145 -16 210c0 48 10 91 46 121c-34 29 -47 68 -47 113c0 68 19 147 17 218c-3 82 -22 137 -78 147z" />
    <glyph glyph-name="asciitilde" unicode="~" horiz-adv-x="602" 
d="M546 360l6 -4c-34 -41 -95 -103 -171 -103c-37 0 -65 7 -97 21c-25 11 -63 32 -106 32c-40 0 -90 -16 -122 -53l-6 4c34 41 95 103 171 103c37 0 66 -7 97 -21c26 -12 63 -32 106 -32c40 0 90 16 122 53z" />
    <glyph glyph-name="exclamdown" unicode="&#xa1;" horiz-adv-x="260" 
d="M131 517c52 0 89 -39 89 -89c0 -49 -37 -91 -89 -91c-51 0 -91 42 -91 91c0 50 40 89 91 89zM108 86l18 214h6l18 -214c18 -213 45 -286 45 -286h-132s27 73 45 286z" />
    <glyph glyph-name="cent" unicode="&#xa2;" horiz-adv-x="522" 
d="M512 250h2c-2 -121 -74 -234 -208 -255c3 -42 6 -71 6 -78h-50c0 6 3 35 6 75h-6c-138 0 -252 110 -252 256c0 153 115 260 252 260h6c-4 38 -6 65 -6 71h50c0 -7 -2 -34 -5 -73c60 -5 105 -21 159 -51v-157c-40 89 -96 159 -161 185c-5 -66 -11 -155 -11 -234
c0 -42 2 -87 4 -130c17 -5 36 -8 55 -8c93 0 145 54 159 139zM146 298c13 -71 62 -141 131 -171c3 40 4 82 4 122c0 83 -7 177 -12 244c-7 1 -13 1 -20 1c-77 0 -124 -81 -103 -196z" />
    <glyph glyph-name="sterling" unicode="&#xa3;" horiz-adv-x="588" 
d="M536 0h-536c136 80 214 162 214 222c0 44 -20 79 -46 110l-104 1v12l92 1c-46 51 -102 98 -102 171c0 119 135 183 268 183c81 0 175 -24 212 -42l32 -263h-2c-52 168 -184 291 -269 291c-68 0 -92 -41 -93 -95c-1 -93 102 -118 134 -239c94 5 131 13 144 16v-55
c-13 3 -49 10 -142 14c-4 -81 -99 -157 -121 -177h243c97 0 119 35 119 35h4z" />
    <glyph glyph-name="currency" unicode="&#xa4;" horiz-adv-x="548" 
d="M85 93l-35 34c29 24 57 49 86 73c-28 32 -44 74 -44 119s16 86 43 117c-32 28 -61 52 -85 71l33 36c19 -24 44 -54 72 -87c32 28 74 44 119 44s87 -17 118 -44c28 32 53 63 73 87l33 -36c-24 -19 -54 -44 -86 -71c27 -32 43 -73 43 -117c0 -45 -16 -87 -43 -118
c32 -29 62 -54 86 -74l-35 -34c-19 24 -44 54 -72 87c-31 -28 -72 -44 -117 -44s-86 16 -118 43c-27 -32 -52 -62 -71 -86zM106 319c0 -97 79 -169 167 -169c90 0 168 76 168 169c0 89 -75 167 -167 167c-90 0 -168 -73 -168 -167z" />
    <glyph glyph-name="yen" unicode="&#xa5;" horiz-adv-x="651" 
d="M531 509l-118 -261v-40c67 5 91 11 94 12v-49c-7 1 -30 6 -94 10c1 -21 2 -40 4 -58c64 5 87 11 90 12v-49c-7 1 -28 6 -86 10c8 -44 20 -76 35 -96h-240c16 21 28 55 36 102c-32 1 -67 1 -107 1v12c40 0 76 0 109 1c2 21 4 45 5 71c-34 1 -71 1 -114 1v12
c42 0 80 0 113 1l-200 420c-15 32 -32 62 -55 79h226c-2 -5 -4 -15 -4 -27c0 -15 3 -37 16 -64l164 -344c21 46 65 151 92 230c15 45 26 100 26 144c0 25 -2 47 -9 61h134c-20 -23 -59 -62 -117 -191z" />
    <glyph glyph-name="brokenbar" unicode="&#xa6;" horiz-adv-x="170" 
d="M109 293h-49c0 26 12 75 12 215s-12 189 -12 215h50c0 -26 -14 -75 -14 -215s13 -189 13 -215zM109 -183h-49c0 26 12 75 12 215s-12 189 -12 215h50c0 -26 -14 -75 -14 -215s13 -189 13 -215z" />
    <glyph glyph-name="section" unicode="&#xa7;" horiz-adv-x="477" 
d="M41 21l-11 185h2c65 -149 161 -204 233 -204c56 0 100 25 100 68c0 36 -42 55 -136 98c-125 57 -192 94 -193 182c-1 68 44 114 104 138c-68 37 -103 74 -104 138c-1 106 108 158 213 158c65 0 125 -17 159 -33l8 -165h-2c-36 101 -100 186 -193 186
c-49 0 -81 -25 -81 -53c0 -41 40 -69 147 -125c90 -47 165 -93 165 -179c0 -68 -44 -111 -102 -132c59 -37 102 -79 102 -144c0 -102 -98 -147 -195 -147c-94 0 -175 15 -216 29zM140 443c0 -41 40 -69 147 -125c16 -8 31 -16 45 -25c20 12 33 30 33 53c0 36 -42 55 -136 98
c-26 12 -49 23 -70 34c-12 -10 -19 -22 -19 -35z" />
    <glyph glyph-name="dieresis" unicode="&#xa8;" horiz-adv-x="346" 
d="M85 539c-39 0 -70 30 -70 68s31 70 70 70s68 -31 68 -70c0 -38 -29 -68 -68 -68zM263 539c-39 0 -70 30 -70 68s31 70 70 70s68 -32 68 -70s-29 -68 -68 -68z" />
    <glyph glyph-name="copyright" unicode="&#xa9;" horiz-adv-x="754" 
d="M20 349c0 199 159 359 357 359s357 -160 357 -359c0 -196 -159 -357 -357 -357s-357 161 -357 357zM34 348c0 -187 152 -342 343 -342s343 155 343 342c0 192 -152 346 -343 346s-343 -154 -343 -346zM133 350c0 141 116 238 264 238c69 0 132 -22 181 -52v-170h-2
c-30 96 -112 208 -214 208c-83 0 -127 -68 -127 -158c0 -137 101 -232 226 -232c37 0 109 14 142 89l2 -1c-26 -72 -92 -159 -217 -159c-142 0 -255 96 -255 237z" />
    <glyph glyph-name="guillemotleft" unicode="&#xab;" horiz-adv-x="412" 
d="M20 248c27 22 65 56 97 84c29 26 75 63 107 93h10c-35 -39 -76 -105 -123 -177c47 -72 88 -138 123 -177h-10c-32 30 -78 67 -107 93c-32 28 -70 62 -97 84zM168 248c27 22 65 56 97 84c29 26 75 63 107 93h10c-35 -39 -76 -105 -123 -177c47 -72 88 -138 123 -177h-10
c-32 30 -78 67 -107 93c-32 28 -70 62 -97 84z" />
    <glyph glyph-name="logicalnot" unicode="&#xac;" horiz-adv-x="536" 
d="M50 410v49c23 0 296 -12 420 -12c0 -44 10 -179 16 -228h-49c11 53 17 101 17 212c-129 -1 -366 -16 -404 -21z" />
    <glyph glyph-name="registered" unicode="&#xae;" horiz-adv-x="530" 
d="M265 237c-130 0 -235 106 -235 235c0 131 105 236 235 236s235 -105 235 -236c0 -129 -105 -235 -235 -235zM265 251c123 0 221 99 221 219c0 123 -96 224 -221 224c-123 0 -221 -101 -221 -224c0 -120 100 -219 221 -219zM262 331h-105c11 14 19 41 19 84v115
c0 42 -8 70 -19 83h120c50 0 88 -10 88 -47c0 -30 -28 -43 -58 -59l36 -77c15 -33 36 -72 53 -99h-96c0 17 -13 61 -26 90l-19 39c-19 -37 -13 -92 7 -129zM191 361c14 45 50 92 68 114c28 34 40 62 40 90c0 26 -7 43 -34 43c-15 0 -25 -9 -30 -37
c-13 -70 -29 -140 -44 -210z" />
    <glyph glyph-name="macron" unicode="&#xaf;" horiz-adv-x="312" 
d="M156 581c68 0 119 7 136 7v-39c-17 0 -68 8 -136 8c-72 0 -119 -8 -136 -8v39c17 0 64 -7 136 -7z" />
    <glyph glyph-name="degree" unicode="&#xb0;" horiz-adv-x="299" 
d="M180 449c-72 0 -130 58 -130 129c0 72 58 130 130 130c71 0 129 -58 129 -130c0 -71 -58 -129 -129 -129zM181 461c65 0 116 51 116 116c0 66 -51 119 -116 119c-66 0 -119 -53 -119 -119c0 -65 53 -116 119 -116z" />
    <glyph glyph-name="plusminus" unicode="&#xb1;" horiz-adv-x="532" 
d="M50 366v34c30 -1 44 -9 208 -9c0 164 -8 178 -9 208h34c-1 -30 -9 -44 -9 -208c164 0 178 8 208 9v-34c-30 1 -44 9 -208 9c0 -164 8 -178 9 -208h-34c1 30 9 44 9 208c-164 0 -178 -8 -208 -9zM50 81v34c30 -1 44 -9 216 -9s186 8 216 9v-34c-30 1 -44 9 -216 9
s-186 -8 -216 -9z" />
    <glyph glyph-name="acute" unicode="&#xb4;" horiz-adv-x="352" 
d="M134 603c-29 -18 -49 -28 -110 -71l-4 6c45 44 91 89 121 121c41 43 100 106 135 146l56 -98c-29 -13 -136 -66 -198 -104z" />
    <glyph glyph-name="paragraph" unicode="&#xb6;" horiz-adv-x="555" 
d="M10 491c0 115 93 209 208 209h181s-41 -50 -41 -187v-326c0 -138 38 -187 38 -187h-127s39 49 39 187v96h-90c-115 0 -208 94 -208 208zM412 700h133s-41 -50 -41 -187v-326c0 -138 38 -187 38 -187h-127s39 49 39 187v326c0 137 -42 187 -42 187z" />
    <glyph glyph-name="periodcentered" unicode="&#xb7;" horiz-adv-x="230" 
d="M116 195c-51 0 -91 39 -91 89c0 49 40 91 91 91c52 0 89 -42 89 -91c0 -50 -37 -89 -89 -89z" />
    <glyph glyph-name="cedilla" unicode="&#xb8;" horiz-adv-x="209" 
d="M101 96c69 0 98 -27 98 -64c0 -60 -98 -98 -158 -112l-1 5c42 9 86 49 86 89c0 26 -20 45 -50 45c-21 0 -35 -4 -53 -16l-4 4l72 77h12l-9 -9c-9 -9 -12 -19 7 -19z" />
    <glyph glyph-name="guillemotright" unicode="&#xbb;" horiz-adv-x="412" 
d="M244 248c-27 -22 -65 -56 -97 -84c-29 -26 -75 -63 -107 -93h-10c35 39 76 105 123 177c-47 72 -88 138 -123 177h10c32 -30 78 -67 107 -93c32 -28 70 -62 97 -84zM392 248c-27 -22 -65 -56 -97 -84c-29 -26 -75 -63 -107 -93h-10c35 39 76 105 123 177
c-47 72 -88 138 -123 177h10c32 -30 78 -67 107 -93c32 -28 70 -62 97 -84z" />
    <glyph glyph-name="questiondown" unicode="&#xbf;" horiz-adv-x="483" 
d="M426 422c0 -49 -40 -91 -91 -91c-52 0 -89 42 -89 91c0 50 37 89 89 89c51 0 91 -39 91 -89zM470 36h3v-207c-42 -18 -137 -43 -223 -43c-141 0 -240 32 -240 119c0 152 366 211 366 340c0 24 -9 44 -20 59l11 2c12 -17 20 -36 20 -62c-1 -120 -227 -182 -227 -354
c0 -61 26 -92 73 -92c93 0 209 117 237 238z" />
    <glyph glyph-name="Agrave" unicode="&#xc0;" horiz-adv-x="619" 
d="M347 746l-4 -6c-61 43 -81 53 -110 71c-62 38 -169 91 -198 104l56 98c35 -40 94 -103 135 -146c30 -32 76 -77 121 -121zM616 0h-234c0 58 2 85 -47 218l-46 124h-111c-5 -51 -8 -112 -8 -190c0 -60 11 -129 15 -152h-182c25 48 54 111 71 170c53 183 108 307 141 373
v157h104l162 -414c60 -153 102 -236 135 -286zM179 356h105l-63 171c-20 -48 -34 -98 -42 -171z" />
    <glyph glyph-name="Aacute" unicode="&#xc1;" horiz-adv-x="619" 
d="M329 811c-29 -18 -49 -28 -110 -71l-4 6c45 44 91 89 121 121c41 43 100 106 135 146l56 -98c-29 -13 -136 -66 -198 -104zM616 0h-234c0 58 2 85 -47 218l-46 124h-111c-5 -51 -8 -112 -8 -190c0 -60 11 -129 15 -152h-182c25 48 54 111 71 170c53 183 108 307 141 373
v157h104l162 -414c60 -153 102 -236 135 -286zM179 356h105l-63 171c-20 -48 -34 -98 -42 -171z" />
    <glyph glyph-name="Acircumflex" unicode="&#xc2;" horiz-adv-x="619" 
d="M283 889c-48 -30 -123 -97 -175 -149l-3 6c75 105 126 183 178 263c53 -80 107 -157 178 -263l-3 -6c-50 52 -127 119 -175 149zM616 0h-234c0 58 2 85 -47 218l-46 124h-111c-5 -51 -8 -112 -8 -190c0 -60 11 -129 15 -152h-182c25 48 54 111 71 170
c53 183 108 307 141 373v157h104l162 -414c60 -153 102 -236 135 -286zM179 356h105l-63 171c-20 -48 -34 -98 -42 -171z" />
    <glyph glyph-name="Atilde" unicode="&#xc3;" horiz-adv-x="619" 
d="M192 806c-25 0 -56 -9 -76 -46l-4 2c21 41 59 105 107 105c46 0 78 -46 126 -46c25 0 56 9 76 46l4 -2c-21 -41 -59 -105 -107 -105c-46 0 -78 46 -126 46zM616 0h-234c0 58 2 85 -47 218l-46 124h-111c-5 -51 -8 -112 -8 -190c0 -60 11 -129 15 -152h-182
c25 48 54 111 71 170c53 183 108 307 141 373v157h104l162 -414c60 -153 102 -236 135 -286zM179 356h105l-63 171c-20 -48 -34 -98 -42 -171z" />
    <glyph glyph-name="Adieresis" unicode="&#xc4;" horiz-adv-x="619" 
d="M193 747c-39 0 -70 30 -70 68s31 70 70 70s68 -31 68 -70c0 -38 -29 -68 -68 -68zM371 747c-39 0 -70 30 -70 68s31 70 70 70s68 -32 68 -70s-29 -68 -68 -68zM616 0h-234c0 58 2 85 -47 218l-46 124h-111c-5 -51 -8 -112 -8 -190c0 -60 11 -129 15 -152h-182
c25 48 54 111 71 170c53 183 108 307 141 373v157h104l162 -414c60 -153 102 -236 135 -286zM179 356h105l-63 171c-20 -48 -34 -98 -42 -171z" />
    <glyph glyph-name="Aring" unicode="&#xc5;" horiz-adv-x="619" 
d="M616 0h-234c0 58 2 85 -47 218l-46 124h-111c-5 -51 -8 -112 -8 -190c0 -60 11 -129 15 -152h-182c25 48 54 111 71 170c53 183 108 307 141 373v156c-23 17 -38 43 -38 74c0 50 40 90 90 90s90 -40 90 -90c0 -30 -15 -57 -38 -74l162 -413c60 -153 102 -236 135 -286z
M192 773c0 -42 33 -75 75 -75c39 0 75 32 75 74s-36 76 -75 76c-42 0 -75 -33 -75 -75zM179 356h105l-63 171c-20 -48 -34 -98 -42 -171z" />
    <glyph glyph-name="AE" unicode="&#xc6;" horiz-adv-x="795" 
d="M188 0h-185c25 48 42 93 55 139c83 293 201 441 253 487c-8 33 -19 58 -32 74h474l7 -186h-2c-38 78 -98 174 -188 174c-53 0 -88 -38 -88 -94c0 -57 30 -113 144 -113h85v-151h-1c-80 86 -122 135 -174 155c-15 6 -38 9 -50 9v-480c108 12 250 93 304 169l-4 -183h-503
c26 34 42 102 42 207v135h-130c-13 -75 -16 -196 -13 -265c1 -26 4 -51 6 -77zM198 356h127v137c0 45 -4 84 -10 116c-39 -41 -85 -98 -117 -253z" />
    <glyph glyph-name="Ccedilla" unicode="&#xc7;" horiz-adv-x="728" 
d="M402 -8l-5 -5c-9 -9 -12 -19 7 -19c69 0 98 -27 98 -64c0 -60 -98 -98 -158 -112l-1 5c42 9 86 49 86 89c0 26 -20 45 -50 45c-21 0 -35 -4 -53 -16l-4 4l68 73c-212 2 -380 147 -380 358c0 212 175 358 398 358c104 0 200 -32 273 -77v-257h-2
c-45 145 -170 313 -323 313c-126 0 -192 -102 -192 -237c0 -208 153 -351 341 -351c56 0 165 22 214 135l4 -2c-39 -108 -137 -237 -321 -240z" />
    <glyph glyph-name="Egrave" unicode="&#xc8;" horiz-adv-x="526" 
d="M216 811c-62 38 -169 91 -198 104l56 98c35 -40 94 -103 135 -146c30 -32 76 -77 121 -121l-4 -6c-61 43 -81 53 -110 71zM517 0h-507c26 34 46 102 46 207v286c0 105 -20 173 -46 207h474l7 -166h-2c-38 78 -98 154 -188 154c-53 0 -88 -38 -88 -94
c0 -57 30 -113 144 -113h85v-151h-1c-80 86 -122 135 -174 155c-15 6 -38 9 -50 9v-480c108 12 250 93 304 169z" />
    <glyph glyph-name="Eacute" unicode="&#xc9;" horiz-adv-x="526" 
d="M312 811c-29 -18 -49 -28 -110 -71l-4 6c45 44 91 89 121 121c41 43 100 106 135 146l56 -98c-29 -13 -136 -66 -198 -104zM517 0h-507c26 34 46 102 46 207v286c0 105 -20 173 -46 207h474l7 -166h-2c-38 78 -98 154 -188 154c-53 0 -88 -38 -88 -94
c0 -57 30 -113 144 -113h85v-151h-1c-80 86 -122 135 -174 155c-15 6 -38 9 -50 9v-480c108 12 250 93 304 169z" />
    <glyph glyph-name="Ecircumflex" unicode="&#xca;" horiz-adv-x="526" 
d="M91 740l-3 6c75 105 126 183 178 263c53 -80 107 -157 178 -263l-3 -6c-50 52 -127 119 -175 149c-48 -30 -123 -97 -175 -149zM517 0h-507c26 34 46 102 46 207v286c0 105 -20 173 -46 207h474l7 -166h-2c-38 78 -98 154 -188 154c-53 0 -88 -38 -88 -94
c0 -57 30 -113 144 -113h85v-151h-1c-80 86 -122 135 -174 155c-15 6 -38 9 -50 9v-480c108 12 250 93 304 169z" />
    <glyph glyph-name="Edieresis" unicode="&#xcb;" horiz-adv-x="526" 
d="M176 747c-39 0 -70 30 -70 68s31 70 70 70s68 -31 68 -70c0 -38 -29 -68 -68 -68zM354 747c-39 0 -70 30 -70 68s31 70 70 70s68 -32 68 -70s-29 -68 -68 -68zM517 0h-507c26 34 46 102 46 207v286c0 105 -20 173 -46 207h474l7 -166h-2c-38 78 -98 154 -188 154
c-53 0 -88 -38 -88 -94c0 -57 30 -113 144 -113h85v-151h-1c-80 86 -122 135 -174 155c-15 6 -38 9 -50 9v-480c108 12 250 93 304 169z" />
    <glyph glyph-name="Igrave" unicode="&#xcc;" horiz-adv-x="272" 
d="M89 811c-62 38 -169 91 -198 104l56 98c35 -40 94 -103 135 -146c30 -32 76 -77 121 -121l-4 -6c-61 43 -81 53 -110 71zM262 0h-252c26 34 46 102 46 207v286c0 105 -20 173 -46 207h252c-26 -34 -46 -102 -46 -207v-286c0 -105 20 -173 46 -207z" />
    <glyph glyph-name="Iacute" unicode="&#xcd;" horiz-adv-x="272" 
d="M185 811c-29 -18 -49 -28 -110 -71l-4 6c45 44 91 89 121 121c41 43 100 106 135 146l56 -98c-29 -13 -136 -66 -198 -104zM262 0h-252c26 34 46 102 46 207v286c0 105 -20 173 -46 207h252c-26 -34 -46 -102 -46 -207v-286c0 -105 20 -173 46 -207z" />
    <glyph glyph-name="Icircumflex" unicode="&#xce;" horiz-adv-x="272" 
d="M-36 740l-3 6c75 105 126 183 178 263c53 -80 107 -157 178 -263l-3 -6c-50 52 -127 119 -175 149c-48 -30 -123 -97 -175 -149zM262 0h-252c26 34 46 102 46 207v286c0 105 -20 173 -46 207h252c-26 -34 -46 -102 -46 -207v-286c0 -105 20 -173 46 -207z" />
    <glyph glyph-name="Idieresis" unicode="&#xcf;" horiz-adv-x="272" 
d="M49 747c-39 0 -70 30 -70 68s31 70 70 70s68 -31 68 -70c0 -38 -29 -68 -68 -68zM227 747c-39 0 -70 30 -70 68s31 70 70 70s68 -32 68 -70s-29 -68 -68 -68zM262 0h-252c26 34 46 102 46 207v286c0 105 -20 173 -46 207h252c-26 -34 -46 -102 -46 -207v-286
c0 -105 20 -173 46 -207z" />
    <glyph glyph-name="Eth" unicode="&#xd0;" horiz-adv-x="670" 
d="M10 700h254c235 0 396 -141 396 -349c0 -210 -161 -351 -396 -351h-254c26 34 46 102 46 207v136l-75 1v15h75v134c0 105 -20 173 -46 207zM216 14h31c135 0 248 167 248 337c0 166 -113 335 -248 335h-31v-327h154v-43c-54 12 -102 20 -154 24v-326z" />
    <glyph glyph-name="Ntilde" unicode="&#xd1;" horiz-adv-x="602" 
d="M455 867l4 -2c-21 -41 -59 -105 -107 -105c-46 0 -78 46 -126 46c-25 0 -56 -9 -76 -46l-4 2c21 41 59 105 107 105c46 0 78 -46 126 -46c25 0 56 9 76 46zM171 0h-166c26 46 61 160 61 333v271l-61 96h195l309 -473v140c0 173 -41 287 -71 333h156
c-30 -46 -71 -160 -71 -333v-367h-76c-45 100 -224 363 -367 582v-249c0 -173 52 -287 91 -333z" />
    <glyph glyph-name="Ograve" unicode="&#xd2;" horiz-adv-x="736" 
d="M308 812c-62 38 -169 91 -198 104l56 98c35 -40 94 -103 135 -146c30 -32 76 -77 121 -121l-4 -6c-61 43 -81 53 -110 71zM726 350c0 -197 -160 -358 -358 -358s-358 159 -358 358c0 197 159 358 357 358s359 -160 359 -358zM587 201c7 188 -142 469 -307 475
c-87 3 -128 -82 -131 -178c-7 -189 141 -469 307 -474c86 -3 128 81 131 177z" />
    <glyph glyph-name="Oacute" unicode="&#xd3;" horiz-adv-x="736" 
d="M404 812c-29 -18 -49 -28 -110 -71l-4 6c45 44 91 89 121 121c41 43 100 106 135 146l56 -98c-29 -13 -136 -66 -198 -104zM726 350c0 -197 -160 -358 -358 -358s-358 159 -358 358c0 197 159 358 357 358s359 -160 359 -358zM587 201c7 188 -142 469 -307 475
c-87 3 -128 -82 -131 -178c-7 -189 141 -469 307 -474c86 -3 128 81 131 177z" />
    <glyph glyph-name="Ocircumflex" unicode="&#xd4;" horiz-adv-x="736" 
d="M183 741l-3 6c75 105 126 183 178 263c53 -80 107 -157 178 -263l-3 -6c-50 52 -127 119 -175 149c-48 -30 -123 -97 -175 -149zM726 350c0 -197 -160 -358 -358 -358s-358 159 -358 358c0 197 159 358 357 358s359 -160 359 -358zM587 201c7 188 -142 469 -307 475
c-87 3 -128 -82 -131 -178c-7 -189 141 -469 307 -474c86 -3 128 81 131 177z" />
    <glyph glyph-name="Otilde" unicode="&#xd5;" horiz-adv-x="736" 
d="M496 868l4 -2c-21 -41 -59 -105 -107 -105c-46 0 -78 46 -126 46c-25 0 -56 -9 -76 -46l-4 2c21 41 59 105 107 105c46 0 78 -46 126 -46c25 0 56 9 76 46zM726 350c0 -197 -160 -358 -358 -358s-358 159 -358 358c0 197 159 358 357 358s359 -160 359 -358zM587 201
c7 188 -142 469 -307 475c-87 3 -128 -82 -131 -178c-7 -189 141 -469 307 -474c86 -3 128 81 131 177z" />
    <glyph glyph-name="Odieresis" unicode="&#xd6;" horiz-adv-x="736" 
d="M268 748c-39 0 -70 30 -70 68s31 70 70 70s68 -31 68 -70c0 -38 -29 -68 -68 -68zM446 748c-39 0 -70 30 -70 68s31 70 70 70s68 -32 68 -70s-29 -68 -68 -68zM726 350c0 -197 -160 -358 -358 -358s-358 159 -358 358c0 197 159 358 357 358s359 -160 359 -358zM587 201
c7 188 -142 469 -307 475c-87 3 -128 -82 -131 -178c-7 -189 141 -469 307 -474c86 -3 128 81 131 177z" />
    <glyph glyph-name="multiply" unicode="&#xd7;" horiz-adv-x="430" 
d="M74 147l-24 24c22 21 37 25 153 141c-116 116 -131 120 -153 141l24 24c21 -22 25 -37 141 -153c116 116 120 131 141 153l24 -24c-22 -21 -37 -25 -153 -141c116 -116 131 -120 153 -141l-24 -24c-21 22 -25 37 -141 153c-116 -116 -120 -131 -141 -153z" />
    <glyph glyph-name="Oslash" unicode="&#xd8;" horiz-adv-x="736" 
d="M703 723l38 -36l-106 -99c57 -63 91 -146 91 -238c0 -197 -160 -358 -358 -358c-93 0 -178 35 -241 93c-30 -35 -59 -70 -92 -107l-39 36l105 97c-57 63 -91 147 -91 239c0 197 159 358 357 358c93 0 178 -35 242 -93c30 35 61 71 94 108zM149 498
c-3 -85 25 -187 71 -275c48 43 95 87 142 131c56 52 102 98 142 142c-57 100 -138 177 -224 180c-87 3 -128 -82 -131 -178zM587 201c3 84 -25 187 -72 276l-141 -131c-57 -52 -102 -99 -143 -143c57 -99 139 -176 225 -179s128 81 131 177z" />
    <glyph glyph-name="Ugrave" unicode="&#xd9;" horiz-adv-x="661" 
d="M294 811c-62 38 -169 91 -198 104l56 98c35 -40 94 -103 135 -146c30 -32 76 -77 121 -121l-4 -6c-61 43 -81 53 -110 71zM8 700h252c-26 -34 -46 -102 -46 -207v-239c0 -172 44 -235 153 -235c137 0 188 125 188 278v148c0 156 -60 229 -101 255h199
c-34 -26 -84 -99 -84 -255v-148c0 -138 -31 -305 -231 -305c-123 0 -284 42 -284 305v196c0 105 -20 173 -46 207z" />
    <glyph glyph-name="Uacute" unicode="&#xda;" horiz-adv-x="661" 
d="M390 811c-29 -18 -49 -28 -110 -71l-4 6c45 44 91 89 121 121c41 43 100 106 135 146l56 -98c-29 -13 -136 -66 -198 -104zM8 700h252c-26 -34 -46 -102 -46 -207v-239c0 -172 44 -235 153 -235c137 0 188 125 188 278v148c0 156 -60 229 -101 255h199
c-34 -26 -84 -99 -84 -255v-148c0 -138 -31 -305 -231 -305c-123 0 -284 42 -284 305v196c0 105 -20 173 -46 207z" />
    <glyph glyph-name="Ucircumflex" unicode="&#xdb;" horiz-adv-x="661" 
d="M169 740l-3 6c75 105 126 183 178 263c53 -80 107 -157 178 -263l-3 -6c-50 52 -127 119 -175 149c-48 -30 -123 -97 -175 -149zM8 700h252c-26 -34 -46 -102 -46 -207v-239c0 -172 44 -235 153 -235c137 0 188 125 188 278v148c0 156 -60 229 -101 255h199
c-34 -26 -84 -99 -84 -255v-148c0 -138 -31 -305 -231 -305c-123 0 -284 42 -284 305v196c0 105 -20 173 -46 207z" />
    <glyph glyph-name="Udieresis" unicode="&#xdc;" horiz-adv-x="661" 
d="M254 747c-39 0 -70 30 -70 68s31 70 70 70s68 -31 68 -70c0 -38 -29 -68 -68 -68zM432 747c-39 0 -70 30 -70 68s31 70 70 70s68 -32 68 -70s-29 -68 -68 -68zM8 700h252c-26 -34 -46 -102 -46 -207v-239c0 -172 44 -235 153 -235c137 0 188 125 188 278v148
c0 156 -60 229 -101 255h199c-34 -26 -84 -99 -84 -255v-148c0 -138 -31 -305 -231 -305c-123 0 -284 42 -284 305v196c0 105 -20 173 -46 207z" />
    <glyph glyph-name="Yacute" unicode="&#xdd;" horiz-adv-x="651" 
d="M390 811c-29 -18 -49 -28 -110 -71l-4 6c45 44 91 89 121 121c41 43 100 106 135 146l56 -98c-29 -13 -136 -66 -198 -104zM3 700h226c-2 -5 -4 -15 -4 -27c0 -15 3 -37 16 -64l164 -344c21 46 65 151 92 230c15 45 26 100 26 144c0 25 -2 47 -9 61h134
c-20 -23 -59 -62 -117 -191l-118 -261v-41c0 -105 17 -173 43 -207h-240c25 33 42 99 43 200l-201 421c-15 32 -32 62 -55 79z" />
    <glyph glyph-name="Thorn" unicode="&#xde;" 
d="M293 0h-283c25 34 46 102 46 207v286c0 129 -31 190 -46 207h226c-23 -30 -34 -69 -44 -147h93c90 0 213 -13 213 -106c0 -94 -183 -140 -226 -192c-22 -27 -31 -58 -31 -91c0 -54 23 -112 52 -164zM165 432l-50 -357c25 79 84 128 127 167c47 43 92 110 92 188
c0 60 -15 114 -80 114h-22c-32 0 -53 -15 -67 -112z" />
    <glyph glyph-name="germandbls" unicode="&#xdf;" horiz-adv-x="734" 
d="M10 700h420c136 0 181 -36 181 -88c0 -81 -153 -80 -196 -130c-10 -11 -14 -22 -14 -33c1 -45 77 -88 158 -131c90 -47 165 -93 165 -179c0 -102 -98 -147 -195 -147c-94 0 -175 15 -216 29l-11 185h6c65 -149 157 -204 229 -204c56 0 100 25 100 68c0 36 -42 55 -136 98
c-125 57 -192 100 -193 175c-1 69 78 128 103 150c34 31 66 67 66 106c0 57 -57 88 -113 88h-35c-90 0 -110 -50 -110 -153v-327c0 -157 45 -206 45 -206h-250s45 49 45 206v285c0 157 -49 208 -49 208z" />
    <glyph glyph-name="agrave" unicode="&#xe0;" horiz-adv-x="539" 
d="M269 611c-62 38 -169 91 -198 104l56 98c35 -40 94 -103 135 -146c30 -32 76 -77 121 -121l-4 -6c-61 43 -81 53 -110 71zM8 168c0 115 75 197 185 240c-21 -22 -43 -70 -43 -151c0 -89 45 -170 128 -169c15 0 31 3 47 9c-47 135 -107 313 -139 350c-22 26 -54 30 -78 26
l-1 3c34 20 72 32 113 32c60 0 127 -28 157 -106c35 -90 77 -208 116 -312c16 -43 37 -76 51 -90h-185l-28 80c-28 -59 -74 -88 -142 -88c-106 0 -181 76 -181 176z" />
    <glyph glyph-name="aacute" unicode="&#xe1;" horiz-adv-x="539" 
d="M295 611c-29 -18 -49 -28 -110 -71l-4 6c45 44 91 89 121 121c41 43 100 106 135 146l56 -98c-29 -13 -136 -66 -198 -104zM8 168c0 115 75 197 185 240c-21 -22 -43 -70 -43 -151c0 -89 45 -170 128 -169c15 0 31 3 47 9c-47 135 -107 313 -139 350
c-22 26 -54 30 -78 26l-1 3c34 20 72 32 113 32c60 0 127 -28 157 -106c35 -90 77 -208 116 -312c16 -43 37 -76 51 -90h-185l-28 80c-28 -59 -74 -88 -142 -88c-106 0 -181 76 -181 176z" />
    <glyph glyph-name="acircumflex" unicode="&#xe2;" horiz-adv-x="539" 
d="M74 540l-3 6c75 105 126 183 178 263c53 -80 107 -157 178 -263l-3 -6c-50 52 -127 119 -175 149c-48 -30 -123 -97 -175 -149zM8 168c0 115 75 197 185 240c-21 -22 -43 -70 -43 -151c0 -89 45 -170 128 -169c15 0 31 3 47 9c-47 135 -107 313 -139 350
c-22 26 -54 30 -78 26l-1 3c34 20 72 32 113 32c60 0 127 -28 157 -106c35 -90 77 -208 116 -312c16 -43 37 -76 51 -90h-185l-28 80c-28 -59 -74 -88 -142 -88c-106 0 -181 76 -181 176z" />
    <glyph glyph-name="atilde" unicode="&#xe3;" horiz-adv-x="539" 
d="M387 667l4 -2c-21 -41 -59 -105 -107 -105c-46 0 -78 46 -126 46c-25 0 -56 -9 -76 -46l-4 2c21 41 59 105 107 105c46 0 78 -46 126 -46c25 0 56 9 76 46zM8 168c0 115 75 197 185 240c-21 -22 -43 -70 -43 -151c0 -89 45 -170 128 -169c15 0 31 3 47 9
c-47 135 -107 313 -139 350c-22 26 -54 30 -78 26l-1 3c34 20 72 32 113 32c60 0 127 -28 157 -106c35 -90 77 -208 116 -312c16 -43 37 -76 51 -90h-185l-28 80c-28 -59 -74 -88 -142 -88c-106 0 -181 76 -181 176z" />
    <glyph glyph-name="adieresis" unicode="&#xe4;" horiz-adv-x="539" 
d="M159 547c-39 0 -70 30 -70 68s31 70 70 70s68 -31 68 -70c0 -38 -29 -68 -68 -68zM337 547c-39 0 -70 30 -70 68s31 70 70 70s68 -32 68 -70s-29 -68 -68 -68zM8 168c0 115 75 197 185 240c-21 -22 -43 -70 -43 -151c0 -89 45 -170 128 -169c15 0 31 3 47 9
c-47 135 -107 313 -139 350c-22 26 -54 30 -78 26l-1 3c34 20 72 32 113 32c60 0 127 -28 157 -106c35 -90 77 -208 116 -312c16 -43 37 -76 51 -90h-185l-28 80c-28 -59 -74 -88 -142 -88c-106 0 -181 76 -181 176z" />
    <glyph glyph-name="aring" unicode="&#xe5;" horiz-adv-x="539" 
d="M247 543c-47 0 -84 37 -84 84c0 46 37 83 84 83c46 0 83 -37 83 -83c0 -47 -37 -84 -83 -84zM247 557c36 0 69 30 69 69s-33 70 -69 70c-39 0 -70 -30 -70 -69s31 -70 70 -70zM8 168c0 115 75 197 185 240c-21 -22 -43 -70 -43 -151c0 -89 45 -170 128 -169
c15 0 31 3 47 9c-47 135 -107 313 -139 350c-22 26 -54 30 -78 26l-1 3c34 20 72 32 113 32c60 0 127 -28 157 -106c35 -90 77 -208 116 -312c16 -43 37 -76 51 -90h-185l-28 80c-28 -59 -74 -88 -142 -88c-106 0 -181 76 -181 176z" />
    <glyph glyph-name="ae" unicode="&#xe6;" horiz-adv-x="801" 
d="M8 168c0 115 75 197 185 240c-21 -22 -43 -70 -43 -151c0 -89 45 -170 128 -169c13 0 39 4 55 14c-12 18 -21 37 -29 57c-46 128 -89 254 -118 288c-22 26 -54 30 -78 26l-1 3c34 20 72 32 113 32c49 0 104 -19 138 -70l4 -6c47 48 113 76 186 76c98 0 202 -58 202 -192
h-313c0 -7 -1 -14 -1 -21c0 -111 87 -184 196 -184c81 0 145 49 159 134h2c-2 -134 -100 -253 -243 -253c-87 0 -163 39 -210 100c-33 -72 -85 -100 -151 -100c-106 0 -181 76 -181 176zM437 325h51c96 0 139 32 139 104c0 32 -21 65 -65 65c-73 0 -117 -79 -125 -169z" />
    <glyph glyph-name="ccedilla" unicode="&#xe7;" horiz-adv-x="522" 
d="M269 -8l-5 -5c-9 -9 -12 -19 7 -19c69 0 98 -27 98 -64c0 -60 -98 -98 -158 -112l-1 5c42 9 86 49 86 89c0 26 -20 45 -50 45c-21 0 -35 -4 -53 -16l-4 4l68 73c-136 3 -247 112 -247 256c0 153 115 260 252 260c85 0 137 -16 204 -53v-157c-51 114 -129 196 -217 196
c-77 0 -124 -81 -103 -196c17 -94 98 -187 207 -187c93 0 145 54 159 139h2c-2 -132 -87 -254 -245 -258z" />
    <glyph glyph-name="egrave" unicode="&#xe8;" horiz-adv-x="522" 
d="M411 546l-4 -6c-61 43 -81 53 -110 71c-62 38 -169 91 -198 104l56 98c35 -40 94 -103 135 -146c30 -32 76 -77 121 -121zM512 245h2c-2 -134 -100 -253 -243 -253c-147 0 -261 110 -261 256c0 153 116 260 259 260c98 0 202 -58 202 -192h-313c-1 -7 -1 -14 -1 -21
c0 -111 87 -184 196 -184c81 0 145 49 159 134zM283 494c-73 0 -116 -79 -125 -168h51c96 0 139 31 139 103c0 32 -21 65 -65 65z" />
    <glyph glyph-name="eacute" unicode="&#xe9;" horiz-adv-x="522" 
d="M225 611c-29 -18 -49 -28 -110 -71l-4 6c45 44 91 89 121 121c41 43 100 106 135 146l56 -98c-29 -13 -136 -66 -198 -104zM512 245h2c-2 -134 -100 -253 -243 -253c-147 0 -261 110 -261 256c0 153 116 260 259 260c98 0 202 -58 202 -192h-313c-1 -7 -1 -14 -1 -21
c0 -111 87 -184 196 -184c81 0 145 49 159 134zM283 494c-73 0 -116 -79 -125 -168h51c96 0 139 31 139 103c0 32 -21 65 -65 65z" />
    <glyph glyph-name="ecircumflex" unicode="&#xea;" horiz-adv-x="522" 
d="M256 689c-48 -30 -123 -97 -175 -149l-3 6c75 105 126 183 178 263c53 -80 107 -157 178 -263l-3 -6c-50 52 -127 119 -175 149zM512 245h2c-2 -134 -100 -253 -243 -253c-147 0 -261 110 -261 256c0 153 116 260 259 260c98 0 202 -58 202 -192h-313
c-1 -7 -1 -14 -1 -21c0 -111 87 -184 196 -184c81 0 145 49 159 134zM283 494c-73 0 -116 -79 -125 -168h51c96 0 139 31 139 103c0 32 -21 65 -65 65z" />
    <glyph glyph-name="edieresis" unicode="&#xeb;" horiz-adv-x="522" 
d="M166 547c-39 0 -70 30 -70 68s31 70 70 70s68 -31 68 -70c0 -38 -29 -68 -68 -68zM344 547c-39 0 -70 30 -70 68s31 70 70 70s68 -32 68 -70s-29 -68 -68 -68zM512 245h2c-2 -134 -100 -253 -243 -253c-147 0 -261 110 -261 256c0 153 116 260 259 260
c98 0 202 -58 202 -192h-313c-1 -7 -1 -14 -1 -21c0 -111 87 -184 196 -184c81 0 145 49 159 134zM283 494c-73 0 -116 -79 -125 -168h51c96 0 139 31 139 103c0 32 -21 65 -65 65z" />
    <glyph glyph-name="igrave" unicode="&#xec;" horiz-adv-x="259" 
d="M77 611c-62 38 -169 91 -198 104l56 98c35 -40 94 -103 135 -146c30 -32 76 -77 121 -121l-4 -6c-61 43 -81 53 -110 71zM8 408v4l196 96v-333c0 -100 24 -156 47 -175h-203l6 258c2 100 -30 139 -46 150z" />
    <glyph glyph-name="iacute" unicode="&#xed;" horiz-adv-x="259" 
d="M173 611c-29 -18 -49 -28 -110 -71l-4 6c45 44 91 89 121 121c41 43 100 106 135 146l56 -98c-29 -13 -136 -66 -198 -104zM8 408v4l196 96v-333c0 -100 24 -156 47 -175h-203l6 258c2 100 -30 139 -46 150z" />
    <glyph glyph-name="icircumflex" unicode="&#xee;" horiz-adv-x="259" 
d="M-48 540l-3 6c75 105 126 183 178 263c53 -80 107 -157 178 -263l-3 -6c-50 52 -127 119 -175 149c-48 -30 -123 -97 -175 -149zM8 408v4l196 96v-333c0 -100 24 -156 47 -175h-203l6 258c2 100 -30 139 -46 150z" />
    <glyph glyph-name="idieresis" unicode="&#xef;" horiz-adv-x="259" 
d="M37 547c-39 0 -70 30 -70 68s31 70 70 70s68 -31 68 -70c0 -38 -29 -68 -68 -68zM215 547c-39 0 -70 30 -70 68s31 70 70 70s68 -32 68 -70s-29 -68 -68 -68zM8 408v4l196 96v-333c0 -100 24 -156 47 -175h-203l6 258c2 100 -30 139 -46 150z" />
    <glyph glyph-name="eth" unicode="&#xf0;" horiz-adv-x="573" 
d="M12 263c0 147 96 245 245 245c44 0 82 -15 103 -27c-22 53 -50 102 -83 145c-50 -30 -96 -59 -118 -74l-25 49c25 9 72 28 122 50c-64 71 -146 118 -246 118v6c120 0 231 -33 320 -92c59 27 112 52 130 62l6 -12c-18 -8 -64 -33 -115 -64c126 -90 206 -232 205 -399
c0 -172 -129 -278 -270 -278c-167 0 -274 129 -274 271zM153 318c0 -138 68 -307 179 -307c55 0 90 40 90 165c0 93 -19 197 -57 292c-19 12 -58 30 -96 30c-83 0 -116 -72 -116 -180z" />
    <glyph glyph-name="ntilde" unicode="&#xf1;" horiz-adv-x="621" 
d="M442 667l4 -2c-21 -41 -59 -105 -107 -105c-46 0 -78 46 -126 46c-25 0 -56 -9 -76 -46l-4 2c21 41 59 105 107 105c46 0 78 -46 126 -46c25 0 56 9 76 46zM8 408v4l196 96v-73c24 34 66 73 133 73c86 0 119 -47 147 -168l42 -184c22 -97 49 -136 74 -156h-203l-74 347
c-14 65 -20 105 -51 111c-28 5 -48 -14 -68 -38v-245c0 -100 24 -156 47 -175h-203l6 258c2 100 -30 139 -46 150z" />
    <glyph glyph-name="ograve" unicode="&#xf2;" horiz-adv-x="536" 
d="M243 611c-62 38 -169 91 -198 104l56 98c35 -40 94 -103 135 -146c30 -32 76 -77 121 -121l-4 -6c-61 43 -81 53 -110 71zM10 251c0 143 116 257 259 257c142 0 257 -115 257 -258s-114 -258 -258 -258c-143 0 -258 114 -258 259zM139 389c0 -129 101 -365 200 -373
c38 -2 59 37 59 98c0 132 -103 370 -204 370c-36 0 -55 -39 -55 -95z" />
    <glyph glyph-name="oacute" unicode="&#xf3;" horiz-adv-x="536" 
d="M339 611c-29 -18 -49 -28 -110 -71l-4 6c45 44 91 89 121 121c41 43 100 106 135 146l56 -98c-29 -13 -136 -66 -198 -104zM10 251c0 143 116 257 259 257c142 0 257 -115 257 -258s-114 -258 -258 -258c-143 0 -258 114 -258 259zM139 389c0 -129 101 -365 200 -373
c38 -2 59 37 59 98c0 132 -103 370 -204 370c-36 0 -55 -39 -55 -95z" />
    <glyph glyph-name="ocircumflex" unicode="&#xf4;" horiz-adv-x="536" 
d="M118 540l-3 6c75 105 126 183 178 263c53 -80 107 -157 178 -263l-3 -6c-50 52 -127 119 -175 149c-48 -30 -123 -97 -175 -149zM10 251c0 143 116 257 259 257c142 0 257 -115 257 -258s-114 -258 -258 -258c-143 0 -258 114 -258 259zM139 389
c0 -129 101 -365 200 -373c38 -2 59 37 59 98c0 132 -103 370 -204 370c-36 0 -55 -39 -55 -95z" />
    <glyph glyph-name="otilde" unicode="&#xf5;" horiz-adv-x="536" 
d="M431 667l4 -2c-21 -41 -59 -105 -107 -105c-46 0 -78 46 -126 46c-25 0 -56 -9 -76 -46l-4 2c21 41 59 105 107 105c46 0 78 -46 126 -46c25 0 56 9 76 46zM10 251c0 143 116 257 259 257c142 0 257 -115 257 -258s-114 -258 -258 -258c-143 0 -258 114 -258 259z
M139 389c0 -129 101 -365 200 -373c38 -2 59 37 59 98c0 132 -103 370 -204 370c-36 0 -55 -39 -55 -95z" />
    <glyph glyph-name="odieresis" unicode="&#xf6;" horiz-adv-x="536" 
d="M203 547c-39 0 -70 30 -70 68s31 70 70 70s68 -31 68 -70c0 -38 -29 -68 -68 -68zM381 547c-39 0 -70 30 -70 68s31 70 70 70s68 -32 68 -70s-29 -68 -68 -68zM10 251c0 143 116 257 259 257c142 0 257 -115 257 -258s-114 -258 -258 -258c-143 0 -258 114 -258 259z
M139 389c0 -129 101 -365 200 -373c38 -2 59 37 59 98c0 132 -103 370 -204 370c-36 0 -55 -39 -55 -95z" />
    <glyph glyph-name="divide" unicode="&#xf7;" horiz-adv-x="532" 
d="M266 420c-34 0 -60 25 -60 60c0 34 26 60 60 60s60 -26 60 -60c0 -35 -26 -60 -60 -60zM266 320c172 0 186 8 216 9v-34c-30 1 -44 9 -216 9s-186 -8 -216 -9v34c30 -1 44 -9 216 -9zM266 84c-34 0 -60 26 -60 60s26 60 60 60s60 -26 60 -60s-26 -60 -60 -60z" />
    <glyph glyph-name="oslash" unicode="&#xf8;" horiz-adv-x="536" 
d="M505 529l38 -36c-27 -24 -54 -49 -80 -73c39 -45 63 -105 63 -170c0 -143 -114 -258 -258 -258c-65 0 -125 24 -170 63l-67 -77l-39 36l78 70c-38 45 -60 103 -60 167c0 143 116 257 259 257c63 0 121 -23 166 -61c33 39 60 71 70 82zM139 389c0 -56 19 -131 48 -200
c26 23 51 45 76 68c19 17 47 47 76 80c-38 81 -92 147 -145 147c-36 0 -55 -39 -55 -95zM398 114c0 57 -19 134 -49 202c-25 -22 -49 -45 -74 -67c-17 -16 -46 -46 -78 -82c38 -80 90 -147 142 -151c38 -2 59 37 59 98z" />
    <glyph glyph-name="ugrave" unicode="&#xf9;" horiz-adv-x="567" 
d="M330 611c-62 38 -169 91 -198 104l56 98c35 -40 94 -103 135 -146c30 -32 76 -77 121 -121l-4 -6c-61 43 -81 53 -110 71zM8 423v4l196 81v-307c0 -99 14 -155 77 -155c35 0 56 15 76 32l2 195c0 96 -30 139 -46 150v4l196 81v-333c0 -100 27 -156 50 -175h-203l1 54
c-24 -25 -74 -62 -135 -62c-100 0 -168 54 -168 196v85c0 96 -30 139 -46 150z" />
    <glyph glyph-name="uacute" unicode="&#xfa;" horiz-adv-x="567" 
d="M325 611c-29 -18 -49 -28 -110 -71l-4 6c45 44 91 89 121 121c41 43 100 106 135 146l56 -98c-29 -13 -136 -66 -198 -104zM8 423v4l196 81v-307c0 -99 14 -155 77 -155c35 0 56 15 76 32l2 195c0 96 -30 139 -46 150v4l196 81v-333c0 -100 27 -156 50 -175h-203l1 54
c-24 -25 -74 -62 -135 -62c-100 0 -168 54 -168 196v85c0 96 -30 139 -46 150z" />
    <glyph glyph-name="ucircumflex" unicode="&#xfb;" horiz-adv-x="567" 
d="M104 540l-3 6c75 105 126 183 178 263c53 -80 107 -157 178 -263l-3 -6c-50 52 -127 119 -175 149c-48 -30 -123 -97 -175 -149zM8 423v4l196 81v-307c0 -99 14 -155 77 -155c35 0 56 15 76 32l2 195c0 96 -30 139 -46 150v4l196 81v-333c0 -100 27 -156 50 -175h-203
l1 54c-24 -25 -74 -62 -135 -62c-100 0 -168 54 -168 196v85c0 96 -30 139 -46 150z" />
    <glyph glyph-name="udieresis" unicode="&#xfc;" horiz-adv-x="567" 
d="M189 547c-39 0 -70 30 -70 68s31 70 70 70s68 -31 68 -70c0 -38 -29 -68 -68 -68zM367 547c-39 0 -70 30 -70 68s31 70 70 70s68 -32 68 -70s-29 -68 -68 -68zM8 423v4l196 81v-307c0 -99 14 -155 77 -155c35 0 56 15 76 32l2 195c0 96 -30 139 -46 150v4l196 81v-333
c0 -100 27 -156 50 -175h-203l1 54c-24 -25 -74 -62 -135 -62c-100 0 -168 54 -168 196v85c0 96 -30 139 -46 150z" />
    <glyph glyph-name="yacute" unicode="&#xfd;" horiz-adv-x="550" 
d="M355 611c-29 -18 -49 -28 -110 -71l-4 6c45 44 91 89 121 121c41 43 100 106 135 146l56 -98c-29 -13 -136 -66 -198 -104zM5 -274v173c123 0 193 12 238 71l-158 384c-41 99 -67 134 -81 142v4h219v-4c-3 -2 -8 -12 -8 -31c0 -17 4 -39 17 -72l103 -254l66 133
c20 41 29 81 29 114c0 53 -18 93 -31 110v4h147v-4c-27 -31 -64 -90 -112 -186l-163 -327c-39 -79 -109 -214 -266 -257z" />
    <glyph glyph-name="thorn" unicode="&#xfe;" horiz-adv-x="573" 
d="M8 600v4l196 96v-269c7 14 54 77 153 77c100 0 204 -67 204 -246c0 -194 -123 -270 -208 -270c-83 0 -134 51 -149 63v-45c0 -100 24 -156 47 -175h-203l6 615c1 100 -30 139 -46 150zM204 405v-326c17 -18 46 -48 96 -48c66 0 103 75 102 216c-2 155 -43 225 -107 225
c-43 0 -83 -46 -91 -67z" />
    <glyph glyph-name="ydieresis" unicode="&#xff;" horiz-adv-x="550" 
d="M219 547c-39 0 -70 30 -70 68s31 70 70 70s68 -31 68 -70c0 -38 -29 -68 -68 -68zM397 547c-39 0 -70 30 -70 68s31 70 70 70s68 -32 68 -70s-29 -68 -68 -68zM5 -274v173c123 0 193 12 238 71l-158 384c-41 99 -67 134 -81 142v4h219v-4c-3 -2 -8 -12 -8 -31
c0 -17 4 -39 17 -72l103 -254l66 133c20 41 29 81 29 114c0 53 -18 93 -31 110v4h147v-4c-27 -31 -64 -90 -112 -186l-163 -327c-39 -79 -109 -214 -266 -257z" />
    <glyph glyph-name="Amacron" unicode="&#x100;" horiz-adv-x="619" 
d="M417 788v-39c-17 0 -68 8 -136 8c-72 0 -119 -8 -136 -8v39c17 0 64 -7 136 -7c68 0 119 7 136 7zM616 0h-234c0 58 2 85 -47 218l-46 124h-111c-5 -51 -8 -112 -8 -190c0 -60 11 -129 15 -152h-182c25 48 54 111 71 170c53 183 108 307 141 373v157h104l162 -414
c60 -153 102 -236 135 -286zM179 356h105l-63 171c-20 -48 -34 -98 -42 -171z" />
    <glyph glyph-name="amacron" unicode="&#x101;" horiz-adv-x="539" 
d="M247 581c68 0 119 7 136 7v-39c-17 0 -68 8 -136 8c-72 0 -119 -8 -136 -8v39c17 0 64 -7 136 -7zM8 168c0 115 75 197 185 240c-21 -22 -43 -70 -43 -151c0 -89 45 -170 128 -169c15 0 31 3 47 9c-47 135 -107 313 -139 350c-22 26 -54 30 -78 26l-1 3
c34 20 72 32 113 32c60 0 127 -28 157 -106c35 -90 77 -208 116 -312c16 -43 37 -76 51 -90h-185l-28 80c-28 -59 -74 -88 -142 -88c-106 0 -181 76 -181 176z" />
    <glyph glyph-name="Abreve" unicode="&#x102;" horiz-adv-x="619" 
d="M281 739c-63 0 -113 52 -145 167l7 3c37 -98 99 -105 138 -105s101 7 138 105l7 -3c-32 -115 -82 -167 -145 -167zM616 0h-234c0 58 2 85 -47 218l-46 124h-111c-5 -51 -8 -112 -8 -190c0 -60 11 -129 15 -152h-182c25 48 54 111 71 170c53 183 108 307 141 373v157h104
l162 -414c60 -153 102 -236 135 -286zM179 356h105l-63 171c-20 -48 -34 -98 -42 -171z" />
    <glyph glyph-name="abreve" unicode="&#x103;" horiz-adv-x="539" 
d="M385 709l7 -3c-32 -115 -82 -167 -145 -167s-113 52 -145 167l7 3c37 -98 99 -105 138 -105s101 7 138 105zM8 168c0 115 75 197 185 240c-21 -22 -43 -70 -43 -151c0 -89 45 -170 128 -169c15 0 31 3 47 9c-47 135 -107 313 -139 350c-22 26 -54 30 -78 26l-1 3
c34 20 72 32 113 32c60 0 127 -28 157 -106c35 -90 77 -208 116 -312c16 -43 37 -76 51 -90h-185l-28 80c-28 -59 -74 -88 -142 -88c-106 0 -181 76 -181 176z" />
    <glyph glyph-name="Aogonek" unicode="&#x104;" horiz-adv-x="619" 
d="M381 -161c22 0 46 8 65 36l5 -3c-20 -36 -67 -79 -107 -79c-45 0 -75 32 -75 71c0 78 86 125 113 136c0 58 2 85 -47 218l-46 124h-111c-5 -51 -8 -112 -8 -190c0 -60 11 -129 15 -152h-182c25 48 54 111 71 170c53 183 108 307 141 373v157h104l162 -414
c60 -153 102 -236 135 -286h-170c-91 0 -110 -74 -110 -105c0 -39 23 -56 45 -56zM179 356h105l-63 171c-20 -48 -34 -98 -42 -171z" />
    <glyph glyph-name="aogonek" unicode="&#x105;" horiz-adv-x="539" 
d="M358 -161c22 0 46 8 65 36l5 -3c-20 -36 -67 -79 -107 -79c-45 0 -75 32 -75 71c0 78 86 125 113 136l-28 80c-28 -59 -74 -88 -142 -88c-106 0 -181 76 -181 176c0 115 75 197 185 240c-21 -22 -43 -70 -43 -151c0 -89 45 -170 128 -169c15 0 31 3 47 9
c-47 135 -107 313 -139 350c-22 26 -54 30 -78 26l-1 3c34 20 72 32 113 32c60 0 127 -28 157 -106c35 -90 77 -208 116 -312c16 -43 37 -76 51 -90h-121c-91 0 -110 -74 -110 -105c0 -39 23 -56 45 -56z" />
    <glyph glyph-name="Cacute" unicode="&#x106;" horiz-adv-x="728" 
d="M428 811c-29 -18 -49 -28 -110 -71l-4 6c45 44 91 89 121 121c41 43 100 106 135 146l56 -98c-29 -13 -136 -66 -198 -104zM10 350c0 212 175 358 398 358c104 0 200 -32 273 -77v-257h-2c-45 145 -170 313 -323 313c-126 0 -192 -102 -192 -237
c0 -208 153 -351 341 -351c56 0 165 22 214 135l4 -2c-40 -109 -140 -240 -328 -240c-214 0 -385 145 -385 358z" />
    <glyph glyph-name="cacute" unicode="&#x107;" horiz-adv-x="522" 
d="M310 611c-29 -18 -49 -28 -110 -71l-4 6c45 44 91 89 121 121c41 43 100 106 135 146l56 -98c-29 -13 -136 -66 -198 -104zM10 248c0 153 115 260 252 260c85 0 137 -16 204 -53v-157c-51 114 -129 196 -217 196c-77 0 -124 -81 -103 -196c17 -94 98 -187 207 -187
c93 0 145 54 159 139h2c-2 -134 -90 -258 -252 -258c-138 0 -252 110 -252 256z" />
    <glyph glyph-name="Cdotaccent" unicode="&#x10a;" horiz-adv-x="728" 
d="M380 757c-33 0 -58 25 -58 58c0 31 25 56 58 56c31 0 56 -25 56 -56c0 -33 -25 -58 -56 -58zM10 350c0 212 175 358 398 358c104 0 200 -32 273 -77v-257h-2c-45 145 -170 313 -323 313c-126 0 -192 -102 -192 -237c0 -208 153 -351 341 -351c56 0 165 22 214 135l4 -2
c-40 -109 -140 -240 -328 -240c-214 0 -385 145 -385 358z" />
    <glyph glyph-name="cdotaccent" unicode="&#x10b;" horiz-adv-x="522" 
d="M262 557c-33 0 -58 25 -58 58c0 31 25 56 58 56c31 0 56 -25 56 -56c0 -33 -25 -58 -56 -58zM10 248c0 153 115 260 252 260c85 0 137 -16 204 -53v-157c-51 114 -129 196 -217 196c-77 0 -124 -81 -103 -196c17 -94 98 -187 207 -187c93 0 145 54 159 139h2
c-2 -134 -90 -258 -252 -258c-138 0 -252 110 -252 256z" />
    <glyph glyph-name="Ccaron" unicode="&#x10c;" horiz-adv-x="728" 
d="M203 1004l3 6c52 -52 127 -119 175 -149c48 30 125 97 175 149l3 -6c-71 -106 -125 -183 -178 -263c-52 80 -103 158 -178 263zM10 350c0 212 175 358 398 358c104 0 200 -32 273 -77v-257h-2c-45 145 -170 313 -323 313c-126 0 -192 -102 -192 -237
c0 -208 153 -351 341 -351c56 0 165 22 214 135l4 -2c-40 -109 -140 -240 -328 -240c-214 0 -385 145 -385 358z" />
    <glyph glyph-name="ccaron" unicode="&#x10d;" horiz-adv-x="522" 
d="M85 804l3 6c52 -52 127 -119 175 -149c48 30 125 97 175 149l3 -6c-71 -106 -125 -183 -178 -263c-52 80 -103 158 -178 263zM10 248c0 153 115 260 252 260c85 0 137 -16 204 -53v-157c-51 114 -129 196 -217 196c-77 0 -124 -81 -103 -196c17 -94 98 -187 207 -187
c93 0 145 54 159 139h2c-2 -134 -90 -258 -252 -258c-138 0 -252 110 -252 256z" />
    <glyph glyph-name="Dcaron" unicode="&#x10e;" horiz-adv-x="670" 
d="M102 996l3 6c52 -52 127 -119 175 -149c48 30 125 97 175 149l3 -6c-71 -106 -125 -183 -178 -263c-52 80 -103 158 -178 263zM264 0h-254c26 34 46 102 46 207v286c0 105 -20 173 -46 207h254c235 0 396 -141 396 -349c0 -210 -161 -351 -396 -351zM216 686v-672h31
c135 0 248 167 248 337c0 166 -113 335 -248 335h-31z" />
    <glyph glyph-name="dcaron" unicode="&#x10f;" horiz-adv-x="571" 
d="M606 701h95c-38 -62 -59 -95 -83 -140s-42 -88 -53 -113h-7c10 46 20 90 25 117c8 41 16 87 23 136zM10 238c0 194 123 270 208 270c81 0 132 -49 148 -62v4c0 100 -30 139 -46 150v4l196 96v-525c0 -100 24 -156 47 -175h-203l1 59c-17 -22 -63 -67 -147 -67
c-100 0 -204 67 -204 246zM169 253c2 -155 43 -225 107 -225c36 0 71 33 85 56l5 338c-17 19 -46 47 -95 47c-66 0 -103 -75 -102 -216z" />
    <glyph glyph-name="Dcroat" unicode="&#x110;" horiz-adv-x="670" 
d="M10 700h254c235 0 396 -141 396 -349c0 -210 -161 -351 -396 -351h-254c26 34 46 102 46 207v136l-75 1v15h75v134c0 105 -20 173 -46 207zM216 14h31c135 0 248 167 248 337c0 166 -113 335 -248 335h-31v-327h154v-43c-54 12 -102 20 -154 24v-326z" />
    <glyph glyph-name="dcroat" unicode="&#x111;" horiz-adv-x="571" 
d="M601 510l-3 -13l-82 14v-336c0 -100 24 -156 47 -175h-203l1 59c-17 -22 -63 -67 -147 -67c-100 0 -204 67 -204 246c0 194 123 270 208 270c81 0 132 -49 148 -62v4c0 35 -4 63 -9 85c-50 6 -97 10 -130 10l6 44c27 -9 69 -19 116 -29c-10 22 -21 35 -29 40v4l196 96
v-175c36 -7 67 -12 85 -15zM361 84l5 338c-17 19 -46 47 -95 47c-66 0 -103 -75 -102 -216c2 -155 43 -225 107 -225c36 0 71 33 85 56z" />
    <glyph glyph-name="Emacron" unicode="&#x112;" horiz-adv-x="526" 
d="M264 781c68 0 119 7 136 7v-39c-17 0 -68 8 -136 8c-72 0 -119 -8 -136 -8v39c17 0 64 -7 136 -7zM517 0h-507c26 34 46 102 46 207v286c0 105 -20 173 -46 207h474l7 -166h-2c-38 78 -98 154 -188 154c-53 0 -88 -38 -88 -94c0 -57 30 -113 144 -113h85v-151h-1
c-80 86 -122 135 -174 155c-15 6 -38 9 -50 9v-480c108 12 250 93 304 169z" />
    <glyph glyph-name="emacron" unicode="&#x113;" horiz-adv-x="522" 
d="M390 588v-39c-17 0 -68 8 -136 8c-72 0 -119 -8 -136 -8v39c17 0 64 -7 136 -7c68 0 119 7 136 7zM512 245h2c-2 -134 -100 -253 -243 -253c-147 0 -261 110 -261 256c0 153 116 260 259 260c98 0 202 -58 202 -192h-313c-1 -7 -1 -14 -1 -21c0 -111 87 -184 196 -184
c81 0 145 49 159 134zM283 494c-73 0 -116 -79 -125 -168h51c96 0 139 31 139 103c0 32 -21 65 -65 65z" />
    <glyph glyph-name="Edotaccent" unicode="&#x116;" horiz-adv-x="526" 
d="M264 757c-33 0 -58 25 -58 58c0 31 25 56 58 56c31 0 56 -25 56 -56c0 -33 -25 -58 -56 -58zM517 0h-507c26 34 46 102 46 207v286c0 105 -20 173 -46 207h474l7 -166h-2c-38 78 -98 154 -188 154c-53 0 -88 -38 -88 -94c0 -57 30 -113 144 -113h85v-151h-1
c-80 86 -122 135 -174 155c-15 6 -38 9 -50 9v-480c108 12 250 93 304 169z" />
    <glyph glyph-name="edotaccent" unicode="&#x117;" horiz-adv-x="522" 
d="M254 557c-33 0 -58 25 -58 58c0 31 25 56 58 56c31 0 56 -25 56 -56c0 -33 -25 -58 -56 -58zM512 245h2c-2 -134 -100 -253 -243 -253c-147 0 -261 110 -261 256c0 153 116 260 259 260c98 0 202 -58 202 -192h-313c-1 -7 -1 -14 -1 -21c0 -111 87 -184 196 -184
c81 0 145 49 159 134zM283 494c-73 0 -116 -79 -125 -168h51c96 0 139 31 139 103c0 32 -21 65 -65 65z" />
    <glyph glyph-name="Eogonek" unicode="&#x118;" horiz-adv-x="526" 
d="M517 0h-29c-91 0 -110 -74 -110 -105c0 -39 23 -56 45 -56s46 8 65 36l5 -3c-20 -36 -67 -79 -107 -79c-45 0 -75 32 -75 71c0 78 86 125 113 136h-414c26 34 46 102 46 207v286c0 105 -20 173 -46 207h474l7 -166h-2c-38 78 -98 154 -188 154c-53 0 -88 -38 -88 -94
c0 -57 30 -113 144 -113h85v-151h-1c-80 86 -122 135 -174 155c-15 6 -38 9 -50 9v-480c108 12 250 93 304 169z" />
    <glyph glyph-name="eogonek" unicode="&#x119;" horiz-adv-x="522" 
d="M310 -11c-46 -21 -57 -70 -57 -94c0 -39 23 -56 45 -56s46 8 65 36l5 -3c-20 -36 -67 -79 -107 -79c-45 0 -75 32 -75 71c0 66 61 110 97 128h-12c-147 0 -261 110 -261 256c0 153 116 260 259 260c98 0 202 -58 202 -192h-313c-1 -7 -1 -14 -1 -21
c0 -111 87 -184 196 -184c81 0 145 49 159 134h2c-2 -105 -63 -202 -158 -238c-18 -7 -34 -12 -46 -18zM283 494c-73 0 -116 -79 -125 -168h51c96 0 139 31 139 103c0 32 -21 65 -65 65z" />
    <glyph glyph-name="Ecaron" unicode="&#x11a;" horiz-adv-x="526" 
d="M87 1004l3 6c52 -52 127 -119 175 -149c48 30 125 97 175 149l3 -6c-71 -106 -125 -183 -178 -263c-52 80 -103 158 -178 263zM517 0h-507c26 34 46 102 46 207v286c0 105 -20 173 -46 207h474l7 -166h-2c-38 78 -98 154 -188 154c-53 0 -88 -38 -88 -94
c0 -57 30 -113 144 -113h85v-151h-1c-80 86 -122 135 -174 155c-15 6 -38 9 -50 9v-480c108 12 250 93 304 169z" />
    <glyph glyph-name="ecaron" unicode="&#x11b;" horiz-adv-x="522" 
d="M430 810l3 -6c-71 -106 -125 -183 -178 -263c-52 80 -103 158 -178 263l3 6c52 -52 127 -119 175 -149c48 30 125 97 175 149zM512 245h2c-2 -134 -100 -253 -243 -253c-147 0 -261 110 -261 256c0 153 116 260 259 260c98 0 202 -58 202 -192h-313c-1 -7 -1 -14 -1 -21
c0 -111 87 -184 196 -184c81 0 145 49 159 134zM283 494c-73 0 -116 -79 -125 -168h51c96 0 139 31 139 103c0 32 -21 65 -65 65z" />
    <glyph glyph-name="Gbreve" unicode="&#x11e;" horiz-adv-x="778" 
d="M519 909l7 -3c-32 -115 -82 -167 -145 -167s-113 52 -145 167l7 3c37 -98 99 -105 138 -105s101 7 138 105zM10 350c0 212 175 358 398 358c104 0 200 -32 273 -77v-217h-2c-66 144 -183 273 -323 273c-126 0 -192 -102 -192 -237c0 -208 153 -351 341 -351
c68 0 172 52 157 153c-6 52 -49 106 -76 124h160v-376h-12s-29 131 -58 224c0 -104 -103 -232 -281 -232c-214 0 -385 145 -385 358z" />
    <glyph glyph-name="gbreve" unicode="&#x11f;" horiz-adv-x="542" 
d="M395 709l7 -3c-32 -115 -82 -167 -145 -167s-113 52 -145 167l7 3c37 -98 99 -105 138 -105s101 7 138 105zM-11 -181c0 105 127 158 268 229c74 36 102 88 101 170c-1 123 -86 291 -164 271c-38 -10 -46 -53 -46 -93c0 -109 54 -257 154 -298c-28 -10 -58 -15 -86 -15
c-106 0 -187 79 -193 190c-8 148 109 240 250 235c54 -2 102 -18 140 -47l27 117h132v-4c-54 -40 -114 -81 -152 -119c42 -33 67 -90 65 -148c-4 -98 -65 -163 -182 -247c-110 -78 -148 -180 -153 -243c-2 -30 7 -65 37 -58c64 15 69 166 324 298v-190
c-192 0 -280 -141 -415 -141c-57 0 -107 36 -107 93z" />
    <glyph glyph-name="Gdotaccent" unicode="&#x120;" horiz-adv-x="778" 
d="M381 757c-33 0 -58 25 -58 58c0 31 25 56 58 56c31 0 56 -25 56 -56c0 -33 -25 -58 -56 -58zM10 350c0 212 175 358 398 358c104 0 200 -32 273 -77v-217h-2c-66 144 -183 273 -323 273c-126 0 -192 -102 -192 -237c0 -208 153 -351 341 -351c68 0 172 52 157 153
c-6 52 -49 106 -76 124h160v-376h-12s-29 131 -58 224c0 -104 -103 -232 -281 -232c-214 0 -385 145 -385 358z" />
    <glyph glyph-name="gdotaccent" unicode="&#x121;" horiz-adv-x="542" 
d="M257 557c-33 0 -58 25 -58 58c0 31 25 56 58 56c31 0 56 -25 56 -56c0 -33 -25 -58 -56 -58zM-11 -181c0 105 127 158 268 229c74 36 102 88 101 170c-1 123 -86 291 -164 271c-38 -10 -46 -53 -46 -93c0 -109 54 -257 154 -298c-28 -10 -58 -15 -86 -15
c-106 0 -187 79 -193 190c-8 148 109 240 250 235c54 -2 102 -18 140 -47l27 117h132v-4c-54 -40 -114 -81 -152 -119c42 -33 67 -90 65 -148c-4 -98 -65 -163 -182 -247c-110 -78 -148 -180 -153 -243c-2 -30 7 -65 37 -58c64 15 69 166 324 298v-190
c-192 0 -280 -141 -415 -141c-57 0 -107 36 -107 93z" />
    <glyph glyph-name="uni0122" unicode="&#x122;" horiz-adv-x="778" 
d="M10 350c0 212 175 358 398 358c104 0 200 -32 273 -77v-217h-2c-66 144 -183 273 -323 273c-126 0 -192 -102 -192 -237c0 -208 153 -351 341 -351c68 0 172 52 157 153c-6 52 -49 106 -76 124h160v-376h-12s-29 131 -58 224c0 -104 -103 -232 -281 -232
c-214 0 -385 145 -385 358zM382 -38c36 0 60 -28 60 -67c0 -68 -49 -138 -163 -134c68 9 106 34 106 54c0 17 -12 26 -30 32c-17 6 -36 22 -36 52c0 34 28 63 63 63z" />
    <glyph glyph-name="uni0123" unicode="&#x123;" horiz-adv-x="542" 
d="M257 560c-36 0 -60 28 -60 67c0 68 49 138 163 134c-68 -9 -106 -34 -106 -54c0 -17 12 -26 30 -32c17 -6 36 -22 36 -52c0 -34 -28 -63 -63 -63zM-11 -181c0 105 127 158 268 229c74 36 102 88 101 170c-1 123 -86 291 -164 271c-38 -10 -46 -53 -46 -93
c0 -109 54 -257 154 -298c-28 -10 -58 -15 -86 -15c-106 0 -187 79 -193 190c-8 148 109 240 250 235c54 -2 102 -18 140 -47l27 117h132v-4c-54 -40 -114 -81 -152 -119c42 -33 67 -90 65 -148c-4 -98 -65 -163 -182 -247c-110 -78 -148 -180 -153 -243
c-2 -30 7 -65 37 -58c64 15 69 166 324 298v-190c-192 0 -280 -141 -415 -141c-57 0 -107 36 -107 93z" />
    <glyph glyph-name="Hbar" unicode="&#x126;" horiz-adv-x="658" 
d="M680 495v-46c-23 5 -49 9 -78 13v-255c0 -105 20 -173 46 -207h-252c26 34 46 102 46 207v195h-226v-195c0 -105 20 -173 46 -207h-252c26 34 46 102 46 207v274h-78v14h78c0 104 -20 171 -46 205h252c-26 -34 -46 -101 -46 -205h226c0 104 -20 171 -46 205h252
c-26 -34 -46 -101 -46 -205h78zM216 416h226v61c-30 2 -59 3 -87 3h-139v-64z" />
    <glyph glyph-name="hbar" unicode="&#x127;" horiz-adv-x="595" 
d="M484 340l42 -184c22 -97 49 -136 74 -156h-203l-74 347c-14 65 -20 105 -51 111c-28 5 -48 -14 -68 -38v-245c0 -100 24 -156 47 -175h-203l6 450c0 38 -4 67 -10 89c-35 -4 -61 -8 -71 -9l-2 13l69 9c-10 28 -23 42 -32 48v4l196 96v-122c55 10 107 20 138 28l4 -44
c-36 2 -88 -1 -142 -6v-121c24 34 66 73 133 73c86 0 119 -47 147 -168z" />
    <glyph glyph-name="Imacron" unicode="&#x12a;" horiz-adv-x="272" 
d="M137 781c68 0 119 7 136 7v-39c-17 0 -68 8 -136 8c-72 0 -119 -8 -136 -8v39c17 0 64 -7 136 -7zM262 0h-252c26 34 46 102 46 207v286c0 105 -20 173 -46 207h252c-26 -34 -46 -102 -46 -207v-286c0 -105 20 -173 46 -207z" />
    <glyph glyph-name="imacron" unicode="&#x12b;" horiz-adv-x="259" 
d="M125 581c68 0 119 7 136 7v-39c-17 0 -68 8 -136 8c-72 0 -119 -8 -136 -8v39c17 0 64 -7 136 -7zM8 408v4l196 96v-333c0 -100 24 -156 47 -175h-203l6 258c2 100 -30 139 -46 150z" />
    <glyph glyph-name="Iogonek" unicode="&#x12e;" horiz-adv-x="272" 
d="M262 0h-81c-91 0 -110 -74 -110 -105c0 -39 23 -56 45 -56s46 8 65 36l5 -3c-20 -36 -67 -79 -107 -79c-45 0 -75 32 -75 71c0 78 86 125 113 136h-107c26 34 46 102 46 207v286c0 105 -20 173 -46 207h252c-26 -34 -46 -102 -46 -207v-286c0 -105 20 -173 46 -207z" />
    <glyph glyph-name="iogonek" unicode="&#x12f;" horiz-adv-x="259" 
d="M125 534c-51 0 -91 39 -91 89c0 49 40 91 91 91c52 0 89 -42 89 -91c0 -50 -37 -89 -89 -89zM124 -161c22 0 46 8 65 36l5 -3c-20 -36 -67 -79 -107 -79c-45 0 -75 32 -75 71c0 78 86 125 113 136h-77l6 258c2 100 -30 139 -46 150v4l196 96v-333c0 -100 24 -156 47 -175
h-62c-91 0 -110 -74 -110 -105c0 -39 23 -56 45 -56z" />
    <glyph glyph-name="Idotaccent" unicode="&#x130;" horiz-adv-x="272" 
d="M137 757c-33 0 -58 25 -58 58c0 31 25 56 58 56c31 0 56 -25 56 -56c0 -33 -25 -58 -56 -58zM262 0h-252c26 34 46 102 46 207v286c0 105 -20 173 -46 207h252c-26 -34 -46 -102 -46 -207v-286c0 -105 20 -173 46 -207z" />
    <glyph glyph-name="dotlessi" unicode="&#x131;" horiz-adv-x="259" 
d="M8 408v4l196 96v-333c0 -100 24 -156 47 -175h-203l6 258c2 100 -30 139 -46 150z" />
    <glyph glyph-name="uni0136" unicode="&#x136;" horiz-adv-x="652" 
d="M273 0h-263c26 34 46 102 46 207v286c0 105 -20 173 -46 207h244c-22 -25 -41 -60 -53 -116c-38 -175 -70 -336 -106 -509c29 100 75 221 152 331c97 137 159 228 164 294h214c-46 -20 -151 -93 -240 -173l131 -282c38 -82 89 -177 131 -245h-237c0 43 -32 152 -66 224
l-83 175c-29 -43 -45 -91 -45 -164c0 -88 27 -180 57 -235zM319 -38c36 0 60 -28 60 -67c0 -68 -49 -138 -163 -134c68 9 106 34 106 54c0 17 -12 26 -30 32c-17 6 -36 22 -36 52c0 34 28 63 63 63z" />
    <glyph glyph-name="uni0137" unicode="&#x137;" horiz-adv-x="552" 
d="M263 0h-253c14 17 45 68 45 167l1 278c0 99 -32 139 -45 147v4l211 104l-81 -604c24 58 74 146 127 212c43 54 59 94 59 124c0 36 -17 55 -30 68h238c-21 -6 -113 -50 -189 -121l143 -273c31 -60 57 -92 68 -106h-217c0 40 -14 91 -44 146l-52 96
c-19 -34 -21 -82 -21 -108c2 -51 17 -98 40 -134zM280 -30c36 0 60 -28 60 -67c0 -68 -49 -138 -163 -134c68 9 106 34 106 54c0 17 -12 26 -30 32c-17 6 -36 22 -36 52c0 34 28 63 63 63z" />
    <glyph glyph-name="Lacute" unicode="&#x139;" horiz-adv-x="525" 
d="M184 811c-29 -18 -49 -28 -110 -71l-4 6c45 44 91 89 121 121c41 43 100 106 135 146l56 -98c-29 -13 -136 -66 -198 -104zM516 0h-506c26 34 46 102 46 207v286c0 105 -20 173 -46 207h252c-26 -34 -46 -102 -46 -207v-479c108 13 250 93 304 169z" />
    <glyph glyph-name="lacute" unicode="&#x13a;" horiz-adv-x="259" 
d="M170 811c-29 -18 -49 -28 -110 -71l-4 6c45 44 91 89 121 121c41 43 100 106 135 146l56 -98c-29 -13 -136 -66 -198 -104zM8 600v4l196 96v-525c0 -100 24 -156 47 -175h-203l6 450c1 100 -30 139 -46 150z" />
    <glyph glyph-name="uni013B" unicode="&#x13b;" horiz-adv-x="525" 
d="M516 0h-506c26 34 46 102 46 207v286c0 105 -20 173 -46 207h252c-26 -34 -46 -102 -46 -207v-479c108 13 250 93 304 169zM262 -38c36 0 60 -28 60 -67c0 -68 -49 -138 -163 -134c68 9 106 34 106 54c0 17 -12 26 -30 32c-17 6 -36 22 -36 52c0 34 28 63 63 63z" />
    <glyph glyph-name="uni013C" unicode="&#x13c;" horiz-adv-x="259" 
d="M8 600v4l196 96v-525c0 -100 24 -156 47 -175h-203l6 450c1 100 -30 139 -46 150zM122 -38c36 0 60 -28 60 -67c0 -68 -49 -138 -163 -134c68 9 106 34 106 54c0 17 -12 26 -30 32c-17 6 -36 22 -36 52c0 34 28 63 63 63z" />
    <glyph glyph-name="Lcaron" unicode="&#x13d;" horiz-adv-x="525" 
d="M348 701h95c-38 -62 -59 -95 -83 -140s-42 -88 -53 -113h-7c10 46 20 90 25 117c8 41 16 87 23 136zM516 0h-506c26 34 46 102 46 207v286c0 105 -20 173 -46 207h252c-26 -34 -46 -102 -46 -207v-479c108 13 250 93 304 169z" />
    <glyph glyph-name="lcaron" unicode="&#x13e;" horiz-adv-x="259" 
d="M294 701h95c-38 -62 -59 -95 -83 -140s-42 -88 -53 -113h-7c10 46 20 90 25 117c8 41 16 87 23 136zM8 600v4l196 96v-525c0 -100 24 -156 47 -175h-203l6 450c1 100 -30 139 -46 150z" />
    <glyph glyph-name="Lslash" unicode="&#x141;" horiz-adv-x="525" 
d="M216 317v-303c108 13 250 93 304 169l-4 -183h-506c26 34 46 102 46 207v11l-68 -45l-8 12l76 50v258c0 105 -20 173 -46 207h252c-26 -34 -46 -102 -46 -207v-152l131 86l27 -38c-38 -15 -105 -45 -158 -72z" />
    <glyph glyph-name="lslash" unicode="&#x142;" horiz-adv-x="259" 
d="M204 340v-165c0 -100 24 -156 47 -175h-203l3 255l-63 -42l-8 12l72 47l2 178c1 100 -30 139 -46 150v4l196 96v-327l77 51l27 -38c-26 -10 -65 -27 -104 -46z" />
    <glyph glyph-name="Nacute" unicode="&#x143;" horiz-adv-x="602" 
d="M363 811c-29 -18 -49 -28 -110 -71l-4 6c45 44 91 89 121 121c41 43 100 106 135 146l56 -98c-29 -13 -136 -66 -198 -104zM171 0h-166c26 46 61 160 61 333v271l-61 96h195l309 -473v140c0 173 -41 287 -71 333h156c-30 -46 -71 -160 -71 -333v-367h-76
c-45 100 -224 363 -367 582v-249c0 -173 52 -287 91 -333z" />
    <glyph glyph-name="nacute" unicode="&#x144;" horiz-adv-x="621" 
d="M350 611c-29 -18 -49 -28 -110 -71l-4 6c45 44 91 89 121 121c41 43 100 106 135 146l56 -98c-29 -13 -136 -66 -198 -104zM8 408v4l196 96v-73c24 34 66 73 133 73c86 0 119 -47 147 -168l42 -184c22 -97 49 -136 74 -156h-203l-74 347c-14 65 -20 105 -51 111
c-28 5 -48 -14 -68 -38v-245c0 -100 24 -156 47 -175h-203l6 258c2 100 -30 139 -46 150z" />
    <glyph glyph-name="uni0145" unicode="&#x145;" horiz-adv-x="602" 
d="M171 0h-166c26 46 61 160 61 333v271l-61 96h195l309 -473v140c0 173 -41 287 -71 333h156c-30 -46 -71 -160 -71 -333v-367h-76c-45 100 -224 363 -367 582v-249c0 -173 52 -287 91 -333zM315 -38c36 0 60 -28 60 -67c0 -68 -49 -138 -163 -134c68 9 106 34 106 54
c0 17 -12 26 -30 32c-17 6 -36 22 -36 52c0 34 28 63 63 63z" />
    <glyph glyph-name="uni0146" unicode="&#x146;" horiz-adv-x="595" 
d="M8 408v4l196 96v-73c24 34 66 73 133 73c86 0 119 -47 147 -168l42 -184c22 -97 49 -136 74 -156h-203l-74 347c-14 65 -20 105 -51 111c-28 5 -48 -14 -68 -38v-245c0 -100 24 -156 47 -175h-203l6 258c2 100 -30 139 -46 150zM320 -38c36 0 60 -28 60 -67
c0 -68 -49 -138 -163 -134c68 9 106 34 106 54c0 17 -12 26 -30 32c-17 6 -36 22 -36 52c0 34 28 63 63 63z" />
    <glyph glyph-name="Ncaron" unicode="&#x147;" horiz-adv-x="602" 
d="M138 1004l3 6c52 -52 127 -119 175 -149c48 30 125 97 175 149l3 -6c-71 -106 -125 -183 -178 -263c-52 80 -103 158 -178 263zM171 0h-166c26 46 61 160 61 333v271l-61 96h195l309 -473v140c0 173 -41 287 -71 333h156c-30 -46 -71 -160 -71 -333v-367h-76
c-45 100 -224 363 -367 582v-249c0 -173 52 -287 91 -333z" />
    <glyph glyph-name="ncaron" unicode="&#x148;" horiz-adv-x="621" 
d="M125 804l3 6c52 -52 127 -119 175 -149c48 30 125 97 175 149l3 -6c-71 -106 -125 -183 -178 -263c-52 80 -103 158 -178 263zM8 408v4l196 96v-73c24 34 66 73 133 73c86 0 119 -47 147 -168l42 -184c22 -97 49 -136 74 -156h-203l-74 347c-14 65 -20 105 -51 111
c-28 5 -48 -14 -68 -38v-245c0 -100 24 -156 47 -175h-203l6 258c2 100 -30 139 -46 150z" />
    <glyph glyph-name="Eng" unicode="&#x14a;" horiz-adv-x="602" 
d="M171 0h-166c26 46 61 160 61 333v271l-61 96h195l309 -473v140c0 173 -41 287 -71 333h156c-30 -46 -71 -160 -71 -333v-240c0 -231 -117 -273 -198 -286v5c51 13 67 72 67 154v100l-312 482v-249c0 -173 52 -287 91 -333z" />
    <glyph glyph-name="eng" unicode="&#x14b;" horiz-adv-x="550" 
d="M8 408v4l196 96v-85c15 24 70 85 148 85c99 0 158 -54 158 -196v-185c0 -231 -136 -273 -217 -286v5c51 13 67 72 67 154v299c0 118 -19 171 -71 171c-35 0 -71 -39 -85 -63v-232c0 -100 24 -156 47 -175h-203l6 258c2 100 -30 139 -46 150z" />
    <glyph glyph-name="Omacron" unicode="&#x14c;" horiz-adv-x="736" 
d="M356 782c68 0 119 7 136 7v-39c-17 0 -68 8 -136 8c-72 0 -119 -8 -136 -8v39c17 0 64 -7 136 -7zM726 350c0 -197 -160 -358 -358 -358s-358 159 -358 358c0 197 159 358 357 358s359 -160 359 -358zM587 201c7 188 -142 469 -307 475c-87 3 -128 -82 -131 -178
c-7 -189 141 -469 307 -474c86 -3 128 81 131 177z" />
    <glyph glyph-name="omacron" unicode="&#x14d;" horiz-adv-x="536" 
d="M291 581c68 0 119 7 136 7v-39c-17 0 -68 8 -136 8c-72 0 -119 -8 -136 -8v39c17 0 64 -7 136 -7zM10 251c0 143 116 257 259 257c142 0 257 -115 257 -258s-114 -258 -258 -258c-143 0 -258 114 -258 259zM139 389c0 -129 101 -365 200 -373c38 -2 59 37 59 98
c0 132 -103 370 -204 370c-36 0 -55 -39 -55 -95z" />
    <glyph glyph-name="Ohungarumlaut" unicode="&#x150;" horiz-adv-x="736" 
d="M262 741l-5 6c30 54 51 86 71 125c18 35 41 81 61 121l67 -58l-96 -93c-32 -31 -75 -73 -98 -101zM379 741l-5 6c38 49 78 100 103 136c23 32 52 73 77 110l59 -67c-42 -28 -96 -68 -133 -99c-26 -22 -67 -54 -101 -86zM726 350c0 -197 -160 -358 -358 -358
s-358 159 -358 358c0 197 159 358 357 358s359 -160 359 -358zM587 201c7 188 -142 469 -307 475c-87 3 -128 -82 -131 -178c-7 -189 141 -469 307 -474c86 -3 128 81 131 177z" />
    <glyph glyph-name="ohungarumlaut" unicode="&#x151;" horiz-adv-x="536" 
d="M197 540l-5 6c30 54 51 86 71 125c18 35 41 81 61 121l67 -58l-96 -93c-32 -31 -75 -73 -98 -101zM314 540l-5 6c38 49 78 100 103 136c23 32 52 73 77 110l59 -67c-42 -28 -96 -68 -133 -99c-26 -22 -67 -54 -101 -86zM10 251c0 143 116 257 259 257
c142 0 257 -115 257 -258s-114 -258 -258 -258c-143 0 -258 114 -258 259zM139 389c0 -129 101 -365 200 -373c38 -2 59 37 59 98c0 132 -103 370 -204 370c-36 0 -55 -39 -55 -95z" />
    <glyph glyph-name="OE" unicode="&#x152;" horiz-adv-x="992" 
d="M10 352c0 216 145 357 367 357c106 0 169 -9 256 -9h317l7 -186h-2c-38 78 -98 172 -188 172c-53 0 -88 -36 -88 -92c0 -57 30 -113 144 -113h85v-150h-1c-105 111 -142 152 -224 163v-480c108 12 250 93 304 169l-4 -183h-350c-73 0 -149 -8 -247 -8
c-219 0 -376 152 -376 360zM161 462c0 -198 120 -446 293 -446c30 0 46 14 56 41c12 31 13 82 13 150v265c0 50 -11 89 -30 119c-41 69 -119 94 -184 94c-126 0 -148 -118 -148 -223z" />
    <glyph glyph-name="oe" unicode="&#x153;" horiz-adv-x="896" 
d="M886 245h2c-2 -134 -100 -253 -243 -253c-76 0 -144 30 -191 79c-47 -49 -112 -79 -186 -79c-143 0 -258 114 -258 259c0 143 116 257 259 257c73 0 138 -30 185 -79c47 50 114 79 189 79c98 0 202 -58 202 -192h-313c-1 -7 -1 -14 -1 -21c0 -111 87 -184 196 -184
c81 0 145 49 159 134zM657 494c-73 0 -116 -79 -125 -168h51c96 0 139 31 139 103c0 32 -21 65 -65 65zM339 16c38 -2 59 37 59 98c0 132 -103 370 -204 370c-36 0 -55 -39 -55 -95c0 -129 101 -365 200 -373z" />
    <glyph glyph-name="Racute" unicode="&#x154;" horiz-adv-x="607" 
d="M267 811c-29 -18 -49 -28 -110 -71l-4 6c45 44 91 89 121 121c41 43 100 106 135 146l56 -98c-29 -13 -136 -66 -198 -104zM270 0h-260c26 34 46 102 46 207v286c0 105 -20 173 -46 207h298c123 0 218 -26 218 -117c0 -75 -71 -106 -144 -148l89 -190
c38 -81 88 -178 131 -245h-237c0 42 -34 151 -66 223l-46 96c-48 -91 -33 -228 17 -319zM95 75c35 110 122 228 167 282c69 84 101 153 101 222c0 65 -19 108 -85 108c-37 0 -62 -24 -75 -92c-33 -174 -72 -347 -108 -520z" />
    <glyph glyph-name="racute" unicode="&#x155;" horiz-adv-x="422" 
d="M242 611c-29 -18 -49 -28 -110 -71l-4 6c45 44 91 89 121 121c41 43 100 106 135 146l56 -98c-29 -13 -136 -66 -198 -104zM8 413v4l196 91v-197c22 116 82 185 208 197l-31 -148c-66 14 -177 -2 -177 -108v-77c0 -100 24 -156 47 -175h-203l6 263c2 100 -30 139 -46 150
z" />
    <glyph glyph-name="uni0156" unicode="&#x156;" horiz-adv-x="607" 
d="M270 0h-260c26 34 46 102 46 207v286c0 105 -20 173 -46 207h298c123 0 218 -26 218 -117c0 -75 -71 -106 -144 -148l89 -190c38 -81 88 -178 131 -245h-237c0 42 -34 151 -66 223l-46 96c-48 -91 -33 -228 17 -319zM95 75c35 110 122 228 167 282c69 84 101 153 101 222
c0 65 -19 108 -85 108c-37 0 -62 -24 -75 -92c-33 -174 -72 -347 -108 -520zM219 -30c36 0 60 -28 60 -67c0 -68 -49 -138 -163 -134c68 9 106 34 106 54c0 17 -12 26 -30 32c-17 6 -36 22 -36 52c0 34 28 63 63 63z" />
    <glyph glyph-name="uni0157" unicode="&#x157;" horiz-adv-x="422" 
d="M8 413v4l196 91v-197c22 116 82 185 208 197l-31 -148c-66 14 -177 -2 -177 -108v-77c0 -100 24 -156 47 -175h-203l6 263c2 100 -30 139 -46 150zM128 -38c36 0 60 -28 60 -67c0 -68 -49 -138 -163 -134c68 9 106 34 106 54c0 17 -12 26 -30 32c-17 6 -36 22 -36 52
c0 34 28 63 63 63z" />
    <glyph glyph-name="Rcaron" unicode="&#x158;" horiz-adv-x="607" 
d="M42 1004l3 6c52 -52 127 -119 175 -149c48 30 125 97 175 149l3 -6c-71 -106 -125 -183 -178 -263c-52 80 -103 158 -178 263zM270 0h-260c26 34 46 102 46 207v286c0 105 -20 173 -46 207h298c123 0 218 -26 218 -117c0 -75 -71 -106 -144 -148l89 -190
c38 -81 88 -178 131 -245h-237c0 42 -34 151 -66 223l-46 96c-48 -91 -33 -228 17 -319zM95 75c35 110 122 228 167 282c69 84 101 153 101 222c0 65 -19 108 -85 108c-37 0 -62 -24 -75 -92c-33 -174 -72 -347 -108 -520z" />
    <glyph glyph-name="rcaron" unicode="&#x159;" horiz-adv-x="422" 
d="M17 804l3 6c52 -52 127 -119 175 -149c48 30 125 97 175 149l3 -6c-71 -106 -125 -183 -178 -263c-52 80 -103 158 -178 263zM8 413v4l196 91v-197c22 116 82 185 208 197l-31 -148c-66 14 -177 -2 -177 -108v-77c0 -100 24 -156 47 -175h-203l6 263
c2 100 -30 139 -46 150z" />
    <glyph glyph-name="Sacute" unicode="&#x15a;" horiz-adv-x="550" 
d="M320 811c-29 -18 -49 -28 -110 -71l-4 6c45 44 91 89 121 121c41 43 100 106 135 146l56 -98c-29 -13 -136 -66 -198 -104zM23 33l-17 272h2c98 -162 224 -286 334 -292c57 -3 101 32 101 90c0 80 -101 131 -211 189c-100 53 -201 110 -201 234c0 125 111 182 244 182
c99 0 173 -18 216 -38l22 -215h-2c-93 137 -199 233 -288 233c-49 0 -105 -20 -101 -80c3 -51 46 -82 188 -152c167 -82 231 -155 231 -261c0 -121 -98 -203 -233 -203c-134 0 -233 20 -285 41z" />
    <glyph glyph-name="sacute" unicode="&#x15b;" horiz-adv-x="462" 
d="M282 611c-29 -18 -49 -28 -110 -71l-4 6c45 44 91 89 121 121c41 43 100 106 135 146l56 -98c-29 -13 -136 -66 -198 -104zM442 139c-4 -102 -98 -147 -195 -147c-94 0 -175 15 -216 29l-11 185h2c64 -106 152 -193 230 -198c56 -4 92 18 87 63c-4 39 -56 66 -120 97
c-123 60 -192 102 -193 194c-1 106 96 151 213 146c65 -3 125 -17 159 -33l8 -165h-2c-36 101 -120 169 -193 181c-49 8 -80 -13 -80 -46c0 -41 37 -75 146 -123c112 -49 168 -97 165 -183z" />
    <glyph glyph-name="Scedilla" unicode="&#x15e;" horiz-adv-x="550" 
d="M279 -8l-5 -5c-9 -9 -12 -19 7 -19c69 0 98 -27 98 -64c0 -60 -98 -98 -158 -112l-1 5c42 9 86 49 86 89c0 26 -20 45 -50 45c-21 0 -35 -4 -53 -16l-4 4l69 74c-114 3 -198 21 -245 40l-17 272h2c98 -162 224 -286 334 -292c57 -3 101 32 101 90c0 80 -101 131 -211 189
c-100 53 -201 110 -201 234c0 125 111 182 244 182c99 0 173 -18 216 -38l22 -215h-2c-93 137 -199 233 -288 233c-49 0 -105 -20 -101 -80c3 -51 46 -82 188 -152c167 -82 231 -155 231 -261c0 -121 -98 -203 -233 -203h-29z" />
    <glyph glyph-name="scedilla" unicode="&#x15f;" horiz-adv-x="462" 
d="M277 322c112 -49 168 -97 165 -183c-4 -100 -93 -145 -188 -147l-5 -5c-9 -9 -12 -19 7 -19c69 0 98 -27 98 -64c0 -60 -98 -98 -158 -112l-1 5c42 9 86 49 86 89c0 26 -20 45 -50 45c-21 0 -35 -4 -53 -16l-4 4l68 73c-92 1 -171 15 -211 29l-11 185h2
c64 -106 152 -193 230 -198c56 -4 92 18 87 63c-4 39 -56 66 -120 97c-123 60 -192 102 -193 194c-1 106 96 151 213 146c65 -3 125 -17 159 -33l8 -165h-2c-36 101 -120 169 -193 181c-49 8 -80 -13 -80 -46c0 -41 37 -75 146 -123z" />
    <glyph glyph-name="Scaron" unicode="&#x160;" horiz-adv-x="550" 
d="M95 1004l3 6c52 -52 127 -119 175 -149c48 30 125 97 175 149l3 -6c-71 -106 -125 -183 -178 -263c-52 80 -103 158 -178 263zM23 33l-17 272h2c98 -162 224 -286 334 -292c57 -3 101 32 101 90c0 80 -101 131 -211 189c-100 53 -201 110 -201 234c0 125 111 182 244 182
c99 0 173 -18 216 -38l22 -215h-2c-93 137 -199 233 -288 233c-49 0 -105 -20 -101 -80c3 -51 46 -82 188 -152c167 -82 231 -155 231 -261c0 -121 -98 -203 -233 -203c-134 0 -233 20 -285 41z" />
    <glyph glyph-name="scaron" unicode="&#x161;" horiz-adv-x="462" 
d="M57 804l3 6c52 -52 127 -119 175 -149c48 30 125 97 175 149l3 -6c-71 -106 -125 -183 -178 -263c-52 80 -103 158 -178 263zM442 139c-4 -102 -98 -147 -195 -147c-94 0 -175 15 -216 29l-11 185h2c64 -106 152 -193 230 -198c56 -4 92 18 87 63c-4 39 -56 66 -120 97
c-123 60 -192 102 -193 194c-1 106 96 151 213 146c65 -3 125 -17 159 -33l8 -165h-2c-36 101 -120 169 -193 181c-49 8 -80 -13 -80 -46c0 -41 37 -75 146 -123c112 -49 168 -97 165 -183z" />
    <glyph glyph-name="uni0162" unicode="&#x162;" horiz-adv-x="566" 
d="M22 700h522l19 -170h-2c-52 87 -109 148 -146 154c-35 6 -52 -9 -52 -68v-409c0 -105 20 -173 46 -207h-119l-5 -5c-9 -9 -12 -19 7 -19c69 0 98 -27 98 -64c0 -60 -98 -98 -158 -112l-1 5c42 9 86 49 86 89c0 26 -20 45 -50 45c-21 0 -35 -4 -53 -16l-4 4l68 73h-121
c26 34 46 102 46 207v409c0 58 -16 74 -52 68c-45 -8 -105 -85 -146 -154h-2z" />
    <glyph glyph-name="uni0163" unicode="&#x163;" horiz-adv-x="285" 
d="M298 502v-9h-96v-300c0 -129 48 -175 96 -185v-8c-42 0 -87 4 -127 19l-31 -32c-8 -8 -8 -19 7 -19c69 0 98 -27 98 -64c0 -60 -98 -98 -158 -112l-1 5c42 9 86 49 86 89c0 26 -20 45 -50 45c-21 0 -35 -4 -53 -16l-4 4l97 103c-62 27 -110 84 -110 201v270h-60v9
c77 9 173 68 202 140h8v-140h96z" />
    <glyph glyph-name="Tcaron" unicode="&#x164;" horiz-adv-x="566" 
d="M106 1004l3 6c52 -52 127 -119 175 -149c48 30 125 97 175 149l3 -6c-71 -106 -125 -183 -178 -263c-52 80 -103 158 -178 263zM5 530h-2l19 170h522l19 -170h-2c-52 87 -109 148 -146 154c-35 6 -52 -9 -52 -68v-409c0 -105 20 -173 46 -207h-252c26 34 46 102 46 207
v409c0 58 -16 74 -52 68c-45 -8 -105 -85 -146 -154z" />
    <glyph glyph-name="tcaron" unicode="&#x165;" horiz-adv-x="303" 
d="M318 701h95c-38 -62 -59 -95 -83 -140s-42 -88 -53 -113h-7c10 46 20 90 25 117c8 41 16 87 23 136zM202 502h54v-9h-54v-300c0 -129 48 -175 96 -185v-8c-114 0 -246 28 -246 223v270h-60v9c77 9 173 68 202 140h8v-140z" />
    <glyph glyph-name="Tbar" unicode="&#x166;" horiz-adv-x="566" 
d="M415 684c-35 6 -52 -9 -52 -68v-242h130v-43c-45 10 -87 17 -130 21v-145c0 -105 20 -173 46 -207h-252c26 34 46 102 46 207v151l-134 1v15h134v242c0 58 -16 74 -52 68c-45 -8 -105 -85 -146 -154h-2l19 170h522l19 -170h-2c-52 87 -109 148 -146 154z" />
    <glyph glyph-name="tbar" unicode="&#x167;" horiz-adv-x="303" 
d="M298 502v-9h-96v-61h95v-36c-25 8 -57 14 -95 18v-221c0 -129 48 -175 96 -185v-8c-114 0 -246 28 -246 223v195h-58v14h58v61h-60v9c77 9 173 68 202 140h8v-140h96z" />
    <glyph glyph-name="Umacron" unicode="&#x16a;" horiz-adv-x="661" 
d="M342 781c68 0 119 7 136 7v-39c-17 0 -68 8 -136 8c-72 0 -119 -8 -136 -8v39c17 0 64 -7 136 -7zM8 700h252c-26 -34 -46 -102 -46 -207v-239c0 -172 44 -235 153 -235c137 0 188 125 188 278v148c0 156 -60 229 -101 255h199c-34 -26 -84 -99 -84 -255v-148
c0 -138 -31 -305 -231 -305c-123 0 -284 42 -284 305v196c0 105 -20 173 -46 207z" />
    <glyph glyph-name="umacron" unicode="&#x16b;" horiz-adv-x="567" 
d="M277 581c68 0 119 7 136 7v-39c-17 0 -68 8 -136 8c-72 0 -119 -8 -136 -8v39c17 0 64 -7 136 -7zM8 423v4l196 81v-307c0 -99 14 -155 77 -155c35 0 56 15 76 32l2 195c0 96 -30 139 -46 150v4l196 81v-333c0 -100 27 -156 50 -175h-203l1 54c-24 -25 -74 -62 -135 -62
c-100 0 -168 54 -168 196v85c0 96 -30 139 -46 150z" />
    <glyph glyph-name="Uring" unicode="&#x16e;" horiz-adv-x="661" 
d="M342 743c-47 0 -84 37 -84 84c0 46 37 83 84 83c46 0 83 -37 83 -83c0 -47 -37 -84 -83 -84zM342 757c36 0 69 30 69 69s-33 70 -69 70c-39 0 -70 -30 -70 -69s31 -70 70 -70zM8 700h252c-26 -34 -46 -102 -46 -207v-239c0 -172 44 -235 153 -235c137 0 188 125 188 278
v148c0 156 -60 229 -101 255h199c-34 -26 -84 -99 -84 -255v-148c0 -138 -31 -305 -231 -305c-123 0 -284 42 -284 305v196c0 105 -20 173 -46 207z" />
    <glyph glyph-name="uring" unicode="&#x16f;" horiz-adv-x="567" 
d="M277 543c-47 0 -84 37 -84 84c0 46 37 83 84 83c46 0 83 -37 83 -83c0 -47 -37 -84 -83 -84zM277 557c36 0 69 30 69 69s-33 70 -69 70c-39 0 -70 -30 -70 -69s31 -70 70 -70zM8 423v4l196 81v-307c0 -99 14 -155 77 -155c35 0 56 15 76 32l2 195c0 96 -30 139 -46 150v4
l196 81v-333c0 -100 27 -156 50 -175h-203l1 54c-24 -25 -74 -62 -135 -62c-100 0 -168 54 -168 196v85c0 96 -30 139 -46 150z" />
    <glyph glyph-name="Uhungarumlaut" unicode="&#x170;" horiz-adv-x="661" 
d="M248 740l-5 6c30 54 51 86 71 125c18 35 41 81 61 121l67 -58l-96 -93c-32 -31 -75 -73 -98 -101zM365 740l-5 6c38 49 78 100 103 136c23 32 52 73 77 110l59 -67c-42 -28 -96 -68 -133 -99c-26 -22 -67 -54 -101 -86zM8 700h252c-26 -34 -46 -102 -46 -207v-239
c0 -172 44 -235 153 -235c137 0 188 125 188 278v148c0 156 -60 229 -101 255h199c-34 -26 -84 -99 -84 -255v-148c0 -138 -31 -305 -231 -305c-123 0 -284 42 -284 305v196c0 105 -20 173 -46 207z" />
    <glyph glyph-name="uhungarumlaut" unicode="&#x171;" horiz-adv-x="567" 
d="M183 540l-5 6c30 54 51 86 71 125c18 35 41 81 61 121l67 -58l-96 -93c-32 -31 -75 -73 -98 -101zM300 540l-5 6c38 49 78 100 103 136c23 32 52 73 77 110l59 -67c-42 -28 -96 -68 -133 -99c-26 -22 -67 -54 -101 -86zM8 423v4l196 81v-307c0 -99 14 -155 77 -155
c35 0 56 15 76 32l2 195c0 96 -30 139 -46 150v4l196 81v-333c0 -100 27 -156 50 -175h-203l1 54c-24 -25 -74 -62 -135 -62c-100 0 -168 54 -168 196v85c0 96 -30 139 -46 150z" />
    <glyph glyph-name="Uogonek" unicode="&#x172;" horiz-adv-x="661" 
d="M454 700h199c-34 -26 -84 -99 -84 -255v-148c0 -118 -22 -256 -153 -295c-12 -4 -24 -8 -33 -13c-46 -21 -57 -70 -57 -94c0 -39 23 -56 45 -56s46 8 65 36l5 -3c-20 -36 -67 -79 -107 -79c-45 0 -75 32 -75 71c0 66 62 110 97 128h-18c-123 0 -284 42 -284 305v196
c0 105 -20 173 -46 207h252c-26 -34 -46 -102 -46 -207v-239c0 -172 44 -235 153 -235c137 0 188 125 188 278v148c0 156 -60 229 -101 255z" />
    <glyph glyph-name="uogonek" unicode="&#x173;" horiz-adv-x="567" 
d="M358 -161c22 0 46 8 65 36l5 -3c-20 -36 -67 -79 -107 -79c-45 0 -75 32 -75 71c0 78 86 125 113 136h-3l1 54c-24 -25 -74 -62 -135 -62c-100 0 -168 54 -168 196v85c0 96 -30 139 -46 150v4l196 81v-307c0 -99 14 -155 77 -155c35 0 56 15 76 32l2 195
c0 96 -30 139 -46 150v4l196 81v-333c0 -100 27 -156 50 -175h-181c-56 -36 -65 -80 -65 -105c0 -39 23 -56 45 -56z" />
    <glyph glyph-name="Wcircumflex" unicode="&#x174;" horiz-adv-x="980" 
d="M317 740l-3 6c75 105 126 183 178 263c53 -80 107 -157 178 -263l-3 -6c-50 52 -127 119 -175 149c-48 -30 -123 -97 -175 -149zM262 0l-259 700h199c-7 -29 1 -65 16 -105l158 -426c28 58 60 128 83 209l-119 322h199c-7 -29 1 -65 16 -105l158 -426
c62 124 136 311 118 531h146c-29 -42 -60 -118 -87 -187c-59 -150 -107 -250 -177 -377v-136h-114l-123 332c-30 -66 -62 -127 -100 -196v-136h-114z" />
    <glyph glyph-name="wcircumflex" unicode="&#x175;" horiz-adv-x="851" 
d="M250 540l-3 6c75 105 126 183 178 263c53 -80 107 -157 178 -263l-3 -6c-50 52 -127 119 -175 149c-48 -30 -123 -97 -175 -149zM4 496v4h219v-4c-3 -2 -8 -12 -8 -31c0 -17 4 -39 17 -72l100 -246l62 125c7 14 12 27 16 40l-17 42c-41 99 -67 134 -81 142v4h219v-4
c-3 -2 -8 -12 -8 -31c0 -17 4 -39 17 -72l100 -246l62 125c20 41 28 78 28 116c0 54 -16 91 -30 108v4h147v-4c-21 -26 -53 -67 -112 -186l-95 -191v-119h-101l-121 293l-86 -174v-119h-101l-146 354c-41 99 -67 134 -81 142z" />
    <glyph glyph-name="Ycircumflex" unicode="&#x176;" horiz-adv-x="651" 
d="M169 740l-3 6c75 105 126 183 178 263c53 -80 107 -157 178 -263l-3 -6c-50 52 -127 119 -175 149c-48 -30 -123 -97 -175 -149zM3 700h226c-2 -5 -4 -15 -4 -27c0 -15 3 -37 16 -64l164 -344c21 46 65 151 92 230c15 45 26 100 26 144c0 25 -2 47 -9 61h134
c-20 -23 -59 -62 -117 -191l-118 -261v-41c0 -105 17 -173 43 -207h-240c25 33 42 99 43 200l-201 421c-15 32 -32 62 -55 79z" />
    <glyph glyph-name="ycircumflex" unicode="&#x177;" horiz-adv-x="550" 
d="M134 540l-3 6c75 105 126 183 178 263c53 -80 107 -157 178 -263l-3 -6c-50 52 -127 119 -175 149c-48 -30 -123 -97 -175 -149zM5 -274v173c123 0 193 12 238 71l-158 384c-41 99 -67 134 -81 142v4h219v-4c-3 -2 -8 -12 -8 -31c0 -17 4 -39 17 -72l103 -254l66 133
c20 41 29 81 29 114c0 53 -18 93 -31 110v4h147v-4c-27 -31 -64 -90 -112 -186l-163 -327c-39 -79 -109 -214 -266 -257z" />
    <glyph glyph-name="Ydieresis" unicode="&#x178;" horiz-adv-x="651" 
d="M254 747c-39 0 -70 30 -70 68s31 70 70 70s68 -31 68 -70c0 -38 -29 -68 -68 -68zM432 747c-39 0 -70 30 -70 68s31 70 70 70s68 -32 68 -70s-29 -68 -68 -68zM3 700h226c-2 -5 -4 -15 -4 -27c0 -15 3 -37 16 -64l164 -344c21 46 65 151 92 230c15 45 26 100 26 144
c0 25 -2 47 -9 61h134c-20 -23 -59 -62 -117 -191l-118 -261v-41c0 -105 17 -173 43 -207h-240c25 33 42 99 43 200l-201 421c-15 32 -32 62 -55 79z" />
    <glyph glyph-name="Zacute" unicode="&#x179;" horiz-adv-x="643" 
d="M371 811c-29 -18 -49 -28 -110 -71l-4 6c45 44 91 89 121 121c41 43 100 106 135 146l56 -98c-29 -13 -136 -66 -198 -104zM618 214h2l-52 -214h-563c23 26 46 60 77 111l265 442c24 41 35 62 35 88c0 27 -22 45 -59 45c-87 0 -229 -120 -284 -190h-2l49 204h552
c-18 -12 -56 -76 -77 -111l-277 -462c-20 -34 -29 -58 -29 -79c0 -23 18 -34 49 -34h2c105 0 233 97 312 200z" />
    <glyph glyph-name="zacute" unicode="&#x17a;" horiz-adv-x="465" 
d="M282 611c-29 -18 -49 -28 -110 -71l-4 6c45 44 91 89 121 121c41 43 100 106 135 146l56 -98c-29 -13 -136 -66 -198 -104zM422 0h-407l257 492h-43c-92 0 -158 -56 -196 -149h-6l25 157h393l-255 -490h57c91 0 154 43 200 155h6z" />
    <glyph glyph-name="Zdotaccent" unicode="&#x17b;" horiz-adv-x="643" 
d="M323 757c-33 0 -58 25 -58 58c0 31 25 56 58 56c31 0 56 -25 56 -56c0 -33 -25 -58 -56 -58zM618 214h2l-52 -214h-563c23 26 46 60 77 111l265 442c24 41 35 62 35 88c0 27 -22 45 -59 45c-87 0 -229 -120 -284 -190h-2l49 204h552c-18 -12 -56 -76 -77 -111l-277 -462
c-20 -34 -29 -58 -29 -79c0 -23 18 -34 49 -34h2c105 0 233 97 312 200z" />
    <glyph glyph-name="zdotaccent" unicode="&#x17c;" horiz-adv-x="465" 
d="M234 557c-33 0 -58 25 -58 58c0 31 25 56 58 56c31 0 56 -25 56 -56c0 -33 -25 -58 -56 -58zM422 0h-407l257 492h-43c-92 0 -158 -56 -196 -149h-6l25 157h393l-255 -490h57c91 0 154 43 200 155h6z" />
    <glyph glyph-name="Zcaron" unicode="&#x17d;" horiz-adv-x="643" 
d="M146 1004l3 6c52 -52 127 -119 175 -149c48 30 125 97 175 149l3 -6c-71 -106 -125 -183 -178 -263c-52 80 -103 158 -178 263zM618 214h2l-52 -214h-563c23 26 46 60 77 111l265 442c24 41 35 62 35 88c0 27 -22 45 -59 45c-87 0 -229 -120 -284 -190h-2l49 204h552
c-18 -12 -56 -76 -77 -111l-277 -462c-20 -34 -29 -58 -29 -79c0 -23 18 -34 49 -34h2c105 0 233 97 312 200z" />
    <glyph glyph-name="zcaron" unicode="&#x17e;" horiz-adv-x="465" 
d="M57 804l3 6c52 -52 127 -119 175 -149c48 30 125 97 175 149l3 -6c-71 -106 -125 -183 -178 -263c-52 80 -103 158 -178 263zM422 0h-407l257 492h-43c-92 0 -158 -56 -196 -149h-6l25 157h393l-255 -490h57c91 0 154 43 200 155h6z" />
    <glyph glyph-name="uni0218" unicode="&#x218;" horiz-adv-x="550" 
d="M23 33l-17 272h2c98 -162 224 -286 334 -292c57 -3 101 32 101 90c0 80 -101 131 -211 189c-100 53 -201 110 -201 234c0 125 111 182 244 182c99 0 173 -18 216 -38l22 -215h-2c-93 137 -199 233 -288 233c-49 0 -105 -20 -101 -80c3 -51 46 -82 188 -152
c167 -82 231 -155 231 -261c0 -121 -98 -203 -233 -203c-134 0 -233 20 -285 41zM272 -38c36 0 60 -28 60 -67c0 -68 -49 -138 -163 -134c68 9 106 34 106 54c0 17 -12 26 -30 32c-17 6 -36 22 -36 52c0 34 28 63 63 63z" />
    <glyph glyph-name="uni0219" unicode="&#x219;" horiz-adv-x="462" 
d="M442 139c-4 -102 -98 -147 -195 -147c-94 0 -175 15 -216 29l-11 185h2c64 -106 152 -193 230 -198c56 -4 92 18 87 63c-4 39 -56 66 -120 97c-123 60 -192 102 -193 194c-1 106 96 151 213 146c65 -3 125 -17 159 -33l8 -165h-2c-36 101 -120 169 -193 181
c-49 8 -80 -13 -80 -46c0 -41 37 -75 146 -123c112 -49 168 -97 165 -183zM247 -38c36 0 60 -28 60 -67c0 -68 -49 -138 -163 -134c68 9 106 34 106 54c0 17 -12 26 -30 32c-17 6 -36 22 -36 52c0 34 28 63 63 63z" />
    <glyph glyph-name="uni021A" unicode="&#x21a;" horiz-adv-x="566" 
d="M5 530h-2l19 170h522l19 -170h-2c-52 87 -109 148 -146 154c-35 6 -52 -9 -52 -68v-409c0 -105 20 -173 46 -207h-252c26 34 46 102 46 207v409c0 58 -16 74 -52 68c-45 -8 -105 -85 -146 -154zM283 -30c36 0 60 -28 60 -67c0 -68 -49 -138 -163 -134c68 9 106 34 106 54
c0 17 -12 26 -30 32c-17 6 -36 22 -36 52c0 34 28 63 63 63z" />
    <glyph glyph-name="uni021B" unicode="&#x21b;" horiz-adv-x="303" 
d="M202 502h96v-9h-96v-300c0 -129 48 -175 96 -185v-8c-114 0 -246 28 -246 223v270h-60v9c77 9 173 68 202 140h8v-140zM179 -30c36 0 60 -28 60 -67c0 -68 -49 -138 -163 -134c68 9 106 34 106 54c0 17 -12 26 -30 32c-17 6 -36 22 -36 52c0 34 28 63 63 63z" />
    <glyph glyph-name="circumflex" unicode="&#x2c6;" horiz-adv-x="346" 
d="M0 532l-3 6c75 105 126 183 178 263c53 -80 107 -157 178 -263l-3 -6c-50 52 -127 119 -175 149c-48 -30 -123 -97 -175 -149z" />
    <glyph glyph-name="caron" unicode="&#x2c7;" horiz-adv-x="382" 
d="M14 796l3 6c52 -52 127 -119 175 -149c48 30 125 97 175 149l3 -6c-71 -106 -125 -183 -178 -263c-52 80 -103 158 -178 263z" />
    <glyph glyph-name="breve" unicode="&#x2d8;" horiz-adv-x="330" 
d="M303 701l7 -3c-32 -115 -82 -167 -145 -167s-113 52 -145 167l7 3c37 -98 99 -105 138 -105s101 7 138 105z" />
    <glyph glyph-name="dotaccent" unicode="&#x2d9;" horiz-adv-x="154" 
d="M78 549c-33 0 -58 25 -58 58c0 31 25 56 58 56c31 0 56 -25 56 -56c0 -33 -25 -58 -56 -58z" />
    <glyph glyph-name="ring" unicode="&#x2da;" horiz-adv-x="207" 
d="M104 543c-47 0 -84 37 -84 84c0 46 37 83 84 83c46 0 83 -37 83 -83c0 -47 -37 -84 -83 -84zM104 557c36 0 69 30 69 69s-33 70 -69 70c-39 0 -70 -30 -70 -69s31 -70 70 -70z" />
    <glyph glyph-name="ogonek" unicode="&#x2db;" horiz-adv-x="212" 
d="M192 106l5 -3c-20 -36 -67 -79 -107 -79c-45 0 -75 32 -75 71c0 78 86 125 113 136h64c-91 0 -110 -74 -110 -105c0 -39 23 -56 45 -56s46 8 65 36z" />
    <glyph glyph-name="tilde" unicode="&#x2dc;" horiz-adv-x="357" 
d="M329 659l4 -2c-21 -41 -59 -105 -107 -105c-46 0 -78 46 -126 46c-25 0 -56 -9 -76 -46l-4 2c21 41 59 105 107 105c46 0 78 -46 126 -46c25 0 56 9 76 46z" />
    <glyph glyph-name="hungarumlaut" unicode="&#x2dd;" horiz-adv-x="414" 
d="M43 532l-5 6c30 54 51 86 71 125c18 35 41 81 61 121l67 -58l-96 -93c-32 -31 -75 -73 -98 -101zM160 532l-5 6c38 49 78 100 103 136c23 32 52 73 77 110l59 -67c-42 -28 -96 -68 -133 -99c-26 -22 -67 -54 -101 -86z" />
    <glyph glyph-name="gravecomb" unicode="&#x300;" horiz-adv-x="0" 
d="M-134 603c-62 38 -169 91 -198 104l56 98c35 -40 94 -103 135 -146c30 -32 76 -77 121 -121l-4 -6c-61 43 -81 53 -110 71z" />
    <glyph glyph-name="acutecomb" unicode="&#x301;" horiz-adv-x="0" 
d="M-218 603c-29 -18 -49 -28 -110 -71l-4 6c45 44 91 89 121 121c41 43 100 106 135 146l56 -98c-29 -13 -136 -66 -198 -104z" />
    <glyph glyph-name="uni0302" unicode="&#x302;" horiz-adv-x="0" 
d="M-346 532l-3 6c75 105 126 183 178 263c53 -80 107 -157 178 -263l-3 -6c-50 52 -127 119 -175 149c-48 -30 -123 -97 -175 -149z" />
    <glyph glyph-name="tildecomb" unicode="&#x303;" horiz-adv-x="0" 
d="M-24 659l4 -2c-21 -41 -59 -105 -107 -105c-46 0 -78 46 -126 46c-25 0 -56 -9 -76 -46l-4 2c21 41 59 105 107 105c46 0 78 -46 126 -46c25 0 56 9 76 46z" />
    <glyph glyph-name="uni0304" unicode="&#x304;" horiz-adv-x="0" 
d="M-156 581c68 0 119 7 136 7v-39c-17 0 -68 8 -136 8c-72 0 -119 -8 -136 -8v39c17 0 64 -7 136 -7z" />
    <glyph glyph-name="uni0306" unicode="&#x306;" horiz-adv-x="0" 
d="M-27 701l7 -3c-32 -115 -82 -167 -145 -167s-113 52 -145 167l7 3c37 -98 99 -105 138 -105s101 7 138 105z" />
    <glyph glyph-name="uni0307" unicode="&#x307;" horiz-adv-x="0" 
d="M-76 549c-33 0 -58 25 -58 58c0 31 25 56 58 56c31 0 56 -25 56 -56c0 -33 -25 -58 -56 -58z" />
    <glyph glyph-name="uni0308" unicode="&#x308;" horiz-adv-x="0" 
d="M-261 539c-39 0 -70 30 -70 68s31 70 70 70s68 -31 68 -70c0 -38 -29 -68 -68 -68zM-83 539c-39 0 -70 30 -70 68s31 70 70 70s68 -32 68 -70s-29 -68 -68 -68z" />
    <glyph glyph-name="uni030A" unicode="&#x30a;" horiz-adv-x="0" 
d="M-103 543c-47 0 -84 37 -84 84c0 46 37 83 84 83c46 0 83 -37 83 -83c0 -47 -37 -84 -83 -84zM-103 557c36 0 69 30 69 69s-33 70 -69 70c-39 0 -70 -30 -70 -69s31 -70 70 -70z" />
    <glyph glyph-name="uni030B" unicode="&#x30b;" horiz-adv-x="0" 
d="M-371 532l-5 6c30 54 51 86 71 125c18 35 41 81 61 121l67 -58l-96 -93c-32 -31 -75 -73 -98 -101zM-254 532l-5 6c38 49 78 100 103 136c23 32 52 73 77 110l59 -67c-42 -28 -96 -68 -133 -99c-26 -22 -67 -54 -101 -86z" />
    <glyph glyph-name="uni030C" unicode="&#x30c;" horiz-adv-x="0" 
d="M-368 796l3 6c52 -52 127 -119 175 -149c48 30 125 97 175 149l3 -6c-71 -106 -125 -183 -178 -263c-52 80 -103 158 -178 263z" />
    <glyph glyph-name="uni0312" unicode="&#x312;" horiz-adv-x="0" 
d="M-123 452c-36 0 -60 28 -60 67c0 68 49 138 163 134c-68 -9 -106 -34 -106 -54c0 -17 12 -26 30 -32c17 -6 36 -22 36 -52c0 -34 -28 -63 -63 -63z" />
    <glyph glyph-name="uni0326" unicode="&#x326;" horiz-adv-x="0" 
d="M-80 -30c36 0 60 -28 60 -67c0 -68 -49 -138 -163 -134c68 9 106 34 106 54c0 17 -12 26 -30 32c-17 6 -36 22 -36 52c0 34 28 63 63 63z" />
    <glyph glyph-name="uni0327" unicode="&#x327;" horiz-adv-x="0" 
d="M-108 96c69 0 98 -27 98 -64c0 -60 -98 -98 -158 -112l-1 5c42 9 86 49 86 89c0 26 -20 45 -50 45c-21 0 -35 -4 -53 -16l-4 4l72 77h12l-9 -9c-9 -9 -12 -19 7 -19z" />
    <glyph glyph-name="uni0328" unicode="&#x328;" horiz-adv-x="0" 
d="M-20 106l5 -3c-20 -36 -67 -79 -107 -79c-45 0 -75 32 -75 71c0 78 86 125 113 136h64c-91 0 -110 -74 -110 -105c0 -39 23 -56 45 -56s46 8 65 36z" />
    <glyph glyph-name="Wgrave" unicode="&#x1e80;" horiz-adv-x="980" 
d="M442 811c-62 38 -169 91 -198 104l56 98c35 -40 94 -103 135 -146c30 -32 76 -77 121 -121l-4 -6c-61 43 -81 53 -110 71zM262 0l-259 700h199c-7 -29 1 -65 16 -105l158 -426c28 58 60 128 83 209l-119 322h199c-7 -29 1 -65 16 -105l158 -426c62 124 136 311 118 531
h146c-29 -42 -60 -118 -87 -187c-59 -150 -107 -250 -177 -377v-136h-114l-123 332c-30 -66 -62 -127 -100 -196v-136h-114z" />
    <glyph glyph-name="wgrave" unicode="&#x1e81;" horiz-adv-x="851" 
d="M375 611c-62 38 -169 91 -198 104l56 98c35 -40 94 -103 135 -146c30 -32 76 -77 121 -121l-4 -6c-61 43 -81 53 -110 71zM4 496v4h219v-4c-3 -2 -8 -12 -8 -31c0 -17 4 -39 17 -72l100 -246l62 125c7 14 12 27 16 40l-17 42c-41 99 -67 134 -81 142v4h219v-4
c-3 -2 -8 -12 -8 -31c0 -17 4 -39 17 -72l100 -246l62 125c20 41 28 78 28 116c0 54 -16 91 -30 108v4h147v-4c-21 -26 -53 -67 -112 -186l-95 -191v-119h-101l-121 293l-86 -174v-119h-101l-146 354c-41 99 -67 134 -81 142z" />
    <glyph glyph-name="Wacute" unicode="&#x1e82;" horiz-adv-x="980" 
d="M538 811c-29 -18 -49 -28 -110 -71l-4 6c45 44 91 89 121 121c41 43 100 106 135 146l56 -98c-29 -13 -136 -66 -198 -104zM262 0l-259 700h199c-7 -29 1 -65 16 -105l158 -426c28 58 60 128 83 209l-119 322h199c-7 -29 1 -65 16 -105l158 -426c62 124 136 311 118 531
h146c-29 -42 -60 -118 -87 -187c-59 -150 -107 -250 -177 -377v-136h-114l-123 332c-30 -66 -62 -127 -100 -196v-136h-114z" />
    <glyph glyph-name="wacute" unicode="&#x1e83;" horiz-adv-x="851" 
d="M471 611c-29 -18 -49 -28 -110 -71l-4 6c45 44 91 89 121 121c41 43 100 106 135 146l56 -98c-29 -13 -136 -66 -198 -104zM4 496v4h219v-4c-3 -2 -8 -12 -8 -31c0 -17 4 -39 17 -72l100 -246l62 125c7 14 12 27 16 40l-17 42c-41 99 -67 134 -81 142v4h219v-4
c-3 -2 -8 -12 -8 -31c0 -17 4 -39 17 -72l100 -246l62 125c20 41 28 78 28 116c0 54 -16 91 -30 108v4h147v-4c-21 -26 -53 -67 -112 -186l-95 -191v-119h-101l-121 293l-86 -174v-119h-101l-146 354c-41 99 -67 134 -81 142z" />
    <glyph glyph-name="Wdieresis" unicode="&#x1e84;" horiz-adv-x="980" 
d="M402 747c-39 0 -70 30 -70 68s31 70 70 70s68 -31 68 -70c0 -38 -29 -68 -68 -68zM580 747c-39 0 -70 30 -70 68s31 70 70 70s68 -32 68 -70s-29 -68 -68 -68zM262 0l-259 700h199c-7 -29 1 -65 16 -105l158 -426c28 58 60 128 83 209l-119 322h199c-7 -29 1 -65 16 -105
l158 -426c62 124 136 311 118 531h146c-29 -42 -60 -118 -87 -187c-59 -150 -107 -250 -177 -377v-136h-114l-123 332c-30 -66 -62 -127 -100 -196v-136h-114z" />
    <glyph glyph-name="wdieresis" unicode="&#x1e85;" horiz-adv-x="851" 
d="M335 547c-39 0 -70 30 -70 68s31 70 70 70s68 -31 68 -70c0 -38 -29 -68 -68 -68zM513 547c-39 0 -70 30 -70 68s31 70 70 70s68 -32 68 -70s-29 -68 -68 -68zM4 496v4h219v-4c-3 -2 -8 -12 -8 -31c0 -17 4 -39 17 -72l100 -246l62 125c7 14 12 27 16 40l-17 42
c-41 99 -67 134 -81 142v4h219v-4c-3 -2 -8 -12 -8 -31c0 -17 4 -39 17 -72l100 -246l62 125c20 41 28 78 28 116c0 54 -16 91 -30 108v4h147v-4c-21 -26 -53 -67 -112 -186l-95 -191v-119h-101l-121 293l-86 -174v-119h-101l-146 354c-41 99 -67 134 -81 142z" />
    <glyph glyph-name="uni1E9E" unicode="&#x1e9e;" horiz-adv-x="734" 
d="M10 700h420c136 0 181 -36 181 -88c0 -81 -153 -80 -196 -130c-10 -11 -14 -22 -14 -33c1 -45 77 -88 158 -131c90 -47 165 -93 165 -179c0 -102 -98 -147 -195 -147c-94 0 -175 15 -216 29l-11 185h6c65 -149 157 -204 229 -204c56 0 100 25 100 68c0 36 -42 55 -136 98
c-125 57 -192 100 -193 175c-1 69 78 128 103 150c34 31 66 67 66 106c0 57 -57 88 -113 88h-35c-90 0 -110 -50 -110 -153v-327c0 -157 45 -206 45 -206h-250s45 49 45 206v285c0 157 -49 208 -49 208z" />
    <glyph glyph-name="Ygrave" unicode="&#x1ef2;" horiz-adv-x="651" 
d="M294 811c-62 38 -169 91 -198 104l56 98c35 -40 94 -103 135 -146c30 -32 76 -77 121 -121l-4 -6c-61 43 -81 53 -110 71zM3 700h226c-2 -5 -4 -15 -4 -27c0 -15 3 -37 16 -64l164 -344c21 46 65 151 92 230c15 45 26 100 26 144c0 25 -2 47 -9 61h134
c-20 -23 -59 -62 -117 -191l-118 -261v-41c0 -105 17 -173 43 -207h-240c25 33 42 99 43 200l-201 421c-15 32 -32 62 -55 79z" />
    <glyph glyph-name="ygrave" unicode="&#x1ef3;" horiz-adv-x="550" 
d="M259 611c-62 38 -169 91 -198 104l56 98c35 -40 94 -103 135 -146c30 -32 76 -77 121 -121l-4 -6c-61 43 -81 53 -110 71zM5 -274v173c123 0 193 12 238 71l-158 384c-41 99 -67 134 -81 142v4h219v-4c-3 -2 -8 -12 -8 -31c0 -17 4 -39 17 -72l103 -254l66 133
c20 41 29 81 29 114c0 53 -18 93 -31 110v4h147v-4c-27 -31 -64 -90 -112 -186l-163 -327c-39 -79 -109 -214 -266 -257z" />
    <glyph glyph-name="endash" unicode="&#x2013;" horiz-adv-x="614" 
d="M307 292c220 0 227 12 257 12v-49c-30 0 -37 13 -257 13c-221 0 -226 -13 -257 -13v49c31 0 36 -12 257 -12z" />
    <glyph glyph-name="emdash" unicode="&#x2014;" horiz-adv-x="955" 
d="M478 292c366 0 378 12 427 12v-49c-49 0 -61 13 -427 13c-369 0 -377 -13 -428 -13v49c51 0 59 -12 428 -12z" />
    <glyph glyph-name="quoteleft" unicode="&#x2018;" horiz-adv-x="230" 
d="M184 742l2 -4c-34 -18 -129 -87 -116 -123c7 -20 28 -23 49 -24c59 -3 91 -37 91 -87c0 -53 -45 -91 -87 -91c-69 0 -103 60 -103 127c0 58 37 129 164 202z" />
    <glyph glyph-name="quoteright" unicode="&#x2019;" horiz-adv-x="230" 
d="M51 379l-2 4c34 18 129 87 116 123c-7 20 -28 23 -49 24c-59 3 -91 37 -91 87c0 53 45 91 87 91c69 0 103 -60 103 -127c0 -58 -37 -129 -164 -202z" />
    <glyph glyph-name="quotesinglbase" unicode="&#x201a;" horiz-adv-x="230" 
d="M116 163c52 0 89 -39 89 -109c0 -67 -42 -150 -232 -183v4c38 6 151 38 151 76c0 21 -18 32 -38 40c-29 11 -61 31 -61 81c0 49 40 91 91 91z" />
    <glyph glyph-name="quotedblleft" unicode="&#x201c;" horiz-adv-x="447" 
d="M184 742l2 -4c-34 -18 -129 -87 -116 -123c7 -20 28 -23 49 -24c59 -3 91 -37 91 -87c0 -53 -45 -91 -87 -91c-69 0 -103 60 -103 127c0 58 37 129 164 202zM401 742l2 -4c-34 -18 -129 -87 -116 -123c7 -20 28 -23 49 -24c59 -3 91 -37 91 -87c0 -53 -45 -91 -87 -91
c-69 0 -103 60 -103 127c0 58 37 129 164 202z" />
    <glyph glyph-name="quotedblright" unicode="&#x201d;" horiz-adv-x="447" 
d="M51 379l-2 4c34 18 129 87 116 123c-7 20 -28 23 -49 24c-59 3 -91 37 -91 87c0 53 45 91 87 91c69 0 103 -60 103 -127c0 -58 -37 -129 -164 -202zM268 379l-2 4c34 18 129 87 116 123c-7 20 -28 23 -49 24c-59 3 -91 37 -91 87c0 53 45 91 87 91c69 0 103 -60 103 -127
c0 -58 -37 -129 -164 -202z" />
    <glyph glyph-name="quotedblbase" unicode="&#x201e;" horiz-adv-x="457" 
d="M51 -166l-2 4c34 18 129 87 116 123c-7 20 -28 23 -49 24c-59 3 -91 37 -91 87c0 53 45 91 87 91c69 0 103 -60 103 -127c0 -58 -37 -129 -164 -202zM268 -166l-2 4c34 18 129 87 116 123c-7 20 -28 23 -49 24c-59 3 -91 37 -91 87c0 53 45 91 87 91
c69 0 103 -60 103 -127c0 -58 -37 -129 -164 -202z" />
    <glyph glyph-name="dagger" unicode="&#x2020;" 
d="M261 498l132 30c47 10 65 28 65 28v-133s-18 15 -65 27l-132 33l50 -242l-54 -241h-12l-54 241l56 242l-132 -33c-47 -12 -65 -27 -65 -27v133s18 -18 65 -28l132 -30l-30 137c-10 47 -25 65 -25 65h130s-15 -18 -27 -65z" />
    <glyph glyph-name="daggerdbl" unicode="&#x2021;" 
d="M458 556v-133s-18 15 -65 27l-132 33l11 -48l21 -85c-1 -4 -9 -32 -21 -85l-11 -48l132 33c47 12 65 27 65 27v-133s-18 18 -65 28l-132 30l34 -137c12 -47 27 -65 27 -65h-130s15 18 25 65l30 137l-132 -30c-47 -10 -65 -28 -65 -28v133s18 -15 65 -27l132 -33l-15 48
c-17 53 -20 80 -21 85c1 4 4 32 21 85l15 48l-132 -33c-47 -12 -65 -27 -65 -27v133s18 -18 65 -28l132 -30l-30 137c-10 47 -25 65 -25 65h130s-15 -18 -27 -65l-34 -137l132 30c47 10 65 28 65 28z" />
    <glyph glyph-name="bullet" unicode="&#x2022;" horiz-adv-x="178" 
d="M90 217c-38 0 -68 29 -68 66s30 68 68 68s66 -31 66 -68s-28 -66 -66 -66z" />
    <glyph glyph-name="ellipsis" unicode="&#x2026;" horiz-adv-x="680" 
d="M25 72c0 49 40 91 91 91c52 0 89 -42 89 -91c0 -50 -37 -89 -89 -89c-51 0 -91 39 -91 89zM250 72c0 49 40 91 91 91c52 0 89 -42 89 -91c0 -50 -37 -89 -89 -89c-51 0 -91 39 -91 89zM475 72c0 49 40 91 91 91c52 0 89 -42 89 -91c0 -50 -37 -89 -89 -89
c-51 0 -91 39 -91 89z" />
    <glyph glyph-name="perthousand" unicode="&#x2030;" horiz-adv-x="1059" 
d="M35 425c0 93 86 171 164 171c88 0 155 -78 155 -171c0 -95 -86 -171 -164 -171c-88 0 -155 79 -155 171zM133 0l-54 24c66 69 200 196 265 269c138 157 174 201 230 294l54 -24c-66 -69 -200 -196 -265 -269c-138 -157 -174 -201 -230 -294zM116 502
c0 -78 57 -228 119 -228c21 0 38 16 38 74c0 78 -57 228 -119 228c-21 0 -38 -16 -38 -74zM354 163c0 95 86 171 164 171c88 0 155 -79 155 -171c0 -95 -86 -171 -164 -171c-88 0 -155 79 -155 171zM705 163c0 95 86 171 164 171c88 0 155 -79 155 -171
c0 -95 -86 -171 -164 -171c-88 0 -155 79 -155 171zM435 240c0 -78 57 -228 119 -228c21 0 38 16 38 74c0 78 -57 228 -119 228c-21 0 -38 -16 -38 -74zM786 240c0 -78 57 -228 119 -228c21 0 38 16 38 74c0 78 -57 228 -119 228c-21 0 -38 -16 -38 -74z" />
    <glyph glyph-name="guilsinglleft" unicode="&#x2039;" horiz-adv-x="264" 
d="M224 425h10c-35 -39 -76 -105 -123 -177c47 -72 88 -138 123 -177h-10c-32 30 -78 67 -107 93c-32 28 -70 62 -97 84c27 22 65 56 97 84c29 26 75 63 107 93z" />
    <glyph glyph-name="guilsinglright" unicode="&#x203a;" horiz-adv-x="264" 
d="M244 248c-27 -22 -65 -56 -97 -84c-29 -26 -75 -63 -107 -93h-10c35 39 76 105 123 177c-47 72 -88 138 -123 177h10c32 -30 78 -67 107 -93c32 -28 70 -62 97 -84z" />
    <glyph glyph-name="Euro" unicode="&#x20ac;" horiz-adv-x="710" 
d="M49 281h-74v12h73c-1 13 -2 25 -2 38c0 20 1 39 3 57h-74v12l76 1c34 221 231 307 400 307c62 0 164 -13 217 -40l10 -239h-2c-41 133 -87 267 -225 267c-122 0 -216 -117 -236 -291c149 7 241 18 256 18v-55c-16 0 -108 10 -258 15c-1 -15 -2 -30 -2 -46
c0 -13 1 -26 2 -39c151 7 243 18 258 18v-55c-16 0 -107 9 -256 15c22 -174 139 -272 245 -272c104 0 195 134 218 276h2v-233c-53 -27 -108 -55 -220 -55c-186 0 -383 84 -411 289z" />
    <glyph glyph-name="trademark" unicode="&#x2122;" horiz-adv-x="826" 
d="M12 555h-2l18 145h303l18 -145h-2c-18 70 -46 138 -113 138v-262c0 -88 24 -115 24 -115h-157s25 27 25 115v262c-68 0 -96 -68 -114 -138zM442 316h-90s26 54 33 183l7 126l-29 75h116l111 -283l102 283h115c-10 -7 -20 -15 -30 -23l13 -248c4 -81 26 -113 26 -113h-154
c16 24 22 67 20 113l-8 145c-23 -33 -45 -73 -56 -102l-28 -76v-80h-76l-114 290l-6 -88c-9 -136 48 -202 48 -202z" />
    <glyph glyph-name="arrowleft" unicode="&#x2190;" horiz-adv-x="599" 
d="M271 79l-231 245l231 246l33 -33c-49 -34 -118 -92 -172 -138c-32 -27 -58 -53 -75 -69h75c172 0 308 11 427 28v-68c-118 17 -255 28 -427 28h-75c17 -16 43 -39 75 -67c52 -46 123 -106 172 -140z" />
    <glyph glyph-name="arrowup" unicode="&#x2191;" horiz-adv-x="571" 
d="M40 359l245 231l246 -231l-33 -33c-34 49 -92 118 -138 172c-27 32 -53 58 -69 75v-75c0 -172 11 -308 28 -427h-68c17 118 28 255 28 427v75c-16 -17 -39 -43 -67 -75c-46 -52 -106 -123 -140 -172z" />
    <glyph glyph-name="arrowright" unicode="&#x2192;" horiz-adv-x="599" 
d="M328 570l231 -246l-231 -245l-33 32c49 34 120 94 172 140c32 28 58 51 75 67h-75c-172 0 -309 -11 -427 -28v68c119 -17 255 -28 427 -28h75c-17 16 -43 42 -75 69c-54 46 -123 104 -172 138z" />
    <glyph glyph-name="arrowdown" unicode="&#x2193;" horiz-adv-x="571" 
d="M285 35l-245 231l32 33c34 -49 94 -120 140 -172c28 -32 51 -58 67 -75v75c0 172 -11 309 -28 427h68c-17 -119 -28 -255 -28 -427v-75c16 17 42 43 69 75c46 54 104 123 138 172l33 -33z" />
    <glyph glyph-name="arrowboth" unicode="&#x2194;" horiz-adv-x="867" 
d="M271 81l-231 245l231 246l33 -33c-49 -34 -118 -92 -172 -138c-32 -27 -58 -53 -75 -69c126 0 251 2 377 3c125 -1 251 -3 376 -3c-17 16 -43 42 -75 69c-54 46 -123 104 -172 138l33 33l231 -246l-231 -245l-33 32c49 34 120 94 172 140c32 28 58 51 75 67
c-125 0 -251 -2 -376 -3c-126 1 -251 3 -377 3c17 -16 43 -39 75 -67c52 -46 123 -106 172 -140z" />
    <glyph glyph-name="arrowupdn" unicode="&#x2195;" horiz-adv-x="571" 
d="M40 540l245 231l246 -231l-33 -33c-34 49 -92 118 -138 172c-27 32 -53 58 -69 75c0 -126 2 -251 3 -377c-1 -125 -3 -251 -3 -376c16 17 42 43 69 75c46 54 104 123 138 172l33 -33l-246 -231l-245 231l32 33c34 -49 94 -120 140 -172c28 -32 51 -58 67 -75
c0 125 -2 251 -3 376c1 126 3 251 3 377c-16 -17 -39 -43 -67 -75c-46 -52 -106 -123 -140 -172z" />
    <glyph glyph-name="uni2196" unicode="&#x2196;" horiz-adv-x="481" 
d="M40 242l10 337l337 10v-46c-59 10 -149 18 -219 24c-42 3 -79 3 -102 4l53 -53c122 -122 226 -210 322 -282l-48 -48c-72 95 -161 200 -283 321l-53 53c1 -23 3 -58 6 -100c4 -69 12 -162 23 -221z" />
    <glyph glyph-name="uni2197" unicode="&#x2197;" horiz-adv-x="481" 
d="M94 589l337 -10l10 -337l-46 -1c11 59 19 152 23 221c3 42 5 77 6 100l-53 -53c-122 -121 -211 -226 -283 -321l-48 48c96 72 200 160 322 282l53 53c-23 -1 -60 -1 -102 -4c-70 -6 -160 -14 -219 -24v46z" />
    <glyph glyph-name="uni2198" unicode="&#x2198;" horiz-adv-x="481" 
d="M441 396l-10 -337l-337 -10v46c59 -10 149 -18 219 -24c42 -3 79 -3 102 -4l-53 53c-122 122 -226 210 -322 282l48 48c72 -95 161 -200 283 -321l53 -53c-1 23 -3 58 -6 100c-4 69 -12 162 -23 221z" />
    <glyph glyph-name="uni2199" unicode="&#x2199;" horiz-adv-x="481" 
d="M387 49l-337 10l-10 337l46 1c-11 -59 -19 -152 -23 -221c-3 -42 -5 -77 -6 -100l53 53c122 121 211 226 283 321l48 -48c-96 -72 -200 -160 -322 -282l-53 -53c23 1 60 1 102 4c70 6 160 14 219 24v-46z" />
    <glyph glyph-name="partialdiff" unicode="&#x2202;" horiz-adv-x="544" 
d="M15 207c0 128 105 204 222 204c76 0 115 -40 139 -74c-3 195 -37 274 -123 275c-88 1 -187 -150 -233 -217l49 200c39 12 130 30 174 30c165 0 286 -144 286 -295c0 -194 -152 -337 -288 -337c-147 0 -226 96 -226 214zM147 155c0 -100 32 -153 94 -153
c80 0 135 128 135 311c-23 45 -67 83 -110 83c-70 0 -119 -104 -119 -241z" />
    <glyph glyph-name="emptyset" unicode="&#x2205;" horiz-adv-x="777" 
d="M643 602c64 -64 104 -153 104 -251c0 -198 -161 -359 -358 -359c-87 0 -166 30 -228 81c-27 -36 -55 -72 -85 -111l-41 34l99 102c-64 65 -104 154 -104 253c0 197 160 357 359 357c86 0 165 -30 226 -81c29 37 58 75 89 114l40 -34zM44 351c0 -95 38 -181 99 -243
c80 82 160 164 240 247c98 101 162 181 224 261c-59 49 -135 78 -218 78c-190 0 -345 -154 -345 -343zM387 6c190 0 346 155 346 345c0 94 -38 179 -100 242l-238 -246c-99 -102 -163 -182 -225 -263c59 -49 134 -78 217 -78z" />
    <glyph glyph-name="product" unicode="&#x220f;" horiz-adv-x="600" 
d="M545 493v-445c0 -158 46 -207 46 -207h-252s46 49 46 207v445c0 118 -12 190 -84 191c-72 -1 -84 -73 -84 -191v-445c0 -158 46 -207 46 -207h-252s46 49 46 207v445c0 158 -46 207 -46 207h580s-46 -49 -46 -207z" />
    <glyph glyph-name="summation" unicode="&#x2211;" horiz-adv-x="639" 
d="M536 -159h-526c17 24 38 57 77 111l208 290l-208 347c-21 35 -59 99 -77 111h542l77 -280h-2c-60 183 -151 267 -279 267c-89 0 -106 -33 -47 -134l105 -179l-290 -406c-55 -77 -24 -113 27 -113h157c102 0 229 103 311 266h2z" />
    <glyph glyph-name="minus" unicode="&#x2212;" horiz-adv-x="532" 
d="M266 320c172 0 186 8 216 9v-34c-30 1 -44 9 -216 9s-186 -8 -216 -9v34c30 -1 44 -9 216 -9z" />
    <glyph glyph-name="radical" unicode="&#x221a;" horiz-adv-x="561" 
d="M487 727l54 -22c-16 -33 -88 -158 -215 -444l-115 -261h-10l-110 267c-42 102 -61 107 -61 107v3h151v-3c-2 -1 -7 -9 -7 -23c0 -13 0 -26 32 -100l48 -112l19 42c51 112 166 409 214 546z" />
    <glyph glyph-name="infinity" unicode="&#x221e;" horiz-adv-x="558" 
d="M384 392c91 0 144 -57 144 -130c0 -76 -50 -129 -126 -129c-68 0 -114 44 -160 112c-67 107 -79 138 -113 138c-20 0 -31 -15 -31 -49c0 -68 41 -192 98 -192c22 0 50 20 63 34l5 -4c-11 -11 -43 -39 -90 -39c-90 0 -144 56 -144 129c1 77 51 130 125 130
c72 0 117 -37 174 -132c27 -48 64 -118 101 -118c19 0 31 14 31 49c0 67 -42 192 -99 192c-22 0 -50 -21 -63 -34l-5 3c11 11 43 40 90 40z" />
    <glyph glyph-name="integral" unicode="&#x222b;" horiz-adv-x="684" 
d="M457 708c74 0 123 -61 222 -55v-169c-18 11 -29 18 -47 36c-48 48 -129 174 -169 174c-43 0 -46 -82 -46 -135v-377c0 -224 -101 -276 -190 -276c-74 0 -123 61 -222 55v169c18 -11 29 -18 47 -36c48 -48 129 -174 169 -174c43 0 46 82 46 135v377c0 224 101 276 190 276
z" />
    <glyph glyph-name="approxequal" unicode="&#x2248;" horiz-adv-x="532" 
d="M50 355v34c14 15 57 56 105 56c39 0 74 -30 111 -54c34 -22 68 -40 111 -40c47 0 94 49 105 63v-34c-14 -15 -57 -56 -105 -56c-39 0 -72 31 -111 54c-36 21 -68 40 -111 40c-47 0 -94 -49 -105 -63zM50 223v34c14 15 57 56 105 56c39 0 74 -30 111 -54
c34 -22 68 -40 111 -40c47 0 94 49 105 63v-34c-14 -15 -57 -56 -105 -56c-39 0 -72 31 -111 54c-36 21 -68 40 -111 40c-47 0 -94 -49 -105 -63z" />
    <glyph glyph-name="notequal" unicode="&#x2260;" horiz-adv-x="540" 
d="M92 74l-42 19c29 33 86 88 139 142c-97 -2 -111 -7 -135 -8v34c26 -1 40 -7 152 -9c16 18 32 35 46 51c20 23 39 45 58 68h-40c-172 0 -186 -8 -216 -9v34c30 -1 44 -9 216 -9h53c51 63 95 122 123 167l44 -18c-22 -24 -84 -88 -141 -148c99 2 112 7 137 8v-34
c-26 1 -40 7 -153 9c-27 -29 -52 -56 -70 -76l-37 -43h44c172 0 186 8 216 9v-34c-30 1 -44 9 -216 9h-58c-62 -73 -93 -116 -120 -162z" />
    <glyph glyph-name="lessequal" unicode="&#x2264;" horiz-adv-x="460" 
d="M396 531l14 -31c-28 -12 -44 -11 -200 -83c-73 -34 -114 -55 -139 -69c25 -14 66 -35 139 -69c156 -73 172 -71 200 -83l-14 -31c-27 14 -36 27 -192 100c-84 40 -128 64 -154 73v20c26 10 70 34 154 73c156 72 165 86 192 100zM226 85c138 0 152 8 182 9v-34
c-30 1 -44 9 -182 9c-127 0 -141 -8 -171 -9v34c30 -1 44 -9 171 -9z" />
    <glyph glyph-name="greaterequal" unicode="&#x2265;" horiz-adv-x="460" 
d="M50 500l14 31c27 -14 36 -28 192 -100c84 -39 128 -63 154 -73v-20c-26 -9 -70 -33 -154 -73c-156 -73 -165 -86 -192 -100l-14 31c28 12 44 10 200 83c73 34 114 55 139 69c-25 14 -66 35 -139 69c-156 72 -172 71 -200 83zM237 85c127 0 141 8 171 9v-34
c-30 1 -44 9 -171 9c-138 0 -152 -8 -182 -9v34c30 -1 44 -9 182 -9z" />
    <glyph glyph-name="lozenge" unicode="&#x25ca;" horiz-adv-x="344" 
d="M170 502h4l150 -232l-150 -232h-4l-150 232zM172 52c5 2 43 80 108 218c-65 139 -103 216 -108 218c0 -1 -41 -79 -108 -218c67 -138 108 -217 108 -218z" />
    <glyph glyph-name="K.ss01" horiz-adv-x="653" 
d="M273 0h-263c35 42 46 120 46 207v286c0 79 -14 169 -46 207h158c40 -34 107 -135 146 -198c58 86 94 149 97 198h214c-92 -40 -181 -127 -295 -223c112 -172 199 -341 318 -477h-239c-1 141 -72 454 -193 623v-388c0 -115 27 -180 57 -235z" />
    <glyph glyph-name="a.ss01" 
d="M12 101c0 84 79 132 167 184c57 35 108 85 108 154c0 34 -15 48 -42 48c-95 0 -176 -201 -205 -263h-4v188c126 76 214 96 282 96c67 0 124 -11 124 -64c0 -34 -24 -51 -54 -66v-14c0 -55 9 -219 118 -364h-140l6 275c-8 -48 -20 -99 -40 -145
c-33 -77 -90 -138 -192 -138c-78 0 -128 36 -128 109zM147 182c1 -32 25 -55 57 -55c55 0 99 36 129 88c26 45 42 101 46 159c-40 -19 -97 -45 -142 -69c-54 -28 -90 -61 -90 -123z" />
    <glyph glyph-name="aacute.ss01" 
d="M327 611c-29 -18 -49 -28 -110 -71l-4 6c45 44 91 89 121 121c41 43 100 106 135 146l56 -98c-29 -13 -136 -66 -198 -104zM12 101c0 84 79 132 167 184c57 35 108 85 108 154c0 34 -15 48 -42 48c-95 0 -176 -201 -205 -263h-4v188c126 76 214 96 282 96
c67 0 124 -11 124 -64c0 -34 -24 -51 -54 -66v-14c0 -55 9 -219 118 -364h-140l6 275c-8 -48 -20 -99 -40 -145c-33 -77 -90 -138 -192 -138c-78 0 -128 36 -128 109zM147 182c1 -32 25 -55 57 -55c55 0 99 36 129 88c26 45 42 101 46 159c-40 -19 -97 -45 -142 -69
c-54 -28 -90 -61 -90 -123z" />
    <glyph glyph-name="abreve.ss01" 
d="M417 709l7 -3c-32 -115 -82 -167 -145 -167s-113 52 -145 167l7 3c37 -98 99 -105 138 -105s101 7 138 105zM12 101c0 84 79 132 167 184c57 35 108 85 108 154c0 34 -15 48 -42 48c-95 0 -176 -201 -205 -263h-4v188c126 76 214 96 282 96c67 0 124 -11 124 -64
c0 -34 -24 -51 -54 -66v-14c0 -55 9 -219 118 -364h-140l6 275c-8 -48 -20 -99 -40 -145c-33 -77 -90 -138 -192 -138c-78 0 -128 36 -128 109zM147 182c1 -32 25 -55 57 -55c55 0 99 36 129 88c26 45 42 101 46 159c-40 -19 -97 -45 -142 -69c-54 -28 -90 -61 -90 -123z
" />
    <glyph glyph-name="acircumflex.ss01" 
d="M106 540l-3 6c75 105 126 183 178 263c53 -80 107 -157 178 -263l-3 -6c-50 52 -127 119 -175 149c-48 -30 -123 -97 -175 -149zM12 101c0 84 79 132 167 184c57 35 108 85 108 154c0 34 -15 48 -42 48c-95 0 -176 -201 -205 -263h-4v188c126 76 214 96 282 96
c67 0 124 -11 124 -64c0 -34 -24 -51 -54 -66v-14c0 -55 9 -219 118 -364h-140l6 275c-8 -48 -20 -99 -40 -145c-33 -77 -90 -138 -192 -138c-78 0 -128 36 -128 109zM147 182c1 -32 25 -55 57 -55c55 0 99 36 129 88c26 45 42 101 46 159c-40 -19 -97 -45 -142 -69
c-54 -28 -90 -61 -90 -123z" />
    <glyph glyph-name="adieresis.ss01" 
d="M191 547c-39 0 -70 30 -70 68s31 70 70 70s68 -31 68 -70c0 -38 -29 -68 -68 -68zM369 547c-39 0 -70 30 -70 68s31 70 70 70s68 -32 68 -70s-29 -68 -68 -68zM12 101c0 84 79 132 167 184c57 35 108 85 108 154c0 34 -15 48 -42 48c-95 0 -176 -201 -205 -263h-4v188
c126 76 214 96 282 96c67 0 124 -11 124 -64c0 -34 -24 -51 -54 -66v-14c0 -55 9 -219 118 -364h-140l6 275c-8 -48 -20 -99 -40 -145c-33 -77 -90 -138 -192 -138c-78 0 -128 36 -128 109zM147 182c1 -32 25 -55 57 -55c55 0 99 36 129 88c26 45 42 101 46 159
c-40 -19 -97 -45 -142 -69c-54 -28 -90 -61 -90 -123z" />
    <glyph glyph-name="agrave.ss01" 
d="M231 611c-62 38 -169 91 -198 104l56 98c35 -40 94 -103 135 -146c30 -32 76 -77 121 -121l-4 -6c-61 43 -81 53 -110 71zM12 101c0 84 79 132 167 184c57 35 108 85 108 154c0 34 -15 48 -42 48c-95 0 -176 -201 -205 -263h-4v188c126 76 214 96 282 96
c67 0 124 -11 124 -64c0 -34 -24 -51 -54 -66v-14c0 -55 9 -219 118 -364h-140l6 275c-8 -48 -20 -99 -40 -145c-33 -77 -90 -138 -192 -138c-78 0 -128 36 -128 109zM147 182c1 -32 25 -55 57 -55c55 0 99 36 129 88c26 45 42 101 46 159c-40 -19 -97 -45 -142 -69
c-54 -28 -90 -61 -90 -123z" />
    <glyph glyph-name="amacron.ss01" 
d="M279 581c68 0 119 7 136 7v-39c-17 0 -68 8 -136 8c-72 0 -119 -8 -136 -8v39c17 0 64 -7 136 -7zM12 101c0 84 79 132 167 184c57 35 108 85 108 154c0 34 -15 48 -42 48c-95 0 -176 -201 -205 -263h-4v188c126 76 214 96 282 96c67 0 124 -11 124 -64
c0 -34 -24 -51 -54 -66v-14c0 -55 9 -219 118 -364h-140l6 275c-8 -48 -20 -99 -40 -145c-33 -77 -90 -138 -192 -138c-78 0 -128 36 -128 109zM147 182c1 -32 25 -55 57 -55c55 0 99 36 129 88c26 45 42 101 46 159c-40 -19 -97 -45 -142 -69c-54 -28 -90 -61 -90 -123z
" />
    <glyph glyph-name="aogonek.ss01" 
d="M365 -161c22 0 46 8 65 36l5 -3c-20 -36 -67 -79 -107 -79c-45 0 -75 32 -75 71c0 78 86 125 113 136l6 275c-8 -48 -20 -99 -40 -145c-33 -77 -90 -138 -192 -138c-78 0 -128 36 -128 109c0 84 79 132 167 184c57 35 108 85 108 154c0 34 -15 48 -42 48
c-95 0 -176 -201 -205 -263h-4v188c126 76 214 96 282 96c67 0 124 -11 124 -64c0 -34 -24 -51 -54 -66v-14c0 -55 9 -219 118 -364h-76c-91 0 -110 -74 -110 -105c0 -39 23 -56 45 -56zM333 215c26 45 42 101 46 159c-40 -19 -97 -45 -142 -69c-54 -28 -90 -61 -90 -123
c1 -32 25 -55 57 -55c55 0 99 36 129 88z" />
    <glyph glyph-name="aring.ss01" 
d="M279 543c-47 0 -84 37 -84 84c0 46 37 83 84 83c46 0 83 -37 83 -83c0 -47 -37 -84 -83 -84zM279 557c36 0 69 30 69 69s-33 70 -69 70c-39 0 -70 -30 -70 -69s31 -70 70 -70zM12 101c0 84 79 132 167 184c57 35 108 85 108 154c0 34 -15 48 -42 48
c-95 0 -176 -201 -205 -263h-4v188c126 76 214 96 282 96c67 0 124 -11 124 -64c0 -34 -24 -51 -54 -66v-14c0 -55 9 -219 118 -364h-140l6 275c-8 -48 -20 -99 -40 -145c-33 -77 -90 -138 -192 -138c-78 0 -128 36 -128 109zM147 182c1 -32 25 -55 57 -55
c55 0 99 36 129 88c26 45 42 101 46 159c-40 -19 -97 -45 -142 -69c-54 -28 -90 -61 -90 -123z" />
    <glyph glyph-name="atilde.ss01" 
d="M419 667l4 -2c-21 -41 -59 -105 -107 -105c-46 0 -78 46 -126 46c-25 0 -56 -9 -76 -46l-4 2c21 41 59 105 107 105c46 0 78 -46 126 -46c25 0 56 9 76 46zM12 101c0 84 79 132 167 184c57 35 108 85 108 154c0 34 -15 48 -42 48c-95 0 -176 -201 -205 -263h-4v188
c126 76 214 96 282 96c67 0 124 -11 124 -64c0 -34 -24 -51 -54 -66v-14c0 -55 9 -219 118 -364h-140l6 275c-8 -48 -20 -99 -40 -145c-33 -77 -90 -138 -192 -138c-78 0 -128 36 -128 109zM147 182c1 -32 25 -55 57 -55c55 0 99 36 129 88c26 45 42 101 46 159
c-40 -19 -97 -45 -142 -69c-54 -28 -90 -61 -90 -123z" />
    <glyph glyph-name="ae.ss01" horiz-adv-x="831" 
d="M12 99c0 75 59 126 153 176c116 63 145 95 145 148c0 41 -20 67 -53 67c-94 0 -187 -204 -217 -265h-3v187c126 75 213 96 281 96c49 0 99 -8 114 -43c42 28 92 43 146 43c98 0 202 -58 202 -192h-313c0 -7 -1 -14 -1 -21c0 -111 87 -184 196 -184c81 0 145 49 159 134h2
c-2 -134 -100 -253 -243 -253c-110 0 -201 61 -240 153c-29 -84 -84 -153 -199 -153c-78 0 -129 43 -129 107zM467 325h51c96 0 139 32 139 104c0 32 -21 65 -65 65c-73 0 -117 -79 -125 -169zM138 171c0 -38 30 -58 67 -58c55 0 94 30 121 76c-5 19 -7 39 -7 59
c0 37 7 72 20 103c-33 -14 -69 -29 -102 -48c-83 -49 -99 -95 -99 -132z" />
    <glyph glyph-name="f.ss01" horiz-adv-x="402" 
d="M0 500v10c139 -43 197 -54 245 -66c-69 44 -245 108 -245 186c0 60 60 78 107 78c37 0 83 -8 130 -31c56 -28 118 -48 155 -52v-145c-24 18 -45 35 -63 51c-106 95 -124 159 -168 159c-14 0 -23 -13 -23 -34c0 -97 140 -218 254 -251v-9l-103 31v-252
c0 -100 24 -156 47 -175h-203l6 291c3 122 -59 183 -139 209z" />
    <glyph glyph-name="h.ss01" horiz-adv-x="561" 
d="M8 600v4l196 96v-277c15 24 70 85 148 85c99 0 158 -54 158 -196v-110c0 -108 17 -181 45 -202h-201l6 299c2 118 -19 171 -71 171c-35 0 -71 -39 -85 -63v-232c0 -100 24 -156 47 -175h-203l6 450c1 100 -30 139 -46 150z" />
    <glyph glyph-name="hbar.ss01" horiz-adv-x="561" 
d="M555 0h-201l6 299c2 118 -19 171 -71 171c-35 0 -71 -39 -85 -63v-232c0 -100 24 -156 47 -175h-203l6 450c0 38 -4 67 -10 89c-35 -4 -61 -8 -71 -9l-2 13l69 9c-10 28 -23 42 -32 48v4l196 96v-122c55 10 107 20 138 28l4 -44c-36 2 -88 -1 -142 -6v-133
c15 24 70 85 148 85c99 0 158 -54 158 -196v-110c0 -108 17 -181 45 -202z" />
    <glyph glyph-name="k.ss02" horiz-adv-x="586" 
d="M8 600v4l196 96v-515c25 41 55 86 85 123c44 54 60 95 60 120c0 48 -31 72 -31 72h236v-1c-24 -4 -122 -59 -205 -142l174 -268c36 -56 68 -89 68 -89h-241c10 25 15 56 -28 123l-69 108c-13 -18 -43 -52 -41 -118c1 -37 16 -71 42 -113h-206l6 450
c2 121 -46 150 -46 150z" />
    <glyph glyph-name="c_t" horiz-adv-x="810" 
d="M805 502v-9h-96v-300c0 -129 48 -175 96 -185v-8c-114 0 -246 28 -246 223v270h-60v9c87 10 199 86 199 145c0 110 -91 193 -195 193c-111 0 -198 -81 -198 -193c0 -75 50 -139 94 -161c22 -8 44 -18 67 -31v-157c-51 114 -129 196 -217 196c-77 0 -124 -81 -103 -196
c17 -94 98 -187 207 -187c93 0 145 54 159 139h2c-2 -134 -90 -258 -252 -258c-138 0 -252 110 -252 256c0 153 115 260 252 260c40 0 73 -4 103 -11c-38 33 -69 89 -69 151c0 115 90 201 206 201c114 0 207 -91 207 -204v-143h96z" />
    <glyph glyph-name="e_t" horiz-adv-x="798" 
d="M10 248c0 153 116 260 259 260c98 0 202 -58 202 -192h-314c-1 -7 -1 -14 -1 -20c0 -114 88 -189 209 -184c83 4 164 70 182 157v224h-60v9c77 9 173 68 202 140h8v-140h96v-9h-96v-300c0 -129 48 -175 96 -185v-8c-114 0 -246 28 -246 223v26
c-19 -150 -126 -257 -276 -257c-147 0 -261 110 -261 256zM157 325h52c96 0 138 33 138 105c0 31 -20 65 -65 65c-72 0 -117 -79 -125 -170z" />
    <glyph glyph-name="f_h" horiz-adv-x="949" 
d="M0 464v10h213c-53 19 -213 78 -213 156c0 60 60 78 107 78c69 -1 150 -24 211 -44c89 -29 173 -12 228 14l46 22v-277c15 24 70 85 148 85c99 0 158 -54 158 -196v-110c0 -108 17 -181 45 -202h-201l6 299c2 118 -19 171 -71 171c-35 0 -71 -39 -85 -63v-232
c0 -143 47 -175 47 -175h-203l6 417c2 110 -67 182 -111 213c-55 39 -137 58 -159 58c-21 0 -33 -12 -33 -36c0 -66 92 -178 253 -178v-10h-103v-284c0 -151 45 -180 45 -180h-201l6 292c3 122 -52 172 -139 172z" />
    <glyph glyph-name="f_j" horiz-adv-x="629" 
d="M0 464v10h213c-53 19 -213 78 -213 156c0 59 57 78 106 78c43 0 90 -8 135 -31c71 -36 124 -42 241 -42v-135c-208 40 -257 190 -317 190c-17 0 -25 -15 -25 -41c0 -92 159 -206 263 -206c67 0 125 24 186 65v-381c0 -231 -136 -273 -217 -286v5c51 13 67 72 67 154v282
c-1 101 -54 161 -132 161h-18v-268c0 -100 24 -156 47 -175h-203l6 292c3 122 -52 172 -139 172z" />
    <glyph glyph-name="f_t" horiz-adv-x="692" 
d="M0 490v10h213c-53 19 -213 52 -213 130c0 60 60 78 107 78c46 0 88 -3 148 -23c57 -19 126 -26 137 -25v-142c-151 101 -184 171 -226 171c-20 0 -26 -16 -26 -40c0 -88 95 -149 229 -149c101 0 185 70 214 142h8v-142h96v-9h-96v-298c0 -129 48 -175 96 -185v-8
c-114 0 -246 28 -246 223v267h-152v-310c0 -151 45 -180 45 -180h-201l6 318c2 122 -52 172 -139 172z" />
    <glyph glyph-name="o_t" horiz-adv-x="841" 
d="M836 502v-9h-96v-300c0 -129 48 -175 96 -185v-8c-114 0 -246 28 -246 223v270h-60v9c87 10 199 86 199 145c0 106 -92 193 -198 193c-111 0 -202 -90 -202 -202c0 -71 28 -139 84 -174c68 -46 113 -125 113 -214c0 -143 -114 -258 -258 -258c-143 0 -258 114 -258 259
c0 143 116 257 259 257c37 0 72 -8 104 -22c-35 40 -53 95 -53 153c0 115 94 210 210 210c114 0 210 -94 210 -204v-143h96zM339 16c38 -2 59 37 59 98c0 132 -103 370 -204 370c-36 0 -55 -39 -55 -95c0 -129 101 -365 200 -373z" />
    <glyph glyph-name="s_p" horiz-adv-x="1025" 
d="M31 21l-11 185h2c65 -149 161 -204 233 -204c56 0 100 25 100 68c0 36 -42 55 -136 98c-125 57 -192 94 -193 182c-1 106 108 158 199 158c86 0 139 -33 189 -53c89 -36 149 3 244 53v-77c7 14 54 77 153 77c100 0 204 -67 204 -246c0 -194 -123 -270 -208 -270
c-83 0 -134 51 -149 63v-45c0 -100 24 -156 47 -175h-203l6 413c2 74 -28 145 -101 191c-41 26 -106 58 -178 58c-67 0 -99 -26 -99 -54c0 -41 40 -69 147 -125c90 -47 165 -93 165 -179c0 -102 -98 -147 -195 -147c-94 0 -175 15 -216 29zM658 405v-326
c17 -18 46 -48 96 -48c66 0 103 75 102 216c-2 155 -43 225 -107 225c-43 0 -83 -46 -91 -67z" />
    <glyph glyph-name="s_t" horiz-adv-x="757" 
d="M31 21l-11 185h2c65 -149 161 -204 233 -204c56 0 100 25 100 68c0 36 -42 55 -136 98c-125 57 -192 94 -193 182c-1 106 108 158 213 158c30 0 59 -4 85 -9c-48 38 -78 94 -78 163c0 95 87 187 204 187c113 0 206 -91 206 -204v-143h96v-9h-96v-300
c0 -129 48 -175 96 -185v-8c-114 0 -246 28 -246 223v270h-60v9c92 11 199 72 199 143c0 108 -88 195 -196 195c-111 0 -194 -88 -194 -179c0 -71 37 -132 93 -168c20 -6 37 -12 50 -18l8 -165h-2c-36 101 -100 186 -193 186c-49 0 -81 -25 -81 -53c0 -41 40 -69 147 -125
c90 -47 165 -93 165 -179c0 -102 -98 -147 -195 -147c-94 0 -175 15 -216 29z" />
    <glyph glyph-name="t_i" horiz-adv-x="554" 
d="M420 534c-51 0 -91 39 -91 89c0 49 40 91 91 91c52 0 89 -42 89 -91c0 -50 -37 -89 -89 -89zM52 493h-60v9c77 9 173 68 202 140h8v-135h9c39 0 56 -13 80 -28c62 -38 126 -23 208 29v-333c0 -100 24 -156 47 -175h-203l6 282c2 79 -20 158 -68 189c-26 17 -39 24 -70 24
h-9v-302c0 -129 48 -175 96 -185v-8c-114 0 -246 28 -246 223v270z" />
    <glyph glyph-name="t_t" horiz-adv-x="588" 
d="M52 493h-60v9c77 9 173 68 202 140h8v-140h51c101 0 197 68 226 140h8v-140h96v-9h-96v-300c0 -129 48 -175 96 -185v-8c-114 0 -246 28 -246 223v270h-135v-300c0 -129 48 -175 96 -185v-8c-114 0 -246 28 -246 223v270z" />
    <glyph glyph-name="v_e" horiz-adv-x="916" 
d="M4 496v4h219v-4c-3 -2 -8 -12 -8 -31c0 -17 4 -39 17 -72l100 -246l89 198c37 99 132 163 242 163c98 0 202 -58 202 -192h-313c0 -7 -1 -14 -1 -21c0 -111 87 -184 196 -184c81 0 145 49 159 134h2c-2 -134 -100 -253 -243 -253c-147 0 -261 110 -261 256v17l-72 -146
v-119h-101l-146 354c-41 99 -67 134 -81 142zM552 325h51c96 0 139 32 139 104c0 32 -21 65 -65 65c-73 0 -117 -79 -125 -169z" />
    <glyph glyph-name="v_i" horiz-adv-x="800" 
d="M4 496v4h219v-4c-3 -2 -8 -12 -8 -31c0 -17 4 -39 17 -72l100 -246l62 125c22 44 29 84 29 119c0 50 -17 89 -32 111c-35 50 -60 99 -60 149c0 115 89 198 211 198c123 0 226 -102 213 -230c-5 -50 -37 -85 -89 -85c-51 0 -91 39 -91 89c0 49 40 91 91 91
c36 0 65 -20 79 -49c-12 99 -97 175 -204 175c-116 0 -201 -79 -201 -190c0 -51 27 -101 51 -121c22 -19 58 -29 108 -29h40v-4s-40 -41 -112 -186l-95 -191v-119h-101l-146 354c-56 135 -81 142 -81 142zM549 408v4l196 96v-333c0 -100 24 -156 47 -175h-203l6 258
c2 100 -30 139 -46 150z" />
    <glyph glyph-name="w_e" horiz-adv-x="1328" 
d="M1318 245h2c-2 -134 -100 -253 -243 -253c-147 0 -261 110 -261 256c0 138 94 239 218 257c-145 41 -184 281 -357 281c-78 0 -142 -54 -142 -139c0 -87 79 -147 171 -147h141v-4c-21 -26 -53 -67 -112 -186l-95 -191v-119h-101l-121 293l-86 -174v-119h-101l-146 354
c-41 99 -67 134 -81 142v4h219v-4c-3 -2 -8 -12 -8 -31c0 -17 4 -39 17 -72l100 -246l62 125c7 14 12 27 16 40l-17 42c-41 99 -67 134 -81 142v4h219v-4c-3 -2 -8 -12 -8 -31c0 -17 4 -39 17 -72l100 -246l62 125c20 41 28 78 28 116c0 49 -13 84 -26 103
c-97 1 -178 66 -178 156s68 148 151 148c195 0 225 -287 401 -287c97 -1 199 -59 199 -192h-313c-1 -7 -1 -14 -1 -21c0 -111 87 -184 196 -184c81 0 145 49 159 134zM1089 494c-73 0 -116 -79 -125 -168h51c96 0 139 31 139 103c0 32 -21 65 -65 65z" />
    <glyph glyph-name="w_i" horiz-adv-x="1107" 
d="M4 496v4h219v-4c-3 -2 -8 -12 -8 -31c0 -17 4 -39 17 -72l100 -246l62 125c7 14 12 27 16 40l-17 42c-56 135 -81 142 -81 142v4h219v-4c-3 -2 -8 -12 -8 -31c0 -17 4 -39 17 -72l100 -246l62 125c22 44 29 84 29 119c0 50 -17 89 -32 111c-35 50 -60 99 -60 149
c0 115 89 198 211 198c123 0 226 -102 213 -230c-5 -50 -37 -85 -89 -85c-51 0 -91 39 -91 89c0 49 40 91 91 91c36 0 65 -20 79 -49c-12 99 -97 175 -204 175c-116 0 -201 -79 -201 -190c0 -51 27 -101 51 -121c22 -19 58 -29 108 -29h40v-4s-40 -41 -112 -186l-95 -191
v-119h-101l-121 293l-86 -174v-119h-101l-146 354c-56 135 -81 142 -81 142zM856 408v4l196 96v-333c0 -100 24 -156 47 -175h-203l6 258c2 100 -30 139 -46 150z" />
    <glyph glyph-name="f_f.ss01" horiz-adv-x="702" 
d="M0 530v10l243 -55c-86 35 -243 83 -243 160c0 45 53 63 102 63c51 0 87 -7 152 -37l46 -21c15 45 61 58 107 58c37 0 83 -8 130 -31c56 -28 118 -48 155 -52v-145c-24 18 -45 35 -63 51c-106 95 -124 159 -168 159c-21 0 -30 -21 -30 -44c0 -91 161 -240 261 -263v-10
l-103 24v-191c0 -151 45 -206 45 -206h-201l6 266c3 118 -56 178 -132 195l-18 4v-285c0 -151 45 -180 45 -180h-201l6 333c2 122 -58 173 -139 197zM139 652c0 -84 123 -171 236 -197l170 -39c-21 12 -130 78 -206 142c-59 51 -109 129 -170 129c-17 0 -30 -13 -30 -35z
" />
    <glyph glyph-name="zero.osf" horiz-adv-x="536" 
d="M10 251c0 143 116 257 259 257c142 0 257 -115 257 -258s-114 -258 -258 -258c-143 0 -258 114 -258 259zM139 389c0 -129 101 -365 200 -373c38 -2 59 37 59 98c0 132 -103 370 -204 370c-36 0 -55 -39 -55 -95z" />
    <glyph glyph-name="one.osf" horiz-adv-x="324" 
d="M7 341l-5 12c85 33 191 78 268 155v-301c0 -105 20 -173 46 -207h-242c26 34 46 102 46 207v137c0 20 -4 28 -17 28c-8 0 -22 -4 -32 -8z" />
    <glyph glyph-name="two.osf" horiz-adv-x="496" 
d="M482 0h-477l12 48c17 66 77 122 140 173c84 67 173 126 173 188c0 58 -37 84 -92 84c-102 0 -119 -118 -159 -291h-5v250c92 35 122 56 228 56c118 0 184 -38 184 -119c0 -79 -115 -113 -228 -155c-71 -27 -141 -57 -181 -104h197c139 0 178 31 208 51v-181z" />
    <glyph glyph-name="three.osf" horiz-adv-x="465" 
d="M20 321v180h395l-202 -204c149 -10 306 -122 216 -312c-85 -180 -383 -184 -384 -184l-5 5c34 4 209 36 253 164c47 138 -61 202 -214 207l187 194h-81c-86 0 -131 -25 -165 -50z" />
    <glyph glyph-name="four.osf" horiz-adv-x="563" 
d="M553 171v-164h-183v-28c0 -136 45 -179 45 -179h-229s44 43 44 171v36h-225v10c101 147 222 405 211 483h213c-44 -36 -165 -161 -408 -481h209v112c42 21 117 89 140 131v-230c87 30 156 104 183 139z" />
    <glyph glyph-name="five.osf" horiz-adv-x="439" 
d="M0 -200l-5 5c98 12 257 75 258 211c0 90 -94 129 -230 133l44 277c3 20 2 57 -7 74h303v-180c-34 25 -79 50 -165 50h-128l-10 -69c231 -14 354 -110 354 -236c0 -218 -272 -268 -414 -265z" />
    <glyph glyph-name="six.osf" horiz-adv-x="592" 
d="M12 294c0 223 247 414 484 414v-5c-156 0 -270 -118 -314 -242c30 17 77 25 118 25c149 0 283 -92 282 -248c-1 -136 -122 -246 -267 -246c-167 0 -303 115 -303 302zM173 351c0 -148 66 -345 174 -345c49 0 84 47 84 127c0 140 -67 338 -174 338c-31 0 -53 -16 -67 -41
c-11 -21 -17 -48 -17 -79z" />
    <glyph glyph-name="seven.osf" horiz-adv-x="485" 
d="M17 319v181h435l-41 -68c-81 -134 -128 -238 -162 -355c-35 -119 -36 -211 -33 -277h-199c54 151 220 376 305 511l37 59h-134c-139 0 -178 -31 -208 -51z" />
    <glyph glyph-name="eight.osf" horiz-adv-x="539" 
d="M8 194c0 110 76 169 138 191c-47 46 -76 97 -76 165c0 102 92 158 199 158c86 0 193 -44 193 -146c0 -59 -56 -103 -107 -132c103 -56 176 -122 176 -229c0 -93 -104 -209 -254 -209c-136 0 -269 62 -269 202zM143 617c0 -63 79 -116 188 -175c29 35 38 76 38 106
c0 74 -47 146 -133 146c-38 0 -93 -17 -93 -77zM135 228c0 -111 80 -218 175 -218c75 0 136 41 136 105c0 90 -108 129 -206 196c-26 18 -51 36 -72 54c-23 -28 -33 -79 -33 -137z" />
    <glyph glyph-name="nine.osf" horiz-adv-x="590" 
d="M580 206c0 -223 -247 -414 -484 -414v5c156 0 270 118 314 242c-30 -17 -77 -25 -118 -25c-149 0 -283 92 -282 248c1 136 122 246 267 246c167 0 303 -115 303 -302zM419 149c0 148 -66 345 -174 345c-49 0 -84 -47 -84 -127c0 -140 67 -338 174 -338c31 0 53 16 67 41
c11 21 17 48 17 79z" />
    <glyph glyph-name="ampersand.ss01" horiz-adv-x="865" 
d="M10 346c0 212 160 362 371 362c100 0 193 -25 193 -104c0 -51 -46 -93 -107 -140c-100 -73 -176 -135 -192 -199c18 25 55 48 105 68c165 70 328 151 480 272v-166l-182 -45c5 -35 7 -64 7 -89c0 -191 -136 -313 -320 -313c-202 0 -355 161 -355 354zM154 450
c0 -118 46 -215 119 -278c-31 53 -15 119 24 167c31 40 61 85 83 130c20 42 33 84 33 121c0 55 -38 97 -93 97c-109 0 -166 -115 -166 -237zM273 218c0 -30 18 -56 46 -76c39 -27 96 -43 153 -43c94 0 196 79 199 178c0 36 -12 77 -34 107c-145 -33 -185 -38 -262 -68
c-69 -30 -102 -62 -102 -98z" />
    <glyph glyph-name="E.ss01" horiz-adv-x="526" 
d="M517 0h-507c26 34 46 102 46 207v286c0 105 -20 173 -46 207h474l7 -186h-2c-38 78 -98 174 -188 174c-53 0 -84 -38 -84 -94v-113h225v-151l-225 139v-455c108 12 250 93 304 169z" />
    <glyph glyph-name="Eacute.ss01" horiz-adv-x="526" 
d="M312 811c-29 -18 -49 -28 -110 -71l-4 6c45 44 91 89 121 121c41 43 100 106 135 146l56 -98c-29 -13 -136 -66 -198 -104zM517 0h-507c26 34 46 102 46 207v286c0 105 -20 173 -46 207h474l7 -186h-2c-38 78 -98 174 -188 174c-53 0 -84 -38 -84 -94v-113h225v-151
l-225 139v-455c108 12 250 93 304 169z" />
    <glyph glyph-name="Ecaron.ss01" horiz-adv-x="526" 
d="M87 1004l3 6c52 -52 127 -119 175 -149c48 30 125 97 175 149l3 -6c-71 -106 -125 -183 -178 -263c-52 80 -103 158 -178 263zM517 0h-507c26 34 46 102 46 207v286c0 105 -20 173 -46 207h474l7 -186h-2c-38 78 -98 174 -188 174c-53 0 -84 -38 -84 -94v-113h225v-151
l-225 139v-455c108 12 250 93 304 169z" />
    <glyph glyph-name="Ecircumflex.ss01" horiz-adv-x="526" 
d="M91 740l-3 6c75 105 126 183 178 263c53 -80 107 -157 178 -263l-3 -6c-50 52 -127 119 -175 149c-48 -30 -123 -97 -175 -149zM517 0h-507c26 34 46 102 46 207v286c0 105 -20 173 -46 207h474l7 -186h-2c-38 78 -98 174 -188 174c-53 0 -84 -38 -84 -94v-113h225v-151
l-225 139v-455c108 12 250 93 304 169z" />
    <glyph glyph-name="Edieresis.ss01" horiz-adv-x="526" 
d="M176 747c-39 0 -70 30 -70 68s31 70 70 70s68 -31 68 -70c0 -38 -29 -68 -68 -68zM354 747c-39 0 -70 30 -70 68s31 70 70 70s68 -32 68 -70s-29 -68 -68 -68zM517 0h-507c26 34 46 102 46 207v286c0 105 -20 173 -46 207h474l7 -186h-2c-38 78 -98 174 -188 174
c-53 0 -84 -38 -84 -94v-113h225v-151l-225 139v-455c108 12 250 93 304 169z" />
    <glyph glyph-name="Edotaccent.ss01" horiz-adv-x="526" 
d="M264 757c-33 0 -58 25 -58 58c0 31 25 56 58 56c31 0 56 -25 56 -56c0 -33 -25 -58 -56 -58zM517 0h-507c26 34 46 102 46 207v286c0 105 -20 173 -46 207h474l7 -186h-2c-38 78 -98 174 -188 174c-53 0 -84 -38 -84 -94v-113h225v-151l-225 139v-455
c108 12 250 93 304 169z" />
    <glyph glyph-name="Egrave.ss01" horiz-adv-x="526" 
d="M216 811c-62 38 -169 91 -198 104l56 98c35 -40 94 -103 135 -146c30 -32 76 -77 121 -121l-4 -6c-61 43 -81 53 -110 71zM517 0h-507c26 34 46 102 46 207v286c0 105 -20 173 -46 207h474l7 -186h-2c-38 78 -98 174 -188 174c-53 0 -84 -38 -84 -94v-113h225v-151
l-225 139v-455c108 12 250 93 304 169z" />
    <glyph glyph-name="Emacron.ss01" horiz-adv-x="526" 
d="M264 781c68 0 119 7 136 7v-39c-17 0 -68 8 -136 8c-72 0 -119 -8 -136 -8v39c17 0 64 -7 136 -7zM517 0h-507c26 34 46 102 46 207v286c0 105 -20 173 -46 207h474l7 -186h-2c-38 78 -98 174 -188 174c-53 0 -84 -38 -84 -94v-113h225v-151l-225 139v-455
c108 12 250 93 304 169z" />
    <glyph glyph-name="Eogonek.ss01" horiz-adv-x="526" 
d="M517 0h-29c-91 0 -110 -74 -110 -105c0 -39 23 -56 45 -56s46 8 65 36l5 -3c-20 -36 -67 -79 -107 -79c-45 0 -75 32 -75 71c0 78 86 125 113 136h-414c26 34 46 102 46 207v286c0 105 -20 173 -46 207h474l7 -186h-2c-38 78 -98 174 -188 174c-53 0 -84 -38 -84 -94
v-113h225v-151l-225 139v-455c108 12 250 93 304 169z" />
    <glyph glyph-name="F.ss01" horiz-adv-x="499" 
d="M263 0h-253c26 34 46 102 46 207v286c0 105 -20 173 -46 207h474l7 -186h-2c-38 78 -98 174 -188 174c-53 0 -84 -38 -84 -94v-113h225v-151l-225 139v-265c1 -103 20 -170 46 -204z" />
    <glyph glyph-name="uni0136.ss01" horiz-adv-x="653" 
d="M273 0h-263c35 42 46 120 46 207v286c0 79 -14 169 -46 207h158c40 -34 107 -135 146 -198c58 86 94 149 97 198h214c-92 -40 -181 -127 -295 -223c112 -172 199 -341 318 -477h-239c-1 141 -72 454 -193 623v-388c0 -115 27 -180 57 -235zM344 -38c36 0 60 -28 60 -67
c0 -68 -49 -138 -163 -134c68 9 106 34 106 54c0 17 -12 26 -30 32c-17 6 -36 22 -36 52c0 34 28 63 63 63z" />
    <glyph glyph-name="OE.ss01" horiz-adv-x="946" 
d="M637 494v-480c108 12 250 93 304 169l-4 -183h-333h-43c-65 0 -134 -8 -165 -8c-219 0 -386 152 -386 360c0 216 155 357 377 357c27 0 61 -3 97 -6c25 -1 51 -3 76 -3h344l7 -186h-2c-38 78 -99 174 -188 174c-53 0 -88 -38 -88 -94c0 -57 30 -113 144 -113h85v-151
c-106 112 -143 153 -225 164zM464 16c126 0 158 118 158 223c0 198 -130 446 -303 446c-126 0 -158 -118 -158 -223c0 -198 130 -446 303 -446z" />
    <glyph glyph-name="i.loclTRK" horiz-adv-x="259" 
d="M125 557c-33 0 -58 25 -58 58c0 31 25 56 58 56c31 0 56 -25 56 -56c0 -33 -25 -58 -56 -58zM8 408v4l196 96v-333c0 -100 24 -156 47 -175h-203l6 258c2 100 -30 139 -46 150z" />
    <glyph glyph-name="l.base" horiz-adv-x="259" 
d="M204 735v-560c0 -143 47 -175 47 -175h-203l7 627l-47 8v4z" />
    <glyph glyph-name="d.ss01" horiz-adv-x="536" 
d="M260 498v2c-122 -16 -250 -96 -250 -275c0 -135 128 -255 291 -233c109 15 217 96 224 255c5 111 -27 200 -93 294c-27 39 -104 128 -145 159h-190s98 -78 166 -171c85 -116 123 -255 123 -360c1 -80 -20 -141 -57 -159c-65 -32 -163 100 -163 263c0 73 22 181 94 225z
" />
    <glyph glyph-name="m.ss01" horiz-adv-x="837" 
d="M8 408v4l196 96v-75c23 31 69 75 140 75c63 0 112 -26 135 -90c16 23 75 90 156 90c91 0 151 -54 151 -196v-110c0 -108 17 -181 45 -202h-201l6 299c2 118 -15 161 -66 161c-35 0 -69 -28 -86 -54c8 -26 11 -56 11 -94v-110c0 -108 17 -181 45 -202h-201l6 299
c2 118 -15 161 -66 161c-35 0 -59 -21 -75 -46v-239c0 -100 24 -156 47 -175h-203l6 258c2 100 -30 139 -46 150z" />
    <glyph glyph-name="n.ss01" horiz-adv-x="561" 
d="M8 408v4l196 96v-85c15 24 70 85 148 85c99 0 158 -54 158 -196v-110c0 -108 17 -181 45 -202h-201l6 297c2 118 -19 171 -71 171c-35 0 -71 -40 -85 -64v-229c0 -100 24 -156 47 -175h-203l6 258c2 100 -30 139 -46 150z" />
    <glyph glyph-name="nacute.ss01" horiz-adv-x="561" 
d="M350 611c-29 -18 -49 -28 -110 -71l-4 6c45 44 91 89 121 121c41 43 100 106 135 146l56 -98c-29 -13 -136 -66 -198 -104zM8 408v4l196 96v-85c15 24 70 85 148 85c99 0 158 -54 158 -196v-110c0 -108 17 -181 45 -202h-201l6 297c2 118 -19 171 -71 171
c-35 0 -71 -40 -85 -64v-229c0 -100 24 -156 47 -175h-203l6 258c2 100 -30 139 -46 150z" />
    <glyph glyph-name="ncaron.ss01" horiz-adv-x="561" 
d="M125 804l3 6c52 -52 127 -119 175 -149c48 30 125 97 175 149l3 -6c-71 -106 -125 -183 -178 -263c-52 80 -103 158 -178 263zM8 408v4l196 96v-85c15 24 70 85 148 85c99 0 158 -54 158 -196v-110c0 -108 17 -181 45 -202h-201l6 297c2 118 -19 171 -71 171
c-35 0 -71 -40 -85 -64v-229c0 -100 24 -156 47 -175h-203l6 258c2 100 -30 139 -46 150z" />
    <glyph glyph-name="ntilde.ss01" horiz-adv-x="561" 
d="M442 667l4 -2c-21 -41 -59 -105 -107 -105c-46 0 -78 46 -126 46c-25 0 -56 -9 -76 -46l-4 2c21 41 59 105 107 105c46 0 78 -46 126 -46c25 0 56 9 76 46zM8 408v4l196 96v-85c15 24 70 85 148 85c99 0 158 -54 158 -196v-110c0 -108 17 -181 45 -202h-201l6 297
c2 118 -19 171 -71 171c-35 0 -71 -40 -85 -64v-229c0 -100 24 -156 47 -175h-203l6 258c2 100 -30 139 -46 150z" />
    <glyph glyph-name="a.ss02" 
d="M141 -8c-77 0 -129 34 -129 110c0 39 19 73 50 103c-8 23 -12 49 -13 72c-9 147 77 229 253 231c87 1 137 -16 137 -60c0 -35 -24 -55 -51 -70v-14c0 -55 9 -219 118 -364h-140l6 275c-9 -52 -22 -109 -46 -158c-34 -71 -90 -125 -185 -125zM69 211c31 27 69 50 110 75
c50 33 106 84 106 126c0 18 -9 36 -42 39c-60 5 -105 -14 -135 -48c-29 -32 -45 -78 -46 -126c-1 -22 2 -44 7 -66zM203 127c46 0 82 23 111 60c37 47 61 119 65 187c-43 -20 -98 -45 -142 -69c-55 -29 -90 -62 -90 -122c0 -32 25 -56 56 -56z" />
    <glyph glyph-name="aacute.ss02" 
d="M327 611c-29 -18 -49 -28 -110 -71l-4 6c45 44 91 89 121 121c41 43 100 106 135 146l56 -98c-29 -13 -136 -66 -198 -104zM141 -8c-77 0 -129 34 -129 110c0 39 19 73 50 103c-8 23 -12 49 -13 72c-9 147 77 229 253 231c87 1 137 -16 137 -60c0 -35 -24 -55 -51 -70
v-14c0 -55 9 -219 118 -364h-140l6 275c-9 -52 -22 -109 -46 -158c-34 -71 -90 -125 -185 -125zM69 211c31 27 69 50 110 75c50 33 106 84 106 126c0 18 -9 36 -42 39c-60 5 -105 -14 -135 -48c-29 -32 -45 -78 -46 -126c-1 -22 2 -44 7 -66zM203 127c46 0 82 23 111 60
c37 47 61 119 65 187c-43 -20 -98 -45 -142 -69c-55 -29 -90 -62 -90 -122c0 -32 25 -56 56 -56z" />
    <glyph glyph-name="abreve.ss02" 
d="M417 709l7 -3c-32 -115 -82 -167 -145 -167s-113 52 -145 167l7 3c37 -98 99 -105 138 -105s101 7 138 105zM141 -8c-77 0 -129 34 -129 110c0 39 19 73 50 103c-8 23 -12 49 -13 72c-9 147 77 229 253 231c87 1 137 -16 137 -60c0 -35 -24 -55 -51 -70v-14
c0 -55 9 -219 118 -364h-140l6 275c-9 -52 -22 -109 -46 -158c-34 -71 -90 -125 -185 -125zM69 211c31 27 69 50 110 75c50 33 106 84 106 126c0 18 -9 36 -42 39c-60 5 -105 -14 -135 -48c-29 -32 -45 -78 -46 -126c-1 -22 2 -44 7 -66zM203 127c46 0 82 23 111 60
c37 47 61 119 65 187c-43 -20 -98 -45 -142 -69c-55 -29 -90 -62 -90 -122c0 -32 25 -56 56 -56z" />
    <glyph glyph-name="acircumflex.ss02" 
d="M106 540l-3 6c75 105 126 183 178 263c53 -80 107 -157 178 -263l-3 -6c-50 52 -127 119 -175 149c-48 -30 -123 -97 -175 -149zM141 -8c-77 0 -129 34 -129 110c0 39 19 73 50 103c-8 23 -12 49 -13 72c-9 147 77 229 253 231c87 1 137 -16 137 -60
c0 -35 -24 -55 -51 -70v-14c0 -55 9 -219 118 -364h-140l6 275c-9 -52 -22 -109 -46 -158c-34 -71 -90 -125 -185 -125zM69 211c31 27 69 50 110 75c50 33 106 84 106 126c0 18 -9 36 -42 39c-60 5 -105 -14 -135 -48c-29 -32 -45 -78 -46 -126c-1 -22 2 -44 7 -66zM203 127
c46 0 82 23 111 60c37 47 61 119 65 187c-43 -20 -98 -45 -142 -69c-55 -29 -90 -62 -90 -122c0 -32 25 -56 56 -56z" />
    <glyph glyph-name="adieresis.ss02" 
d="M191 547c-39 0 -70 30 -70 68s31 70 70 70s68 -31 68 -70c0 -38 -29 -68 -68 -68zM369 547c-39 0 -70 30 -70 68s31 70 70 70s68 -32 68 -70s-29 -68 -68 -68zM141 -8c-77 0 -129 34 -129 110c0 39 19 73 50 103c-8 23 -12 49 -13 72c-9 147 77 229 253 231
c87 1 137 -16 137 -60c0 -35 -24 -55 -51 -70v-14c0 -55 9 -219 118 -364h-140l6 275c-9 -52 -22 -109 -46 -158c-34 -71 -90 -125 -185 -125zM69 211c31 27 69 50 110 75c50 33 106 84 106 126c0 18 -9 36 -42 39c-60 5 -105 -14 -135 -48c-29 -32 -45 -78 -46 -126
c-1 -22 2 -44 7 -66zM203 127c46 0 82 23 111 60c37 47 61 119 65 187c-43 -20 -98 -45 -142 -69c-55 -29 -90 -62 -90 -122c0 -32 25 -56 56 -56z" />
    <glyph glyph-name="agrave.ss02" 
d="M231 611c-62 38 -169 91 -198 104l56 98c35 -40 94 -103 135 -146c30 -32 76 -77 121 -121l-4 -6c-61 43 -81 53 -110 71zM141 -8c-77 0 -129 34 -129 110c0 39 19 73 50 103c-8 23 -12 49 -13 72c-9 147 77 229 253 231c87 1 137 -16 137 -60c0 -35 -24 -55 -51 -70v-14
c0 -55 9 -219 118 -364h-140l6 275c-9 -52 -22 -109 -46 -158c-34 -71 -90 -125 -185 -125zM69 211c31 27 69 50 110 75c50 33 106 84 106 126c0 18 -9 36 -42 39c-60 5 -105 -14 -135 -48c-29 -32 -45 -78 -46 -126c-1 -22 2 -44 7 -66zM203 127c46 0 82 23 111 60
c37 47 61 119 65 187c-43 -20 -98 -45 -142 -69c-55 -29 -90 -62 -90 -122c0 -32 25 -56 56 -56z" />
    <glyph glyph-name="amacron.ss02" 
d="M279 581c68 0 119 7 136 7v-39c-17 0 -68 8 -136 8c-72 0 -119 -8 -136 -8v39c17 0 64 -7 136 -7zM141 -8c-77 0 -129 34 -129 110c0 39 19 73 50 103c-8 23 -12 49 -13 72c-9 147 77 229 253 231c87 1 137 -16 137 -60c0 -35 -24 -55 -51 -70v-14c0 -55 9 -219 118 -364
h-140l6 275c-9 -52 -22 -109 -46 -158c-34 -71 -90 -125 -185 -125zM69 211c31 27 69 50 110 75c50 33 106 84 106 126c0 18 -9 36 -42 39c-60 5 -105 -14 -135 -48c-29 -32 -45 -78 -46 -126c-1 -22 2 -44 7 -66zM203 127c46 0 82 23 111 60c37 47 61 119 65 187
c-43 -20 -98 -45 -142 -69c-55 -29 -90 -62 -90 -122c0 -32 25 -56 56 -56z" />
    <glyph glyph-name="aogonek.ss02" 
d="M366 -161c22 0 46 8 65 36l5 -3c-20 -36 -67 -79 -107 -79c-45 0 -75 32 -75 71c0 78 86 125 113 136h-1l6 275c-9 -52 -22 -109 -46 -158c-34 -71 -90 -125 -185 -125c-77 0 -129 34 -129 110c0 39 19 73 50 103c-8 23 -12 49 -13 72c-9 147 77 229 253 231
c87 1 137 -16 137 -60c0 -35 -24 -55 -51 -70v-14c0 -55 9 -219 118 -364h-75c-91 0 -110 -74 -110 -105c0 -39 23 -56 45 -56zM69 211c31 27 69 50 110 75c50 33 106 84 106 126c0 18 -9 36 -42 39c-60 5 -105 -14 -135 -48c-29 -32 -45 -78 -46 -126c-1 -22 2 -44 7 -66z
M314 187c37 47 61 119 65 187c-43 -20 -98 -45 -142 -69c-55 -29 -90 -62 -90 -122c0 -32 25 -56 56 -56c46 0 82 23 111 60z" />
    <glyph glyph-name="aring.ss02" 
d="M279 543c-47 0 -84 37 -84 84c0 46 37 83 84 83c46 0 83 -37 83 -83c0 -47 -37 -84 -83 -84zM279 557c36 0 69 30 69 69s-33 70 -69 70c-39 0 -70 -30 -70 -69s31 -70 70 -70zM141 -8c-77 0 -129 34 -129 110c0 39 19 73 50 103c-8 23 -12 49 -13 72
c-9 147 77 229 253 231c87 1 137 -16 137 -60c0 -35 -24 -55 -51 -70v-14c0 -55 9 -219 118 -364h-140l6 275c-9 -52 -22 -109 -46 -158c-34 -71 -90 -125 -185 -125zM69 211c31 27 69 50 110 75c50 33 106 84 106 126c0 18 -9 36 -42 39c-60 5 -105 -14 -135 -48
c-29 -32 -45 -78 -46 -126c-1 -22 2 -44 7 -66zM203 127c46 0 82 23 111 60c37 47 61 119 65 187c-43 -20 -98 -45 -142 -69c-55 -29 -90 -62 -90 -122c0 -32 25 -56 56 -56z" />
    <glyph glyph-name="atilde.ss02" 
d="M419 667l4 -2c-21 -41 -59 -105 -107 -105c-46 0 -78 46 -126 46c-25 0 -56 -9 -76 -46l-4 2c21 41 59 105 107 105c46 0 78 -46 126 -46c25 0 56 9 76 46zM141 -8c-77 0 -129 34 -129 110c0 39 19 73 50 103c-8 23 -12 49 -13 72c-9 147 77 229 253 231
c87 1 137 -16 137 -60c0 -35 -24 -55 -51 -70v-14c0 -55 9 -219 118 -364h-140l6 275c-9 -52 -22 -109 -46 -158c-34 -71 -90 -125 -185 -125zM69 211c31 27 69 50 110 75c50 33 106 84 106 126c0 18 -9 36 -42 39c-60 5 -105 -14 -135 -48c-29 -32 -45 -78 -46 -126
c-1 -22 2 -44 7 -66zM203 127c46 0 82 23 111 60c37 47 61 119 65 187c-43 -20 -98 -45 -142 -69c-55 -29 -90 -62 -90 -122c0 -32 25 -56 56 -56z" />
    <glyph glyph-name="f.ss02" horiz-adv-x="354" 
d="M82 437h-72v10h77c35 69 113 120 148 148c45 36 131 113 207 113l-35 -143h-38c-85 0 -131 18 -157 -4c-12 -10 -17 -23 -17 -43c0 -17 3 -40 5 -71h151v-10h-150c2 -29 4 -65 4 -109v-153c0 -100 24 -156 47 -175h-203l2 277c0 69 13 120 31 160z" />
    <glyph glyph-name="h.ss02" horiz-adv-x="571" 
d="M8 600v4l196 96v-270c39 43 90 78 169 78c156 0 225 -121 163 -277l-25 -63c-26 -65 -39 -125 -26 -168h-202l78 180c87 200 32 291 -53 291c-43 0 -74 -25 -104 -57v-239c0 -100 24 -156 47 -175h-203l6 450c1 100 -30 139 -46 150z" />
    <glyph glyph-name="hbar.ss02" horiz-adv-x="571" 
d="M373 508c156 0 225 -121 163 -277l-25 -63c-26 -65 -39 -125 -26 -168h-202l78 180c87 200 32 291 -53 291c-43 0 -74 -25 -104 -57v-239c0 -100 24 -156 47 -175h-203l6 450c0 38 -4 67 -10 89c-35 -4 -61 -8 -71 -9l-2 13l69 9c-10 28 -23 42 -32 48v4l196 96v-122
c55 10 107 20 138 28l4 -44c-36 2 -88 -1 -142 -6v-126c39 43 90 78 169 78z" />
    <glyph glyph-name="uni0137.ss02" horiz-adv-x="586" 
d="M8 600v4l196 96v-515c25 41 55 86 85 123c44 54 60 95 60 120c0 48 -31 72 -31 72h236v-1c-24 -4 -122 -59 -205 -142l174 -268c36 -56 68 -89 68 -89h-241c10 25 15 56 -28 123l-69 108c-13 -18 -43 -52 -41 -118c1 -37 16 -71 42 -113h-206l6 450
c2 121 -46 150 -46 150zM301 -30c36 0 60 -28 60 -67c0 -68 -49 -138 -163 -134c68 9 106 34 106 54c0 17 -12 26 -30 32c-17 6 -36 22 -36 52c0 34 28 63 63 63z" />
    <glyph glyph-name="n.ss02" horiz-adv-x="557" 
d="M8 408v4l196 96v-78c39 43 88 78 167 78c156 0 211 -121 149 -277l-25 -63c-26 -65 -39 -125 -26 -168h-202l78 180c87 200 49 291 -36 291c-43 0 -75 -25 -105 -57v-239c0 -100 24 -156 47 -175h-203l6 258c2 100 -30 139 -46 150z" />
    <glyph glyph-name="nacute.ss02" horiz-adv-x="557" 
d="M350 611c-29 -18 -49 -28 -110 -71l-4 6c45 44 91 89 121 121c41 43 100 106 135 146l56 -98c-29 -13 -136 -66 -198 -104zM8 408v4l196 96v-78c39 43 88 78 167 78c156 0 211 -121 149 -277l-25 -63c-26 -65 -39 -125 -26 -168h-202l78 180c87 200 49 291 -36 291
c-43 0 -75 -25 -105 -57v-239c0 -100 24 -156 47 -175h-203l6 258c2 100 -30 139 -46 150z" />
    <glyph glyph-name="ncaron.ss02" horiz-adv-x="557" 
d="M125 804l3 6c52 -52 127 -119 175 -149c48 30 125 97 175 149l3 -6c-71 -106 -125 -183 -178 -263c-52 80 -103 158 -178 263zM8 408v4l196 96v-78c39 43 88 78 167 78c156 0 211 -121 149 -277l-25 -63c-26 -65 -39 -125 -26 -168h-202l78 180c87 200 49 291 -36 291
c-43 0 -75 -25 -105 -57v-239c0 -100 24 -156 47 -175h-203l6 258c2 100 -30 139 -46 150z" />
    <glyph glyph-name="ntilde.ss02" horiz-adv-x="557" 
d="M442 667l4 -2c-21 -41 -59 -105 -107 -105c-46 0 -78 46 -126 46c-25 0 -56 -9 -76 -46l-4 2c21 41 59 105 107 105c46 0 78 -46 126 -46c25 0 56 9 76 46zM8 408v4l196 96v-78c39 43 88 78 167 78c156 0 211 -121 149 -277l-25 -63c-26 -65 -39 -125 -26 -168h-202
l78 180c87 200 49 291 -36 291c-43 0 -75 -25 -105 -57v-239c0 -100 24 -156 47 -175h-203l6 258c2 100 -30 139 -46 150z" />
    <glyph glyph-name="w.ss02" horiz-adv-x="815" 
d="M4 495v5h220v-5c-8 -6 -13 -15 -14 -29c0 -17 6 -40 23 -73l129 -257l39 66l-75 152c-42 85 -65 126 -77 141v5h208v-5c-6 -4 -8 -12 -8 -22c0 -20 9 -50 25 -80l17 -32c14 33 20 62 20 87c1 19 -2 35 -7 48v4h113v-4c-16 -16 -66 -71 -117 -152l103 -197l63 125
c22 44 29 85 28 120c-1 50 -17 88 -30 104v4h147v-4c-17 -20 -54 -70 -112 -186l-96 -192v-118h-101l-94 188l-46 -80v-108h-101l-176 354c-41 82 -68 129 -81 141z" />
    <glyph glyph-name="wacute.ss02" horiz-adv-x="815" 
d="M455 611c-29 -18 -49 -28 -110 -71l-4 6c45 44 91 89 121 121c41 43 100 106 135 146l56 -98c-29 -13 -136 -66 -198 -104zM4 495v5h220v-5c-8 -6 -13 -15 -14 -29c0 -17 6 -40 23 -73l129 -257l39 66l-75 152c-42 85 -65 126 -77 141v5h208v-5c-6 -4 -8 -12 -8 -22
c0 -20 9 -50 25 -80l17 -32c14 33 20 62 20 87c1 19 -2 35 -7 48v4h113v-4c-16 -16 -66 -71 -117 -152l103 -197l63 125c22 44 29 85 28 120c-1 50 -17 88 -30 104v4h147v-4c-17 -20 -54 -70 -112 -186l-96 -192v-118h-101l-94 188l-46 -80v-108h-101l-176 354
c-41 82 -68 129 -81 141z" />
    <glyph glyph-name="wcircumflex.ss02" horiz-adv-x="815" 
d="M234 540l-3 6c75 105 126 183 178 263c53 -80 107 -157 178 -263l-3 -6c-50 52 -127 119 -175 149c-48 -30 -123 -97 -175 -149zM4 495v5h220v-5c-8 -6 -13 -15 -14 -29c0 -17 6 -40 23 -73l129 -257l39 66l-75 152c-42 85 -65 126 -77 141v5h208v-5c-6 -4 -8 -12 -8 -22
c0 -20 9 -50 25 -80l17 -32c14 33 20 62 20 87c1 19 -2 35 -7 48v4h113v-4c-16 -16 -66 -71 -117 -152l103 -197l63 125c22 44 29 85 28 120c-1 50 -17 88 -30 104v4h147v-4c-17 -20 -54 -70 -112 -186l-96 -192v-118h-101l-94 188l-46 -80v-108h-101l-176 354
c-41 82 -68 129 -81 141z" />
    <glyph glyph-name="wdieresis.ss02" horiz-adv-x="815" 
d="M319 547c-39 0 -70 30 -70 68s31 70 70 70s68 -31 68 -70c0 -38 -29 -68 -68 -68zM497 547c-39 0 -70 30 -70 68s31 70 70 70s68 -32 68 -70s-29 -68 -68 -68zM4 495v5h220v-5c-8 -6 -13 -15 -14 -29c0 -17 6 -40 23 -73l129 -257l39 66l-75 152c-42 85 -65 126 -77 141
v5h208v-5c-6 -4 -8 -12 -8 -22c0 -20 9 -50 25 -80l17 -32c14 33 20 62 20 87c1 19 -2 35 -7 48v4h113v-4c-16 -16 -66 -71 -117 -152l103 -197l63 125c22 44 29 85 28 120c-1 50 -17 88 -30 104v4h147v-4c-17 -20 -54 -70 -112 -186l-96 -192v-118h-101l-94 188l-46 -80
v-108h-101l-176 354c-41 82 -68 129 -81 141z" />
    <glyph glyph-name="wgrave.ss02" horiz-adv-x="815" 
d="M359 611c-62 38 -169 91 -198 104l56 98c35 -40 94 -103 135 -146c30 -32 76 -77 121 -121l-4 -6c-61 43 -81 53 -110 71zM4 495v5h220v-5c-8 -6 -13 -15 -14 -29c0 -17 6 -40 23 -73l129 -257l39 66l-75 152c-42 85 -65 126 -77 141v5h208v-5c-6 -4 -8 -12 -8 -22
c0 -20 9 -50 25 -80l17 -32c14 33 20 62 20 87c1 19 -2 35 -7 48v4h113v-4c-16 -16 -66 -71 -117 -152l103 -197l63 125c22 44 29 85 28 120c-1 50 -17 88 -30 104v4h147v-4c-17 -20 -54 -70 -112 -186l-96 -192v-118h-101l-94 188l-46 -80v-108h-101l-176 354
c-41 82 -68 129 -81 141z" />
    <glyph glyph-name="y.ss02" horiz-adv-x="554" 
d="M4 496v4h219v-4c-3 -2 -8 -12 -8 -31c0 -17 4 -39 17 -72l104 -256l67 135c21 43 28 82 28 116c0 52 -17 91 -30 108v4h147v-4s-40 -40 -112 -186l-84 -169c-19 -38 -62 -129 -62 -210c0 -61 33 -90 74 -90c84 0 39 180 186 232v-176c-58 -15 -110 -20 -153 -56
c-25 -20 -74 -90 -141 -90c-53 0 -80 29 -80 76c0 41 29 91 65 147l-156 380c-56 136 -81 142 -81 142z" />
    <glyph glyph-name="yacute.ss02" horiz-adv-x="554" 
d="M351 611c-29 -18 -49 -28 -110 -71l-4 6c45 44 91 89 121 121c41 43 100 106 135 146l56 -98c-29 -13 -136 -66 -198 -104zM4 496v4h219v-4c-3 -2 -8 -12 -8 -31c0 -17 4 -39 17 -72l104 -256l67 135c21 43 28 82 28 116c0 52 -17 91 -30 108v4h147v-4s-40 -40 -112 -186
l-84 -169c-19 -38 -62 -129 -62 -210c0 -61 33 -90 74 -90c84 0 39 180 186 232v-176c-58 -15 -110 -20 -153 -56c-25 -20 -74 -90 -141 -90c-53 0 -80 29 -80 76c0 41 29 91 65 147l-156 380c-56 136 -81 142 -81 142z" />
    <glyph glyph-name="ycircumflex.ss02" horiz-adv-x="554" 
d="M130 540l-3 6c75 105 126 183 178 263c53 -80 107 -157 178 -263l-3 -6c-50 52 -127 119 -175 149c-48 -30 -123 -97 -175 -149zM4 496v4h219v-4c-3 -2 -8 -12 -8 -31c0 -17 4 -39 17 -72l104 -256l67 135c21 43 28 82 28 116c0 52 -17 91 -30 108v4h147v-4
s-40 -40 -112 -186l-84 -169c-19 -38 -62 -129 -62 -210c0 -61 33 -90 74 -90c84 0 39 180 186 232v-176c-58 -15 -110 -20 -153 -56c-25 -20 -74 -90 -141 -90c-53 0 -80 29 -80 76c0 41 29 91 65 147l-156 380c-56 136 -81 142 -81 142z" />
    <glyph glyph-name="ydieresis.ss02" horiz-adv-x="554" 
d="M215 547c-39 0 -70 30 -70 68s31 70 70 70s68 -31 68 -70c0 -38 -29 -68 -68 -68zM393 547c-39 0 -70 30 -70 68s31 70 70 70s68 -32 68 -70s-29 -68 -68 -68zM4 496v4h219v-4c-3 -2 -8 -12 -8 -31c0 -17 4 -39 17 -72l104 -256l67 135c21 43 28 82 28 116
c0 52 -17 91 -30 108v4h147v-4s-40 -40 -112 -186l-84 -169c-19 -38 -62 -129 -62 -210c0 -61 33 -90 74 -90c84 0 39 180 186 232v-176c-58 -15 -110 -20 -153 -56c-25 -20 -74 -90 -141 -90c-53 0 -80 29 -80 76c0 41 29 91 65 147l-156 380c-56 136 -81 142 -81 142z" />
    <glyph glyph-name="ygrave.ss02" horiz-adv-x="554" 
d="M255 611c-62 38 -169 91 -198 104l56 98c35 -40 94 -103 135 -146c30 -32 76 -77 121 -121l-4 -6c-61 43 -81 53 -110 71zM4 496v4h219v-4c-3 -2 -8 -12 -8 -31c0 -17 4 -39 17 -72l104 -256l67 135c21 43 28 82 28 116c0 52 -17 91 -30 108v4h147v-4s-40 -40 -112 -186
l-84 -169c-19 -38 -62 -129 -62 -210c0 -61 33 -90 74 -90c84 0 39 180 186 232v-176c-58 -15 -110 -20 -153 -56c-25 -20 -74 -90 -141 -90c-53 0 -80 29 -80 76c0 41 29 91 65 147l-156 380c-56 136 -81 142 -81 142z" />
    <glyph glyph-name="e.ss03" horiz-adv-x="522" 
d="M168 272c19 61 54 96 115 138c23 17 43 34 43 53c0 20 -22 30 -43 30c-84 0 -144 -117 -122 -239c18 -88 96 -143 191 -143c82 0 145 48 160 133h2c-2 -133 -100 -252 -244 -252c-146 0 -260 110 -260 255s113 261 262 261c87 0 179 -37 175 -104
c-4 -63 -69 -85 -141 -98c-63 -11 -111 -20 -138 -34z" />
    <glyph glyph-name="eacute.ss03" horiz-adv-x="522" 
d="M302 611c-29 -18 -49 -28 -110 -71l-4 6c45 44 91 89 121 121c41 43 100 106 135 146l56 -98c-29 -13 -136 -66 -198 -104zM168 272c19 61 54 96 115 138c23 17 43 34 43 53c0 20 -22 30 -43 30c-84 0 -144 -117 -122 -239c18 -88 96 -143 191 -143c82 0 145 48 160 133
h2c-2 -133 -100 -252 -244 -252c-146 0 -260 110 -260 255s113 261 262 261c87 0 179 -37 175 -104c-4 -63 -69 -85 -141 -98c-63 -11 -111 -20 -138 -34z" />
    <glyph glyph-name="ecaron.ss03" horiz-adv-x="522" 
d="M77 804l3 6c52 -52 127 -119 175 -149c48 30 125 97 175 149l3 -6c-71 -106 -125 -183 -178 -263c-52 80 -103 158 -178 263zM168 272c19 61 54 96 115 138c23 17 43 34 43 53c0 20 -22 30 -43 30c-84 0 -144 -117 -122 -239c18 -88 96 -143 191 -143
c82 0 145 48 160 133h2c-2 -133 -100 -252 -244 -252c-146 0 -260 110 -260 255s113 261 262 261c87 0 179 -37 175 -104c-4 -63 -69 -85 -141 -98c-63 -11 -111 -20 -138 -34z" />
    <glyph glyph-name="ecircumflex.ss03" horiz-adv-x="522" 
d="M81 540l-3 6c75 105 126 183 178 263c53 -80 107 -157 178 -263l-3 -6c-50 52 -127 119 -175 149c-48 -30 -123 -97 -175 -149zM168 272c19 61 54 96 115 138c23 17 43 34 43 53c0 20 -22 30 -43 30c-84 0 -144 -117 -122 -239c18 -88 96 -143 191 -143
c82 0 145 48 160 133h2c-2 -133 -100 -252 -244 -252c-146 0 -260 110 -260 255s113 261 262 261c87 0 179 -37 175 -104c-4 -63 -69 -85 -141 -98c-63 -11 -111 -20 -138 -34z" />
    <glyph glyph-name="edieresis.ss03" horiz-adv-x="522" 
d="M166 547c-39 0 -70 30 -70 68s31 70 70 70s68 -31 68 -70c0 -38 -29 -68 -68 -68zM344 547c-39 0 -70 30 -70 68s31 70 70 70s68 -32 68 -70s-29 -68 -68 -68zM168 272c19 61 54 96 115 138c23 17 43 34 43 53c0 20 -22 30 -43 30c-84 0 -144 -117 -122 -239
c18 -88 96 -143 191 -143c82 0 145 48 160 133h2c-2 -133 -100 -252 -244 -252c-146 0 -260 110 -260 255s113 261 262 261c87 0 179 -37 175 -104c-4 -63 -69 -85 -141 -98c-63 -11 -111 -20 -138 -34z" />
    <glyph glyph-name="edotaccent.ss03" horiz-adv-x="522" 
d="M254 557c-33 0 -58 25 -58 58c0 31 25 56 58 56c31 0 56 -25 56 -56c0 -33 -25 -58 -56 -58zM168 272c19 61 54 96 115 138c23 17 43 34 43 53c0 20 -22 30 -43 30c-84 0 -144 -117 -122 -239c18 -88 96 -143 191 -143c82 0 145 48 160 133h2
c-2 -133 -100 -252 -244 -252c-146 0 -260 110 -260 255s113 261 262 261c87 0 179 -37 175 -104c-4 -63 -69 -85 -141 -98c-63 -11 -111 -20 -138 -34z" />
    <glyph glyph-name="egrave.ss03" horiz-adv-x="522" 
d="M206 611c-62 38 -169 91 -198 104l56 98c35 -40 94 -103 135 -146c30 -32 76 -77 121 -121l-4 -6c-61 43 -81 53 -110 71zM168 272c19 61 54 96 115 138c23 17 43 34 43 53c0 20 -22 30 -43 30c-84 0 -144 -117 -122 -239c18 -88 96 -143 191 -143c82 0 145 48 160 133h2
c-2 -133 -100 -252 -244 -252c-146 0 -260 110 -260 255s113 261 262 261c87 0 179 -37 175 -104c-4 -63 -69 -85 -141 -98c-63 -11 -111 -20 -138 -34z" />
    <glyph glyph-name="emacron.ss03" horiz-adv-x="522" 
d="M254 581c68 0 119 7 136 7v-39c-17 0 -68 8 -136 8c-72 0 -119 -8 -136 -8v39c17 0 64 -7 136 -7zM168 272c19 61 54 96 115 138c23 17 43 34 43 53c0 20 -22 30 -43 30c-84 0 -144 -117 -122 -239c18 -88 96 -143 191 -143c82 0 145 48 160 133h2
c-2 -133 -100 -252 -244 -252c-146 0 -260 110 -260 255s113 261 262 261c87 0 179 -37 175 -104c-4 -63 -69 -85 -141 -98c-63 -11 -111 -20 -138 -34z" />
    <glyph glyph-name="eogonek.ss03" horiz-adv-x="522" 
d="M512 244h2c-2 -101 -59 -194 -149 -233c-21 -9 -41 -15 -55 -22c-46 -21 -57 -70 -57 -94c0 -39 23 -56 45 -56s46 8 65 36l5 -3c-20 -36 -67 -79 -107 -79c-45 0 -75 32 -75 71c0 66 61 110 97 128h-13c-146 0 -260 110 -260 255s113 261 262 261c87 0 179 -37 175 -104
c-4 -63 -69 -85 -141 -98c-63 -11 -111 -20 -138 -34c19 61 54 96 115 138c23 17 43 34 43 53c0 20 -22 30 -43 30c-84 0 -144 -117 -122 -239c18 -88 96 -143 191 -143c82 0 145 48 160 133z" />
    <glyph glyph-name="A_B" horiz-adv-x="941" 
d="M203 0h-200c25 37 56 111 73 170c73 253 135 420 270 497c40 23 94 33 179 33h110c123 0 218 -26 218 -117c0 -64 -52 -95 -113 -130c93 -17 196 -75 196 -207c0 -133 -126 -246 -284 -246h-315c26 34 46 102 46 207v135h-188c-14 -125 -11 -246 8 -342zM422 75
c35 110 122 228 167 282c69 84 101 153 101 222c0 65 -19 108 -85 108c-37 0 -62 -24 -75 -92c-33 -174 -72 -347 -108 -520zM197 356h186v137c0 86 -14 134 -29 163c-98 -50 -137 -164 -157 -300zM541 189c-4 -50 4 -95 23 -128c18 -30 44 -48 76 -48c94 0 132 141 132 252
c0 78 -17 147 -47 179c-40 -21 -80 -46 -114 -80c-41 -48 -64 -102 -70 -175z" />
    <glyph glyph-name="A_C" horiz-adv-x="1028" 
d="M185 0h-182c25 48 54 111 71 170c53 183 108 307 141 373v157h104l57 -145c71 95 192 153 332 153c104 0 200 -32 273 -77v-257h-2c-45 145 -170 313 -323 313c-126 0 -192 -102 -192 -237c0 -208 153 -351 341 -351c56 0 165 22 214 135l4 -2
c-40 -109 -140 -240 -328 -240c-159 0 -297 57 -371 256l-35 94h-110c-6 -50 -9 -110 -9 -190c0 -60 11 -129 15 -152zM181 356h103l-62 171c-20 -48 -32 -103 -41 -171z" />
    <glyph glyph-name="A_D" horiz-adv-x="997" 
d="M203 0h-200c25 37 56 111 73 170c73 253 135 420 270 497c40 23 94 33 179 33h66c235 0 396 -141 396 -349c0 -210 -161 -351 -396 -351h-254c26 34 46 102 46 207v135h-188c-14 -125 -11 -246 8 -342zM543 686v-672h31c135 0 248 167 248 337c0 166 -113 335 -248 335
h-31zM197 356h186v137c0 86 -14 134 -29 163c-98 -50 -137 -164 -157 -300z" />
    <glyph glyph-name="A_F" horiz-adv-x="825" 
d="M203 0h-200c25 37 56 111 73 170c73 253 135 420 270 497c40 23 94 33 179 33h285l7 -176h-2c-38 78 -98 164 -188 164c-53 0 -88 -38 -88 -94c0 -57 30 -113 144 -113h85v-151h-1c-80 86 -122 135 -174 155c-15 6 -38 9 -50 9v-287c0 -105 20 -173 46 -207h-252
c26 34 46 102 46 207v135h-188c-14 -125 -11 -246 8 -342zM197 356h186v137c0 86 -14 134 -29 163c-98 -50 -137 -164 -157 -300z" />
    <glyph glyph-name="A_K" horiz-adv-x="979" 
d="M203 0h-200c25 37 56 111 73 170c73 253 135 420 270 497c40 23 94 33 179 33h56c-22 -25 -41 -60 -53 -116c-38 -175 -70 -336 -106 -509c29 100 75 221 152 331c97 137 159 228 164 294h214c-46 -20 -151 -93 -240 -173l131 -282c38 -82 89 -177 131 -245h-237
c0 43 -32 152 -66 224l-83 175c-29 -43 -45 -91 -45 -164c0 -88 27 -180 57 -235h-263c26 34 46 102 46 207v135h-188c-14 -125 -11 -246 8 -342zM197 356h186v137c0 86 -14 134 -29 163c-98 -50 -137 -164 -157 -300z" />
    <glyph glyph-name="A_P" horiz-adv-x="858" 
d="M203 0h-200c25 37 56 111 73 170c73 253 135 420 270 497c40 23 94 33 179 33h110c123 0 218 -26 218 -117c0 -114 -163 -126 -251 -231c-73 -88 -61 -249 -5 -352h-260c26 34 46 102 46 207v135h-188c-14 -125 -11 -246 8 -342zM422 75c35 110 122 228 167 282
c69 84 101 153 101 222c0 65 -19 108 -85 108c-37 0 -62 -24 -75 -92c-33 -174 -72 -347 -108 -520zM197 356h186v137c0 86 -14 134 -29 163c-98 -50 -137 -164 -157 -300z" />
    <glyph glyph-name="A_R" horiz-adv-x="934" 
d="M203 0h-200c25 37 56 111 73 170c73 253 135 420 270 497c40 23 94 33 179 33h110c123 0 218 -26 218 -117c0 -75 -71 -106 -144 -148l89 -190c38 -81 88 -178 131 -245h-237c0 42 -32 152 -66 223l-46 96c-48 -91 -33 -228 17 -319h-260c26 34 46 102 46 207v135h-188
c-14 -125 -11 -246 8 -342zM422 75c35 110 122 228 167 282c69 84 101 153 101 222c0 65 -19 108 -85 108c-37 0 -62 -24 -75 -92c-33 -174 -72 -347 -108 -520zM197 356h186v137c0 86 -14 134 -29 163c-98 -50 -137 -164 -157 -300z" />
    <glyph glyph-name="A_s" horiz-adv-x="953" 
d="M185 0h-182c25 48 54 111 71 170c53 183 108 307 141 373v157h104l192 -489c52 -133 143 -209 235 -209c56 0 100 25 100 68c0 36 -42 55 -136 98c-125 57 -192 94 -193 182c-1 106 108 158 213 158c65 0 125 -17 159 -33l8 -165h-2c-36 101 -100 186 -193 186
c-49 0 -81 -25 -81 -53c0 -41 40 -69 147 -125c90 -47 165 -93 165 -179c0 -102 -98 -147 -195 -147c-94 0 -141 8 -204 8h-152c0 58 2 85 -47 218l-46 124h-111c-5 -51 -8 -112 -8 -190c0 -60 11 -129 15 -152zM179 356h105l-63 171c-20 -48 -34 -98 -42 -171z" />
    <glyph glyph-name="C_A" horiz-adv-x="1219" 
d="M10 350c0 212 175 358 398 358c104 0 200 -32 273 -77v-257h-2c-45 145 -170 313 -323 313c-126 0 -192 -102 -192 -237c0 -208 153 -351 341 -351c68 0 162 45 216 188c22 58 66 201 94 257v156h104l162 -414c60 -153 102 -236 135 -286h-234c0 58 2 86 -47 218l-46 124
h-129l-15 -47c-55 -162 -143 -303 -350 -303c-214 0 -385 145 -385 358zM764 356h120l-63 171c-29 -62 -42 -116 -57 -171z" />
    <glyph glyph-name="E_A" horiz-adv-x="1011" 
d="M577 0h-567c26 34 46 102 46 207v286c0 105 -20 173 -46 207h474l7 -175h-2c-38 78 -98 163 -188 163c-53 0 -88 -38 -88 -94c0 -57 30 -113 144 -113h85v-151h-1c-80 86 -122 135 -174 155c-15 6 -38 9 -50 9v-480c173 20 215 32 252 156c54 182 105 307 138 373v157
h104l162 -414c60 -153 102 -236 135 -286h-234c0 58 2 85 -47 218l-46 124h-111c-5 -51 -8 -112 -8 -190c0 -60 11 -129 15 -152zM571 356h105l-63 171c-20 -48 -34 -98 -42 -171z" />
    <glyph glyph-name="E_R" horiz-adv-x="1087" 
d="M750 0h-740c26 34 46 102 46 207v286c0 105 -20 173 -46 207h778c123 0 218 -26 218 -117c0 -75 -71 -106 -144 -148l89 -190c38 -81 88 -178 131 -245h-237c0 42 -32 152 -66 223l-46 96c-48 -91 -33 -228 17 -319zM213 594c0 -57 30 -113 144 -113h85v-151h-1
c-80 86 -122 135 -174 155c-15 6 -38 9 -50 9v-480c166 11 319 28 319 189v274c0 152 -69 211 -235 211c-53 0 -88 -38 -88 -94zM575 75c35 110 122 228 167 282c69 84 101 153 101 222c0 65 -19 108 -85 108c-37 0 -62 -24 -75 -92c-33 -174 -72 -347 -108 -520z" />
    <glyph glyph-name="E_R_S" horiz-adv-x="1552" 
d="M750 0h-740c26 34 46 102 46 207v286c0 105 -20 173 -46 207h778c123 0 218 -26 218 -117c0 -75 -71 -106 -144 -148l89 -190c75 -159 209 -229 349 -229c77 0 157 24 157 97c0 81 -113 128 -223 184c-102 51 -201 109 -201 233c0 112 116 178 244 178
c99 0 173 -18 216 -38l22 -215h-2c-93 137 -199 234 -288 234c-49 0 -108 -29 -108 -94c0 -64 53 -79 195 -147c167 -80 231 -147 231 -253c0 -121 -119 -195 -268 -195h-430c0 42 -32 152 -66 223l-46 96c-48 -91 -33 -228 17 -319zM213 594c0 -57 30 -113 144 -113h85
v-151h-1c-80 86 -122 135 -174 155c-15 6 -38 9 -50 9v-480c180 13 319 28 319 189v274c0 163 -69 211 -235 211c-53 0 -88 -38 -88 -94zM575 75c35 110 122 228 167 282c69 84 101 153 101 222c0 65 -19 108 -85 108c-37 0 -62 -24 -75 -92c-33 -174 -72 -347 -108 -520z
" />
    <glyph glyph-name="F_E" horiz-adv-x="959" 
d="M263 0h-253c26 34 46 102 46 207v286c0 105 -19 173 -45 207h906l7 -186h-2c-38 78 -98 174 -188 174c-53 0 -88 -38 -88 -94c0 -57 30 -113 144 -113h85v-151h-1c-80 86 -122 135 -174 155c-15 6 -38 9 -50 9v-480c108 12 250 93 304 169l-4 -183h-507
c26 34 46 102 46 207v276c0 167 -98 203 -188 203c-53 0 -88 -36 -88 -92c0 -57 30 -113 144 -113h85v-151h-1c-80 86 -122 135 -174 155c-15 6 -38 9 -50 9v-287c0 -105 20 -173 46 -207z" />
    <glyph glyph-name="F_F" horiz-adv-x="932" 
d="M263 0h-253c26 34 46 102 46 207v286c0 105 -19 173 -45 207h906l7 -186h-2c-38 78 -98 174 -188 174c-53 0 -88 -38 -88 -94c0 -57 30 -113 144 -113h85v-151h-1c-80 86 -122 135 -174 155c-15 6 -38 9 -50 9v-287c0 -105 20 -173 46 -207h-253c26 34 46 102 46 207v276
c0 178 -98 203 -188 203c-53 0 -88 -36 -88 -92c0 -57 30 -113 144 -113h85v-151h-1c-80 86 -122 135 -174 155c-15 6 -38 9 -50 9v-287c0 -105 20 -173 46 -207z" />
    <glyph glyph-name="F_S" horiz-adv-x="1060" 
d="M263 0h-253c26 34 46 102 46 207v286c0 105 -20 173 -46 207h474c7 -109 19 -239 29 -324c22 -191 145 -364 351 -364c57 0 101 30 101 92c0 90 -113 137 -223 193c-102 51 -201 109 -201 233c0 112 116 178 244 178c99 0 173 -18 216 -38l22 -215h-2
c-93 137 -199 234 -288 234c-49 0 -108 -29 -108 -94c0 -64 53 -79 195 -147c167 -80 231 -147 231 -253c0 -121 -98 -203 -233 -203c-134 0 -233 20 -285 41c-4 69 -19 257 -28 342c-7 71 -14 133 -40 184c-38 65 -91 129 -164 129c-53 0 -88 -38 -88 -94
c0 -57 30 -113 144 -113h85v-151h-1c-80 86 -122 135 -174 155c-15 6 -38 9 -50 9v-287c0 -105 20 -173 46 -207z" />
    <glyph glyph-name="F_i" horiz-adv-x="610" 
d="M263 0h-253c26 34 46 102 46 207v286c0 105 -20 173 -46 207h479l7 -176h-2c-56 82 -120 164 -199 164c-47 0 -82 -38 -82 -94c0 -99 104 -124 193 -124c55 0 107 19 149 38v-333c0 -100 24 -156 47 -175h-203l6 263c2 105 -45 183 -126 217c-19 8 -40 13 -62 14v-287
c0 -105 20 -173 46 -207z" />
    <glyph glyph-name="F_r" horiz-adv-x="773" 
d="M263 0h-253c26 34 46 102 46 207v286c0 105 -20 173 -46 207h474l7 -176h-2c-53 111 -115 164 -190 164c-51 0 -86 -38 -86 -94c0 -99 104 -124 193 -124c55 0 107 19 149 38v-197c22 116 82 185 208 197l-31 -148c-66 14 -177 -2 -177 -108v-77c0 -100 24 -156 47 -175
h-203l6 263c2 105 -45 183 -126 217c-19 8 -40 13 -62 14v-287c0 -105 20 -173 46 -207z" />
    <glyph glyph-name="F_u" horiz-adv-x="918" 
d="M263 0h-253c26 34 46 102 46 207v286c0 105 -20 173 -46 207h474l7 -176h-2c-53 111 -115 164 -190 164c-51 0 -86 -38 -86 -94c0 -99 104 -124 193 -124c50 0 73 9 149 38v-307c0 -99 14 -155 77 -155c35 0 56 15 76 32l2 195c0 96 -30 139 -46 150v4l196 81v-333
c0 -100 27 -156 50 -175h-203l1 54c-24 -25 -74 -62 -135 -62c-100 0 -168 54 -168 196v75c0 105 -45 183 -126 217c-19 8 -40 13 -62 14v-287c0 -105 20 -173 46 -207z" />
    <glyph glyph-name="K_S" horiz-adv-x="1103" 
d="M273 0h-263c26 34 46 102 46 207v286c0 105 -20 173 -46 207h244c-22 -25 -41 -60 -53 -116c-38 -175 -70 -336 -106 -509c29 100 75 221 152 331c97 137 159 228 164 294h214c-46 -20 -151 -93 -240 -173l125 -266c97 -207 193 -245 341 -245c77 0 157 24 157 97
c0 81 -113 128 -223 184c-102 51 -201 109 -201 233c0 112 116 178 244 178c99 0 173 -18 216 -38l22 -215h-2c-93 137 -199 234 -288 234c-49 0 -108 -29 -108 -94c0 -64 53 -79 195 -147c167 -80 231 -147 231 -253c0 -121 -119 -195 -268 -195h-416c0 43 -32 152 -66 224
l-83 175c-29 -43 -45 -91 -45 -164c0 -88 27 -180 57 -235z" />
    <glyph glyph-name="L_E" horiz-adv-x="991" 
d="M982 0h-972c26 34 46 102 46 207v286c0 105 -20 173 -46 207h252c-26 -34 -46 -102 -46 -207v-479c259 20 305 62 305 283v196c0 105 -20 173 -46 207h474l7 -176h-2c-38 78 -98 164 -188 164c-53 0 -88 -38 -88 -94c0 -57 30 -113 144 -113h85v-151h-1
c-80 86 -122 135 -174 155c-15 6 -38 9 -50 9v-480c108 12 250 93 304 169z" />
    <glyph glyph-name="N_N" horiz-adv-x="1045" 
d="M66 604l-61 96h195l309 -473v377l-61 96h195l309 -473v140c0 173 -41 287 -71 333h156c-30 -46 -71 -160 -71 -333v-367h-76c-45 100 -224 362 -367 582v-582h-76c-45 100 -224 362 -367 582v-249c0 -173 52 -287 91 -333h-166c26 46 61 160 61 333v271z" />
    <glyph glyph-name="R_S" horiz-adv-x="1070" 
d="M270 0h-260c26 34 46 102 46 207v286c0 105 -20 173 -46 207h298c123 0 218 -26 218 -117c0 -75 -71 -106 -144 -148l92 -194c85 -178 201 -225 344 -225c77 0 157 24 157 97c0 81 -113 128 -223 184c-102 51 -201 109 -201 233c0 112 116 178 244 178
c99 0 173 -18 216 -38l22 -215h-2c-93 137 -199 234 -288 234c-49 0 -108 -29 -108 -94c0 -64 53 -79 195 -147c167 -80 231 -147 231 -253c0 -121 -119 -195 -268 -195h-428c0 42 -32 152 -66 223l-46 96c-48 -91 -33 -228 17 -319zM95 75c35 110 122 228 167 282
c69 84 101 153 101 222c0 65 -19 108 -85 108c-37 0 -62 -24 -75 -92c-33 -174 -72 -347 -108 -520z" />
    <glyph glyph-name="S_T" horiz-adv-x="977" 
d="M23 33l-17 272h2c98 -162 230 -293 346 -293c57 0 101 30 101 92c0 90 -113 137 -223 193c-102 51 -201 109 -201 233c0 112 100 170 244 170h680l19 -170h-2c-52 87 -109 148 -146 154c-35 6 -52 -9 -52 -68v-409c0 -105 20 -173 46 -207h-252c26 34 46 102 46 207v409
c0 50 -12 70 -38 70h-312c-78 0 -149 -31 -149 -91c0 -64 53 -79 195 -147c167 -80 231 -147 231 -253c0 -121 -98 -203 -233 -203c-134 0 -233 20 -285 41z" />
    <glyph glyph-name="T_E" horiz-adv-x="1056" 
d="M5 530h-2l19 170h992l7 -176h-2c-38 78 -98 164 -188 164c-53 0 -88 -38 -88 -94c0 -57 30 -113 144 -113h85v-151h-1c-80 86 -122 135 -174 155c-15 6 -38 9 -50 9v-480c108 12 250 93 304 169l-4 -183h-507c26 34 46 102 46 207v266c0 149 -65 205 -177 208
c-33 1 -46 -9 -46 -65v-409c0 -105 20 -173 46 -207h-252c26 34 46 102 46 207v409c0 58 -16 74 -52 68c-45 -8 -105 -85 -146 -154z" />
    <glyph glyph-name="T_T" horiz-adv-x="906" 
d="M5 530h-2l19 170h862l19 -170h-2c-52 87 -109 148 -146 154c-35 6 -52 -9 -52 -68v-409c0 -105 20 -173 46 -207h-252c26 34 46 102 46 207v409c0 59 -16 68 -52 68h-76c-35 0 -52 -9 -52 -68v-409c0 -105 20 -173 46 -207h-252c26 34 46 102 46 207v409
c0 58 -16 74 -52 68c-45 -8 -105 -85 -146 -154z" />
    <glyph glyph-name="T_U" horiz-adv-x="1153" 
d="M5 530h-2l19 170h426c149 0 258 -104 258 -331v-115c0 -172 44 -235 153 -235c137 0 188 125 188 278v148c0 156 -60 229 -101 255h199c-34 -26 -84 -99 -84 -255v-148c0 -138 -31 -305 -231 -305c-123 0 -284 42 -284 305v101c0 180 -56 276 -137 284
c-31 3 -46 -11 -46 -66v-409c0 -105 20 -173 46 -207h-252c26 34 46 102 46 207v409c0 58 -16 74 -52 68c-45 -8 -105 -85 -146 -154z" />
    <glyph glyph-name="d_e" horiz-adv-x="1088" 
d="M10 238c0 194 138 270 223 270c65 0 101 -18 148 -45v6c0 100 -46 131 -46 131v4l196 96v-312c24 -10 47 -19 69 -26c41 89 130 146 235 146c97 0 202 -58 202 -192h-262c-15 0 -33 1 -51 4c-1 -8 -1 -17 -1 -25c0 -112 85 -184 196 -184c79 0 145 49 159 134h2
c-2 -134 -102 -253 -243 -253c-149 0 -261 110 -261 256c0 38 7 73 20 105c-21 7 -43 15 -65 24v-202c0 -143 47 -175 47 -175h-203l1 59c-17 -22 -63 -67 -147 -67c-100 0 -219 67 -219 246zM725 329c21 -3 37 -4 61 -4c79 0 128 32 128 104c0 32 -22 65 -66 65
c-72 0 -114 -77 -123 -165zM169 253c2 -155 58 -225 122 -225c36 0 71 33 85 56l5 364c-32 14 -57 20 -95 21c-66 1 -118 -75 -117 -216z" />
    <glyph glyph-name="e_l" horiz-adv-x="755" 
d="M10 248c0 153 116 260 259 260c98 0 202 -58 202 -192h-314c-1 -7 -1 -14 -1 -20c0 -114 88 -189 209 -184c85 4 167 73 183 162l2 176c1 100 -30 139 -46 150v4l196 96v-525c0 -100 24 -156 47 -175h-203l3 249c-19 -150 -126 -257 -276 -257c-147 0 -261 110 -261 256z
M157 325h52c96 0 138 33 138 105c0 31 -20 65 -65 65c-72 0 -117 -79 -125 -170z" />
    <glyph glyph-name="e_r" horiz-adv-x="916" 
d="M10 248c0 153 116 260 259 260c98 0 202 -58 202 -192h-314c-1 -7 -1 -14 -1 -20c0 -114 88 -189 209 -184c86 4 168 74 183 164v10c0 84 -31 116 -46 127v5l197 90v-197c21 117 81 185 207 197l-30 -147c-66 13 -177 -2 -177 -109v-77c0 -100 23 -156 47 -175h-204
l5 249c-19 -150 -126 -257 -276 -257c-147 0 -261 110 -261 256zM157 325h52c96 0 138 33 138 105c0 31 -20 65 -65 65c-72 0 -117 -79 -125 -170z" />
    <glyph glyph-name="f_f_y" horiz-adv-x="1203" 
d="M0 490v10h213c-53 19 -213 52 -213 130c0 60 60 78 107 78c74 0 135 -30 201 -45c17 34 62 45 99 45c46 0 88 -3 148 -23c57 -19 126 -26 137 -25v-142c-151 101 -184 171 -226 171c-20 0 -26 -16 -26 -40c0 -90 91 -149 252 -149h184v-4c-3 -2 -8 -12 -8 -31
c0 -17 4 -39 17 -72l103 -254l66 133c20 41 29 81 29 114c0 53 -18 93 -31 110v4h147v-4c-27 -31 -64 -90 -112 -186l-163 -327c-39 -79 -109 -214 -266 -257v173c123 0 193 12 238 71l-158 384c-41 99 -59 136 -127 136h-22v-310c0 -151 45 -180 45 -180h-201l6 318
c2 122 -52 172 -139 172h-11v-310c0 -151 45 -180 45 -180h-201l6 318c2 122 -52 172 -139 172zM140 649c0 -90 91 -149 252 -149h121c-42 15 -134 36 -195 84c-84 65 -120 105 -152 105c-20 0 -26 -16 -26 -40z" />
    <glyph glyph-name="f_r" horiz-adv-x="797" 
d="M0 464v10h213c-53 19 -213 78 -213 156c0 59 57 78 106 78c104 0 140 -46 285 -56l1 -140c-143 90 -183 178 -227 178c-17 0 -25 -15 -25 -41c0 -92 159 -206 263 -206c67 0 115 24 176 65v-197c22 116 82 185 208 197l-31 -148c-66 14 -177 -2 -177 -108v-77
c0 -100 24 -156 47 -175h-203l6 282c2 101 -44 161 -122 161h-18v-268c0 -100 24 -156 47 -175h-203l6 292c3 122 -52 172 -139 172z" />
    <glyph glyph-name="f_u" horiz-adv-x="942" 
d="M0 464v10h213c-53 19 -213 78 -213 156c0 59 57 78 106 78c104 0 140 -46 285 -56l1 -140c-143 90 -183 178 -227 178c-17 0 -25 -15 -25 -41c0 -92 159 -206 263 -206c67 0 115 24 176 65v-307c0 -99 14 -155 77 -155c35 0 56 15 76 32l2 195c0 96 -30 139 -46 150v4
l196 81v-333c0 -100 27 -156 50 -175h-203l1 54c-24 -25 -74 -62 -135 -62c-100 0 -168 54 -168 196v94c0 101 -44 161 -122 161h-18v-268c0 -100 24 -156 47 -175h-203l6 292c3 122 -52 172 -139 172z" />
    </font>
</defs>
</svg>
